<svg width="20" height="20" viewBox="0 0 20 20" fill="none" xmlns="http://www.w3.org/2000/svg">
<g clip-path="url(#clip0_1030_4686)">
<path d="M9.58001 17.5633C5.17082 17.5633 1.59668 13.9892 1.59668 9.58001C1.59668 5.17082 5.17082 1.59668 9.58001 1.59668C13.9892 1.59668 17.5633 5.17082 17.5633 9.58001C17.5633 13.9892 13.9892 17.5633 9.58001 17.5633ZM9.58001 15.9667C11.2739 15.9667 12.8983 15.2938 14.0961 14.0961C15.2938 12.8983 15.9667 11.2739 15.9667 9.58001C15.9667 7.88616 15.2938 6.26169 14.0961 5.06396C12.8983 3.86623 11.2739 3.19335 9.58001 3.19335C7.88616 3.19335 6.26169 3.86623 5.06396 5.06396C3.86623 6.26169 3.19335 7.88616 3.19335 9.58001C3.19335 11.2739 3.86623 12.8983 5.06396 14.0961C6.26169 15.2938 7.88616 15.9667 9.58001 15.9667ZM8.78168 11.975H10.3783V13.5717H8.78168V11.975ZM8.78168 5.58835H10.3783V10.3783H8.78168V5.58835Z" fill="black"/>
</g>
<defs>
<clipPath id="clip0_1030_4686">
<rect width="19.16" height="19.16" fill="white"/>
</clipPath>
</defs>
</svg>
