<svg width="37" height="35" viewBox="0 0 37 35" fill="none" xmlns="http://www.w3.org/2000/svg">
<path d="M36.8966 19.2445C36.7404 19.0126 36.4459 18.9276 36.1915 19.0347C32.4916 20.6012 29.3542 22.8772 27.3724 24.5107C25.8862 25.7378 24.824 26.7779 24.2973 27.3224L16.9422 21.2796C16.786 21.1501 16.5718 21.1146 16.38 21.1815C16.1882 21.2528 16.0453 21.4181 16.0096 21.6189L14.8092 27.8669C14.7647 28.1035 14.8717 28.3444 15.0769 28.4693L23.0744 33.374L24.6586 34.4719C24.7567 34.5389 24.8728 34.5747 24.9889 34.5747C25.0291 34.5747 25.0692 34.5747 25.105 34.5613C25.2613 34.5301 25.3952 34.4364 25.4799 34.2979L26.6625 32.3924C30.8936 25.9031 36.7711 20.03 36.8293 19.9718C37.0257 19.7754 37.0569 19.4675 36.9006 19.2399L36.8966 19.2445ZM32.4782 22.9622C29.1132 26.7959 26.9263 29.8664 25.6858 31.7717L25.6767 31.7807L24.811 33.1733L23.713 32.4146C23.713 32.4146 23.6953 32.4012 23.6863 32.3969L16.0143 27.693L16.956 22.7927L23.9764 28.5588C24.2173 28.7552 24.5654 28.7285 24.7752 28.5009C24.7885 28.4875 26.0425 27.1084 28.1268 25.3903C29.5059 24.2522 31.465 22.7927 33.7858 21.4986C33.3842 21.936 32.9421 22.4269 32.4736 22.9624L32.4782 22.9622Z" fill="white"/>
<path d="M17.6876 17.7678C17.5895 18.0713 17.7545 18.3969 18.0624 18.4953L22.6682 19.9815C23.9135 20.3831 24.9265 21.298 25.4532 22.494L25.663 23.4223C25.7256 23.69 25.9622 23.8731 26.2252 23.8731C26.2697 23.8731 26.3099 23.8687 26.3547 23.8597C26.6673 23.7884 26.8634 23.4802 26.7921 23.168L26.5689 22.1904C26.5599 22.1546 26.5512 22.1235 26.5378 22.0924C25.8862 20.5616 24.6055 19.3924 23.0209 18.8833L18.4151 17.3972C18.1115 17.2991 17.7859 17.4641 17.6875 17.772L17.6876 17.7678Z" fill="white"/>
<path d="M21.2317 33.165C19.0848 33.5264 16.666 33.7094 14.0419 33.7094C8.10182 33.7094 4.44658 32.7855 2.42949 32.0091C1.59484 31.6878 1.07283 30.8398 1.16217 29.9516C1.39877 27.5327 1.95197 24.971 2.37593 23.2482C2.56334 22.4895 2.93816 21.7888 3.46928 21.2176C4.00038 20.6463 4.67435 20.2179 5.41496 19.9813L10.0208 18.4952C10.3243 18.3971 10.494 18.0712 10.3956 17.7676C10.2976 17.4641 9.97162 17.2944 9.66809 17.3928L5.06225 18.879C4.13395 19.1781 3.29061 19.7136 2.62563 20.4321C1.96067 21.1462 1.4875 22.0254 1.25559 22.9761C0.822554 24.7344 0.260349 27.3544 0.0150464 29.8402C-0.123178 31.2504 0.702421 32.5894 2.01899 33.0937C4.12997 33.9059 7.92802 34.8701 14.0467 34.8701C16.738 34.8701 19.2191 34.6826 21.4285 34.3078C21.7454 34.2543 21.9552 33.9551 21.9016 33.6429C21.8481 33.3303 21.5489 33.1161 21.2323 33.1697L21.2317 33.165Z" fill="white"/>
<path d="M6.83383 11.1801C6.97672 11.8273 7.44089 12.3762 8.07907 12.6439L9.14564 14.8218C9.76141 16.0805 10.8149 17.1336 12.1133 17.7895C12.7204 18.0974 13.3807 18.2493 14.0456 18.2493C14.7106 18.2493 15.3712 18.0977 15.9779 17.7895C17.2767 17.1336 18.3299 16.0758 18.9456 14.8218L20.0122 12.6439C20.646 12.3718 21.1102 11.8273 21.2575 11.1801L21.4582 10.2829C21.6145 9.58216 21.3913 8.85461 20.8646 8.34161L20.5477 8.03372L20.4941 5.994C20.4583 4.54792 19.8783 3.15548 18.8651 2.06652C17.852 0.981942 16.4639 0.272412 14.9556 0.0625738C14.6521 0.0224144 14.3485 0 14.0541 0C13.7596 0 13.456 0.0224144 13.1526 0.0625738C11.6439 0.272396 10.2561 0.981862 9.24309 2.06652C8.23008 3.1511 7.64982 4.548 7.61404 5.994L7.56049 8.03372L7.24357 8.34161C6.71683 8.85496 6.49394 9.57785 6.6499 10.2829L6.8507 11.1801H6.83383ZM8.0342 9.17188L8.52079 8.69869C8.62788 8.59159 8.69045 8.44871 8.69481 8.29709L8.75271 6.02107C8.78384 4.86078 9.25267 3.73604 10.0736 2.85692C10.9035 1.96871 12.0508 1.37976 13.296 1.21009C13.546 1.17429 13.796 1.15654 14.0369 1.15654C14.2779 1.15654 14.5279 1.17429 14.7778 1.21009C16.0231 1.38411 17.17 1.96875 18.0003 2.85692C18.8215 3.73604 19.29 4.86086 19.3211 6.02107L19.379 8.29709C19.379 8.4487 19.446 8.59159 19.5531 8.69869L20.0396 9.17188C20.2762 9.40381 20.379 9.72539 20.3117 10.0289L20.1109 10.9261C20.0484 11.2119 19.8342 11.4572 19.5397 11.5821L19.3523 11.6624C19.2228 11.7159 19.1157 11.814 19.0578 11.9435L17.8975 14.3179C17.3932 15.349 16.523 16.219 15.4475 16.7636C14.5637 17.21 13.5152 17.21 12.6314 16.7636C11.5558 16.2191 10.6857 15.3487 10.1813 14.3179L9.02106 11.9435C8.95849 11.8187 8.85607 11.7203 8.72656 11.6624L8.53915 11.5821C8.24465 11.4572 8.03047 11.2116 7.96789 10.9305L7.7671 10.0333C7.70017 9.7254 7.79823 9.40413 8.03919 9.17624L8.0342 9.17188Z" fill="white"/>
</svg>
