<svg width="20" height="20" viewBox="0 0 20 20" fill="none" xmlns="http://www.w3.org/2000/svg">
<g clip-path="url(#clip0_1030_4680)">
<path d="M7.47718 8.52782C8.22628 9.84385 9.31616 10.9337 10.6322 11.6828L11.3379 10.6945C11.4514 10.5356 11.6192 10.4238 11.8096 10.3802C11.9999 10.3367 12.1997 10.3644 12.371 10.4582C13.5001 11.0752 14.747 11.4463 16.0297 11.5471C16.2299 11.563 16.4168 11.6537 16.5531 11.8012C16.6893 11.9488 16.765 12.1422 16.765 12.3431V15.9052C16.765 16.1029 16.6917 16.2935 16.5593 16.4403C16.4269 16.587 16.2447 16.6794 16.0481 16.6996C15.625 16.7435 15.1987 16.765 14.7692 16.765C7.93542 16.765 2.39499 11.2246 2.39499 4.39085C2.39499 3.96135 2.41654 3.53504 2.46045 3.11192C2.48061 2.91529 2.573 2.73313 2.71974 2.6007C2.86648 2.46826 3.05713 2.39498 3.25479 2.39502H6.81696C7.01779 2.39499 7.21125 2.47066 7.35877 2.60694C7.50629 2.74321 7.59703 2.93008 7.6129 3.13028C7.71366 4.41304 8.08477 5.65995 8.70182 6.78905C8.7956 6.96034 8.82334 7.16006 8.77979 7.35043C8.73625 7.5408 8.62444 7.7086 8.46552 7.82209L7.47718 8.52782ZM5.46378 8.00331L6.98062 6.91997C6.55014 5.99079 6.25521 5.00464 6.10484 3.99169H3.99964C3.99485 4.12421 3.99245 4.25753 3.99245 4.39085C3.99166 10.3432 8.81678 15.1684 14.7692 15.1684C14.9025 15.1684 15.0358 15.166 15.1683 15.1604V13.0552C14.1554 12.9048 13.1692 12.6099 12.24 12.1794L11.1567 13.6962C10.7205 13.5268 10.2969 13.3267 9.88894 13.0975L9.84264 13.0711C8.27677 12.18 6.98004 10.8832 6.08888 9.31737L6.06253 9.27106C5.83334 8.86311 5.63326 8.43947 5.46378 8.00331Z" fill="black"/>
</g>
<defs>
<clipPath id="clip0_1030_4680">
<rect width="19.16" height="19.16" fill="white"/>
</clipPath>
</defs>
</svg>
