<svg width="21" height="21" viewBox="0 0 21 21" fill="none" xmlns="http://www.w3.org/2000/svg">
<path fill-rule="evenodd" clip-rule="evenodd" d="M4.10367 4.26886C4.10533 4.26886 4.06367 4.31219 4.01117 4.36386C3.8095 4.55969 3.392 4.96719 3.38779 5.81969C3.38117 7.01219 4.16533 9.22636 7.94117 13.0014C11.6995 16.758 13.9103 17.5514 15.1053 17.5514H15.1228C15.9753 17.5472 16.382 17.1289 16.5787 16.928C16.6387 16.8664 16.687 16.8214 16.7212 16.793C17.5512 15.958 17.9762 15.3364 17.972 14.938C17.9662 14.5314 17.4603 14.0505 16.7612 13.3855C16.5387 13.1739 16.297 12.9439 16.042 12.6889C15.3812 12.0297 15.0537 12.1422 14.3337 12.3955C13.3378 12.7447 11.9712 13.2197 9.84784 11.0955C7.72117 8.97053 8.197 7.60553 8.54534 6.60969C8.797 5.88969 8.912 5.56136 8.25034 4.89969C7.99117 4.64136 7.75867 4.39636 7.5445 4.17136C6.88367 3.47636 6.407 2.97386 6.00284 2.96803H5.99617C5.597 2.96803 4.977 3.39469 4.0995 4.27219C4.102 4.26969 4.10284 4.26886 4.10367 4.26886ZM15.1062 18.8014C13.0295 18.8014 10.322 17.148 7.05784 13.8855C3.78117 10.6097 2.12534 7.89386 2.13776 5.81303C2.14534 4.43803 2.86617 3.73386 3.137 3.46969C3.15117 3.45219 3.1995 3.40469 3.21617 3.38803C4.41117 2.19219 5.217 1.70886 6.01867 1.7179C6.9495 1.73053 7.612 2.42719 8.45034 3.30969C8.65784 3.52803 8.88284 3.76553 9.13367 4.01553C10.3503 5.23219 10.0037 6.22469 9.72534 7.02136C9.422 7.89052 9.1595 8.64053 10.7312 10.2122C12.3045 11.7839 13.0545 11.5214 13.9203 11.2155C14.7178 10.9372 15.7078 10.5889 16.9262 11.8055C17.1728 12.0522 17.407 12.2747 17.6228 12.4805C18.5095 13.323 19.2095 13.9889 19.2213 14.9222C19.2312 15.718 18.7478 16.5289 17.5545 17.723L17.0262 17.3647L17.4728 17.8014C17.2087 18.0722 16.5053 18.7939 15.1295 18.8014H15.1062Z" fill="#222222"/>
</svg>
