<svg width="24" height="19" viewBox="0 0 24 19" fill="none" xmlns="http://www.w3.org/2000/svg">
<path d="M10.6839 0.01441C10.4161 0.0672474 9.93683 0.244968 9.69721 0.384266C9.55625 0.465921 9.26964 0.706087 9.05821 0.917433C8.75751 1.22485 8.63535 1.39296 8.485 1.71478C8.37693 1.94054 8.26417 2.26236 8.23128 2.43528L8.1749 2.7475L7.93057 2.61781C7.41374 2.35362 6.39417 2.39205 5.76457 2.69946C5.3464 2.9012 4.92824 3.30468 4.7403 3.68895C4.66982 3.82824 4.60404 3.95313 4.59934 3.96274C4.58994 3.97234 4.50067 3.9147 4.39261 3.83785C4.106 3.6265 3.85228 3.57367 3.27437 3.59768C2.68236 3.6265 2.39575 3.72257 2.01987 4.01557C1.52653 4.39023 1.3057 4.89458 1.25871 5.71114C1.23522 6.15305 1.20703 6.30195 1.11306 6.50849C0.962708 6.82071 0.986201 7.15694 1.16944 7.43553C1.28221 7.61326 1.58291 7.815 1.73326 7.815C1.77555 7.815 1.81783 7.84382 1.82723 7.87264C2.01987 8.44423 2.06685 8.52589 2.37695 8.84291C2.64477 9.1167 2.69645 9.19355 2.69645 9.33284C2.69645 9.48175 2.67296 9.50576 2.42394 9.63545C2.27359 9.71231 1.81783 9.86601 1.40907 9.97169C0.878135 10.111 0.619718 10.2022 0.502256 10.2935C0.192155 10.5337 0.17806 10.6201 0.0699946 12.6904C-0.000482837 13.9584 -0.0145783 14.6117 0.0136126 14.7174C0.08409 14.9623 0.234442 15.1449 0.455271 15.2553C0.643211 15.3514 0.737181 15.3562 1.78964 15.3562H2.91728L2.94077 15.6012C2.97366 15.923 3.1663 16.2016 3.4717 16.3601C3.70193 16.485 3.72542 16.485 4.89535 16.4994L6.08407 16.5186L6.05587 17.412C6.02768 18.291 6.02768 18.315 6.13575 18.5024C6.19683 18.6032 6.33778 18.757 6.44585 18.8386L6.65258 18.9827L11.8914 18.9971C15.6408 19.0067 17.1819 18.9923 17.3229 18.9539C17.5813 18.8818 17.8914 18.5648 17.9619 18.3006C17.9994 18.1565 17.9994 17.8924 17.9666 17.34C17.9431 16.9221 17.9196 16.5666 17.9196 16.5426C17.9196 16.5234 18.427 16.509 19.0519 16.509C19.7191 16.509 20.2641 16.485 20.3863 16.4562C20.7716 16.3553 21.0629 15.9998 21.138 15.5339L21.1662 15.3562H22.2469C23.4309 15.3562 23.5202 15.3418 23.7739 15.0728C24.037 14.7942 24.0417 14.7318 23.9336 12.7C23.882 11.6913 23.8115 10.7931 23.788 10.7066C23.7269 10.5145 23.539 10.2839 23.3745 10.1974C23.3087 10.159 22.947 10.0533 22.5758 9.95728C22.2046 9.85641 21.7676 9.71231 21.6032 9.62585C21.3119 9.48175 21.3025 9.46734 21.3025 9.29442C21.3025 9.14071 21.3354 9.08307 21.5374 8.89094C21.7958 8.64117 21.9697 8.37218 22.0542 8.06957C22.1059 7.89665 22.1435 7.85823 22.2751 7.8198C22.7919 7.6709 23.0832 7.06088 22.8671 6.57574C22.806 6.44125 22.7825 6.20588 22.759 5.60547C22.7355 4.9234 22.7167 4.78891 22.6322 4.62079C22.3737 4.12605 21.8475 3.85226 21.3589 3.96274C21.2179 3.99636 21.1521 3.99156 21.1145 3.95313C21.0911 3.91951 20.9595 3.82824 20.8232 3.75139C20.5883 3.6169 20.546 3.61209 20.0104 3.61209H19.4466L19.3009 3.41996C19.0002 3.01168 18.4082 2.79073 17.9243 2.90601C17.7175 2.95404 17.6987 2.94924 17.5672 2.81955C17.29 2.55536 17.1443 2.51213 16.5053 2.49292L15.9133 2.47371L15.8804 2.18071C15.7865 1.24886 15.0488 0.557184 14.1373 0.552382C13.954 0.552382 13.7144 0.581202 13.6064 0.614824C13.4137 0.672464 13.409 0.672464 13.1976 0.470726C13.0754 0.355446 12.8593 0.206543 12.7136 0.139296C12.4599 0.01441 12.4082 0.00960732 11.6236 0C11.1725 0 10.7497 0.0048027 10.6839 0.01441ZM12.7324 3.25665C13.1506 3.54965 13.8178 3.77541 14.2688 3.78021H14.4427V5.2116C14.4427 6.38361 14.4286 6.69102 14.3675 6.90717C14.1232 7.75736 13.4936 8.401 12.662 8.65077C12.5116 8.694 12.2297 8.72763 11.9854 8.72763C11.0504 8.72763 10.2375 8.23289 9.80057 7.3875C9.55625 6.92158 9.50927 6.59976 9.50927 5.28365V4.12605L9.94623 4.15007C10.8108 4.2029 11.6612 3.9099 12.225 3.37193C12.3706 3.22783 12.4975 3.11255 12.5069 3.10775C12.5163 3.10775 12.615 3.17499 12.7324 3.25665ZM9.03942 5.26924C9.03942 5.96572 9.02532 6.18187 8.98304 6.18187C8.85148 6.17706 8.53668 5.99454 8.41452 5.85044C8.1514 5.52862 8.14201 5.08671 8.38633 4.74087C8.51319 4.55835 8.82329 4.36141 8.98304 4.35661C9.02532 4.35661 9.03942 4.57276 9.03942 5.26924ZM15.3918 4.53433C15.8851 4.88017 15.871 5.71595 15.3683 6.00895C15.2602 6.07139 15.124 6.13864 15.0676 6.15785L14.9595 6.18667V5.26924V4.347L15.0911 4.38062C15.1616 4.39503 15.2978 4.46708 15.3918 4.53433ZM7.8413 5.84564C8.05743 6.27794 8.43331 6.58054 8.86088 6.65259L9.06291 6.69102L9.04881 7.08489C9.03472 7.61806 8.91256 7.93508 8.58836 8.29052C8.22188 8.694 7.88359 8.84291 7.32447 8.84771C6.94859 8.84771 6.86871 8.8333 6.5868 8.694C6.19213 8.50187 5.91962 8.22808 5.73638 7.8246C5.58603 7.50278 5.58603 7.49798 5.57193 6.58535L5.55314 5.66791L6.03708 5.63909C6.63849 5.60547 6.99557 5.48539 7.40434 5.16837L7.70035 4.94261L7.72854 5.30766C7.74263 5.51421 7.79432 5.75437 7.8413 5.84564ZM17.2665 5.03388C17.4497 5.16357 17.8773 5.31727 18.1639 5.35089L18.3941 5.37971L18.38 6.48928C18.3659 7.59404 18.3659 7.59885 18.2344 7.87264C18.0652 8.22328 17.6752 8.59313 17.3323 8.72282C16.6322 8.99181 15.9791 8.86212 15.4623 8.34816C15.0911 7.98792 14.9125 7.51719 14.9125 6.92638C14.9125 6.68141 14.9219 6.6622 15.0206 6.6622C15.2273 6.6622 15.5656 6.50849 15.7771 6.32117C15.9744 6.14344 16.2281 5.72075 16.2281 5.56224C16.2281 5.51901 16.3127 5.44696 16.4161 5.39893C16.5194 5.35089 16.7027 5.22601 16.8248 5.12514C16.947 5.01947 17.0691 4.93781 17.0879 4.93301C17.1114 4.93301 17.1913 4.97624 17.2665 5.03388ZM4.16708 5.81682C4.23286 5.86965 4.24226 5.90808 4.19997 6.00895C4.1107 6.25872 4.14359 6.65259 4.27984 6.90717C4.4114 7.15694 4.71211 7.40191 4.95643 7.45475C5.11618 7.49317 5.13027 7.57963 5.02221 7.94469C4.87655 8.44903 4.35032 8.86212 3.7959 8.91015C3.34484 8.94378 3.01595 8.81889 2.68706 8.48746C2.32997 8.12241 2.27359 7.92067 2.27359 7.01765V6.33558L2.68706 6.31636C3.171 6.28754 3.54218 6.15785 3.8053 5.91769C4.00733 5.73516 4.04492 5.72555 4.16708 5.81682ZM20.9078 5.89367C21.0723 5.97533 21.3119 6.05698 21.4434 6.07139L21.6784 6.10021V6.92638C21.6784 7.90626 21.6361 8.08398 21.2978 8.45864C20.9031 8.90055 20.3017 9.03984 19.7332 8.81889C19.2868 8.65077 18.8593 8.06477 18.8593 7.61806C18.8593 7.50758 18.8875 7.48357 19.0754 7.43553C19.2304 7.39711 19.3526 7.31065 19.5171 7.14734C19.752 6.90717 19.846 6.68622 19.846 6.374C19.846 6.22029 19.8647 6.19628 20.0057 6.14344C20.095 6.10982 20.2594 6.00895 20.3722 5.91769C20.4802 5.82642 20.5836 5.75437 20.593 5.75437C20.6024 5.74957 20.7434 5.81682 20.9078 5.89367ZM5.07389 6.93599C5.0269 6.98883 4.75909 6.79189 4.68861 6.65259C4.54766 6.3692 4.69331 5.95611 4.97522 5.84564C5.06449 5.81201 5.06919 5.83123 5.08329 6.3644C5.08799 6.667 5.08799 6.92638 5.07389 6.93599ZM19.1788 5.95611C19.3432 6.10982 19.3949 6.374 19.3009 6.60936C19.2304 6.78709 19.066 6.9504 18.9532 6.9504C18.925 6.9504 18.9063 6.73905 18.9063 6.374C18.9063 5.85044 18.911 5.80241 18.9908 5.83123C19.0331 5.84564 19.1177 5.90328 19.1788 5.95611ZM22.4019 6.67181C22.4442 6.72945 22.4771 6.83032 22.4771 6.89276C22.4771 7.0945 22.3127 7.33466 22.167 7.33466C22.1576 7.33466 22.1482 7.13773 22.1482 6.90237C22.1482 6.48448 22.1529 6.47007 22.2375 6.5181C22.2892 6.54212 22.3643 6.61417 22.4019 6.67181ZM1.80374 6.93119C1.80374 7.28663 1.79434 7.33947 1.72856 7.31545C1.68628 7.30104 1.64869 7.28663 1.63459 7.28663C1.59231 7.28663 1.47484 6.99363 1.47484 6.88796C1.47484 6.75346 1.63929 6.5181 1.73796 6.5181C1.78964 6.5181 1.80374 6.60456 1.80374 6.93119ZM9.88045 8.30974C9.99791 8.43462 10.1905 8.60754 10.3174 8.6892L10.5429 8.8381V9.20796V9.57301L10.1295 9.77955C9.62673 10.0293 9.53276 10.0245 8.89846 9.7075L8.4756 9.50096V9.28481C8.4756 9.07827 8.49439 9.04945 8.82329 8.71802C9.06761 8.46825 9.20856 8.27611 9.30253 8.06477L9.43879 7.76216L9.55625 7.92067C9.62203 8.00713 9.76768 8.18005 9.88045 8.30974ZM14.6729 8.04556C14.7575 8.24729 14.889 8.42021 15.1803 8.71802C15.5656 9.10229 15.575 9.1215 15.5609 9.31843C15.5468 9.52017 15.5468 9.52017 15.1569 9.71711C14.9454 9.82759 14.6823 9.93326 14.5695 9.96208C14.3863 10.0005 14.3393 9.9909 13.9399 9.78916L13.503 9.56821L13.5077 9.18394V8.79968L13.799 8.58353C13.954 8.45864 14.1796 8.22808 14.3017 8.06957C14.4192 7.90626 14.5226 7.77177 14.5367 7.77177C14.5507 7.77177 14.6118 7.89185 14.6729 8.04556ZM6.22032 9.30402C6.22032 9.49135 6.21562 9.49616 5.89143 9.66427C5.71288 9.75554 5.52494 9.83239 5.47796 9.83239C5.43567 9.83239 5.24304 9.75554 5.0551 9.66427C4.7168 9.50096 4.7168 9.50096 4.7168 9.30883C4.7168 9.14071 4.745 9.08788 4.96582 8.87653C5.10678 8.74204 5.25713 8.5499 5.30412 8.45384L5.38869 8.27131L5.80685 8.694C6.18743 9.08307 6.22032 9.1263 6.22032 9.30402ZM19.0378 8.92937C19.2492 9.1167 19.2821 9.17434 19.2821 9.32324C19.2821 9.49616 19.2727 9.50576 18.9438 9.66427C18.7559 9.75554 18.5774 9.83239 18.5445 9.83239C18.5069 9.83239 18.333 9.75554 18.1545 9.66427L17.8256 9.49616V9.28001C17.8256 9.07827 17.8444 9.04465 18.1921 8.694L18.5539 8.31934L18.676 8.51148C18.7418 8.61715 18.9063 8.80448 19.0378 8.92937ZM11.8068 9.23678C12.1357 9.2608 12.6995 9.18874 12.9533 9.08788C13.0237 9.05906 13.0331 9.08788 13.0331 9.33765C13.0331 9.59222 12.9955 9.7027 12.7512 10.2359L12.4693 10.8459L11.9948 10.8315L11.5249 10.8171L11.2712 10.2407C11.0504 9.74593 11.0128 9.62104 11.0128 9.36647V9.07347L11.2289 9.14071C11.3464 9.17433 11.6095 9.21757 11.8068 9.23678ZM7.32447 9.32804C7.55939 9.32804 7.80371 9.31363 7.87889 9.28961C8.00105 9.25599 8.00575 9.2608 8.00575 9.43371C8.00575 9.52978 7.94937 9.78916 7.87889 10.0101L7.75203 10.4088H7.34796H6.94389L6.79354 9.96208C6.70897 9.72191 6.64319 9.46253 6.64319 9.38568C6.64319 9.2656 6.65258 9.25599 6.77474 9.28961C6.84522 9.31363 7.09424 9.32804 7.32447 9.32804ZM16.6745 9.32804C16.9094 9.32804 17.1537 9.31363 17.2289 9.28961C17.3511 9.25599 17.3558 9.2608 17.3558 9.45773C17.3558 9.57301 17.2994 9.83239 17.2289 10.0341L17.0973 10.4088H16.698H16.2939L16.1435 9.93806C16.059 9.68349 15.9932 9.42411 15.9932 9.36166C15.9932 9.2656 16.0073 9.2608 16.1247 9.28961C16.1952 9.31363 16.4442 9.32804 16.6745 9.32804ZM3.65964 9.4193C3.7912 9.4193 3.97914 9.40009 4.07781 9.38088L4.26105 9.34725L4.23286 9.50576C4.21876 9.59222 4.16238 9.78916 4.106 9.93806L4.00733 10.2167H3.70663H3.40592L3.30726 9.93806C3.25087 9.78916 3.19449 9.59222 3.1804 9.50576C3.15221 9.35206 3.1569 9.34725 3.28846 9.38088C3.36364 9.40489 3.53278 9.4193 3.65964 9.4193ZM20.0809 9.4193C20.1701 9.43371 20.3722 9.42411 20.5225 9.40009C20.6776 9.37607 20.8138 9.36647 20.8279 9.38088C20.842 9.39048 20.7903 9.58742 20.7199 9.81318L20.5883 10.2215L20.2829 10.207L19.9728 10.1926L19.86 9.86121C19.7285 9.45293 19.7191 9.33765 19.8366 9.36647C19.8788 9.38088 19.9916 9.40489 20.0809 9.4193ZM2.90788 10.3031C2.97836 10.5241 3.05354 10.6153 3.24618 10.721C3.25557 10.7258 3.22738 10.8123 3.18979 10.9179C3.14281 11.0476 3.09113 11.6528 3.02535 12.8825C2.97366 13.8576 2.93138 14.7078 2.93138 14.7654C2.93138 14.8711 2.91728 14.8759 2.43804 14.8759H1.94469V13.5069C1.94469 12.2052 1.93999 12.138 1.85542 12.0899C1.72386 12.0227 1.67688 12.0275 1.56881 12.138C1.47954 12.2292 1.47484 12.2965 1.47484 13.555V14.8759H1.07547C0.70899 14.8759 0.662005 14.8663 0.558638 14.7558C0.412985 14.6117 0.412985 14.6645 0.535145 12.5271C0.629115 10.8123 0.647909 10.7162 0.849944 10.6105C0.896929 10.5865 1.22113 10.4952 1.56881 10.4088C1.9165 10.3223 2.32997 10.1878 2.48502 10.111C2.63537 10.0389 2.77633 9.9957 2.79512 10.0149C2.81391 10.0341 2.8609 10.1638 2.90788 10.3031ZM4.7168 10.0245C4.77319 10.0629 4.76849 10.0726 4.68391 10.0726C4.62283 10.0726 4.57585 10.0485 4.57585 10.0245C4.57585 9.96208 4.62753 9.96208 4.7168 10.0245ZM19.3996 10.0245C19.4137 10.0485 19.3949 10.0726 19.3526 10.0726C19.3103 10.0726 19.2915 10.0485 19.3056 10.0245C19.3197 9.9957 19.3432 9.97649 19.3526 9.97649C19.362 9.97649 19.3855 9.9957 19.3996 10.0245ZM21.481 10.1158C21.6267 10.1878 22.0354 10.3223 22.3831 10.4088C23.0738 10.5817 23.2477 10.6538 23.3181 10.7834C23.3463 10.8363 23.4074 11.6961 23.4638 12.7048C23.586 14.9623 23.6094 14.8711 22.8906 14.8759H22.4771V13.555C22.4771 12.2965 22.4724 12.2292 22.3831 12.138C22.2751 12.0275 22.2281 12.0227 22.0965 12.0899C22.012 12.138 22.0073 12.2052 22.0073 13.5069V14.8759H21.5609C21.1944 14.8759 21.1145 14.8615 21.1145 14.8038C21.1145 14.5492 20.9219 11.2686 20.8984 11.1293C20.8843 11.038 20.842 10.9083 20.8091 10.8363C20.7481 10.721 20.7528 10.7066 20.8561 10.6586C20.9266 10.6249 20.9971 10.5145 21.0629 10.3367C21.1192 10.1878 21.1615 10.0485 21.1615 10.0245C21.1615 9.95728 21.185 9.96208 21.481 10.1158ZM6.40826 10.3319C6.52103 10.6778 6.65728 10.8891 6.77474 10.8891C6.83113 10.8891 6.80763 10.9323 6.69957 11.0428C6.37537 11.3887 6.36128 11.4655 6.23912 13.6702C6.17804 14.7702 6.12635 15.7405 6.12635 15.8221V15.9806H5.6565H5.18665V14.3571C5.18665 12.6423 5.18195 12.6183 4.97052 12.6183C4.7309 12.6183 4.7168 12.7048 4.7168 14.4051V15.9806H4.24695C3.92276 15.9806 3.73012 15.9566 3.64085 15.9086C3.37773 15.7693 3.37304 15.7309 3.4858 13.5357C3.61736 11.0861 3.61266 11.1101 3.77241 10.9275C3.88047 10.8075 3.99793 10.7594 4.7309 10.5721C5.27123 10.4328 5.68469 10.2983 5.88203 10.1926C6.05587 10.1014 6.22032 10.0293 6.25321 10.0245C6.2814 10.0245 6.35188 10.1638 6.40826 10.3319ZM8.71052 10.1398L8.92196 10.2551L8.73402 10.3031C8.23128 10.4376 8.24537 10.4424 8.33934 10.1734C8.40042 9.9957 8.43331 9.9957 8.71052 10.1398ZM15.7066 10.1734C15.8005 10.4424 15.8146 10.4376 15.3119 10.3031L15.124 10.2551L15.3354 10.1398C15.6126 9.9957 15.6455 9.9957 15.7066 10.1734ZM18.1874 10.2215C18.3377 10.3079 18.7559 10.4424 19.2915 10.5769C20.0339 10.7642 20.1701 10.8171 20.2735 10.9323C20.4239 11.1005 20.4239 11.0668 20.5554 13.6414C20.6588 15.5964 20.6588 15.6012 20.5648 15.7309C20.3957 15.9662 20.203 16.0335 19.705 16.0191L19.2586 16.0047L19.2445 14.3763C19.2398 13.2716 19.2164 12.724 19.1835 12.6808C19.1036 12.5847 18.9203 12.6087 18.8405 12.724C18.7747 12.8152 18.7653 13.0602 18.7653 14.4292V16.0287H18.3424C18.1122 16.0287 17.9196 16.0143 17.9196 15.9902C17.9196 15.971 17.8679 15.0008 17.8021 13.8287C17.6799 11.5039 17.6752 11.4799 17.3511 11.0668C17.2618 10.9564 17.2336 10.8891 17.2759 10.8891C17.3886 10.8891 17.5296 10.6778 17.6377 10.3463C17.7551 9.97649 17.7551 9.97649 18.1874 10.2215ZM10.698 10.1542C10.7121 10.2022 10.792 10.404 10.8859 10.6009L11.0504 10.966L10.6933 11.4127L10.3409 11.8642L10.0919 11.2205C9.95093 10.8699 9.83816 10.5577 9.83816 10.5289C9.83816 10.4856 10.5523 10.0822 10.6416 10.0774C10.6604 10.0726 10.6839 10.111 10.698 10.1542ZM14.2078 10.5289C14.2078 10.5577 14.095 10.8699 13.954 11.2205L13.705 11.8642L13.3432 11.4031L12.9815 10.9468L13.1976 10.5097L13.409 10.0726L13.8084 10.2743C14.0292 10.3848 14.2078 10.5001 14.2078 10.5289ZM9.65022 11.3743C9.96972 12.186 10.0778 12.3301 10.3409 12.3301C10.5711 12.3301 10.6087 12.3013 11.0081 11.7873L11.337 11.3598L12.0136 11.355L12.6901 11.3454L12.9439 11.6769C13.362 12.2244 13.4795 12.3301 13.6815 12.3301C14.0057 12.3301 14.0292 12.2965 14.4427 11.2686L14.6823 10.6586L15.7348 10.9323C16.7027 11.1821 16.8013 11.2157 16.9564 11.3695C17.0457 11.4559 17.1396 11.5952 17.1678 11.6769C17.1913 11.7585 17.2665 12.7768 17.3323 13.9392C17.398 15.1016 17.4685 16.3649 17.4967 16.7492C17.5202 17.1334 17.5437 17.6186 17.5437 17.8251C17.5437 18.1758 17.5343 18.219 17.4168 18.3439L17.29 18.4784H16.5241H15.7583V16.2544C15.7583 14.0737 15.7583 14.0257 15.6643 13.9392C15.5891 13.8672 15.5421 13.8576 15.4388 13.896L15.3119 13.9392L15.2978 16.2112L15.2884 18.4784H12.0465H8.80449V16.2784C8.80449 13.8912 8.79979 13.8672 8.54608 13.8672C8.29236 13.8672 8.28766 13.8912 8.28766 16.2784V18.4784H7.5312H6.77474L6.63849 18.3391C6.47404 18.1709 6.47874 18.3295 6.5962 16.3121C6.64319 15.4331 6.72306 14.0689 6.76065 13.2908C6.80294 12.5126 6.85932 11.7969 6.88281 11.7057C6.9063 11.6096 7.00027 11.4607 7.08954 11.3695C7.24459 11.2157 7.33856 11.1821 8.30175 10.9323C8.87497 10.7834 9.34952 10.6682 9.35892 10.673C9.36831 10.6826 9.49517 10.9948 9.65022 11.3743Z" fill="white"/>
<path d="M10.8623 5.08189C10.7636 5.13953 10.7495 5.36528 10.8341 5.45174C10.867 5.48537 10.9328 5.50938 10.9891 5.50938C11.0455 5.50938 11.1113 5.48537 11.1442 5.45174C11.2335 5.36048 11.2147 5.13473 11.1113 5.07709C10.9985 5.01945 10.9657 5.01945 10.8623 5.08189Z" fill="white"/>
<path d="M12.9297 5.08193C12.831 5.13957 12.8169 5.36532 12.9015 5.45178C12.9908 5.54304 13.1599 5.51903 13.2398 5.40855C13.3149 5.29808 13.2962 5.1828 13.1834 5.08673C13.0941 5.01948 13.0377 5.01468 12.9297 5.08193Z" fill="white"/>
<path d="M10.9939 6.83512C10.8718 6.9552 10.9047 7.08008 11.1114 7.29143C11.5108 7.69971 12.084 7.80539 12.5773 7.55561C13.0002 7.34427 13.2398 6.98882 13.0707 6.8159C12.9767 6.71984 12.8028 6.74866 12.6948 6.87835C12.3424 7.29623 11.8068 7.32505 11.4497 6.94559C11.2617 6.74385 11.1114 6.71023 10.9939 6.83512Z" fill="white"/>
<path d="M11.8304 12.1908C11.7505 12.2821 11.7505 12.3013 11.8163 12.4166C11.9149 12.5991 12.1076 12.6135 12.2156 12.455C12.2861 12.3397 12.2861 12.3205 12.2156 12.21C12.1217 12.0611 11.9525 12.0515 11.8304 12.1908Z" fill="white"/>
<path d="M11.8302 13.4589C11.7597 13.5694 11.7597 13.5886 11.8302 13.6991C11.9242 13.8432 12.0933 13.8576 12.2014 13.7327C12.3047 13.6174 12.3001 13.5166 12.1967 13.4205C12.0698 13.3052 11.9195 13.3196 11.8302 13.4589Z" fill="white"/>
<path d="M11.9385 14.5781C11.8257 14.6021 11.7505 14.8087 11.8116 14.9239C11.8727 15.0392 12.0183 15.0872 12.1311 15.0248C12.3942 14.8807 12.2345 14.5108 11.9385 14.5781Z" fill="white"/>
<path d="M12.9954 14.6165C12.8733 14.703 12.8592 14.8855 12.9673 14.9912C13.0236 15.0536 13.1599 15.068 13.6861 15.068C14.2546 15.068 14.3439 15.0584 14.4097 14.9815C14.5178 14.8567 14.5084 14.703 14.3862 14.6165C14.3063 14.5541 14.1466 14.5396 13.6908 14.5396C13.2351 14.5396 13.0753 14.5541 12.9954 14.6165Z" fill="white"/>
<path d="M11.8584 15.8846C11.7503 15.9951 11.7409 16.0767 11.8255 16.1824C11.9758 16.3793 12.2483 16.2977 12.2483 16.0527C12.2483 15.9182 12.1309 15.7885 12.0134 15.7885C11.9805 15.7885 11.91 15.8317 11.8584 15.8846Z" fill="white"/>
<path d="M11.8302 17.1526C11.7597 17.2679 11.7597 17.2871 11.8302 17.4024C11.99 17.6474 12.347 17.4456 12.2202 17.1814C12.1356 17.0085 11.9336 16.9941 11.8302 17.1526Z" fill="white"/>
<path d="M18.7653 0.22097C18.7418 0.273806 18.7184 0.355462 18.7184 0.408299C18.7184 0.470742 18.6667 0.509169 18.5445 0.542792C18.3801 0.581218 18.366 0.600432 18.366 0.754138C18.366 0.907844 18.3801 0.927057 18.5445 0.965484C18.6808 1.00391 18.7184 1.03273 18.7184 1.11919C18.7184 1.32573 18.9533 1.45542 19.0848 1.32093C19.1177 1.28731 19.1412 1.20565 19.1412 1.1384C19.1412 1.03273 19.1694 1.00391 19.3151 0.965484C19.409 0.941467 19.5077 0.883827 19.5359 0.835794C19.6111 0.715711 19.5218 0.595628 19.3151 0.542792C19.1694 0.504365 19.1412 0.475545 19.1412 0.369872C19.1412 0.302626 19.1177 0.22097 19.0848 0.187346C19.0003 0.100887 18.8217 0.1201 18.7653 0.22097Z" fill="white"/>
</svg>
