<svg width="26" height="30" viewBox="0 0 26 30" fill="none" xmlns="http://www.w3.org/2000/svg">
<path d="M3.32904 0C4.25623 0 5.09904 0.381591 5.68881 0.9754C6.27888 1.61156 6.65807 2.4173 6.65807 3.35011C6.65807 4.28318 6.27888 5.13132 5.68881 5.72482C5.09873 6.36098 4.25598 6.74256 3.32904 6.74256C2.40184 6.74256 1.55903 6.36097 0.969264 5.72482C0.37919 5.13101 0 4.28292 0 3.35011C0 2.41705 0.37919 1.6113 0.969264 0.9754C1.55934 0.381591 2.40209 0 3.32904 0ZM4.88813 1.78121C4.50894 1.39962 3.91887 1.14505 3.32904 1.14505C2.73896 1.14505 2.19119 1.39962 1.76994 1.78121C1.39075 2.2054 1.13779 2.75661 1.13779 3.35018C1.13779 3.98633 1.39075 4.53756 1.76994 4.91914C2.19146 5.34333 2.7392 5.5553 3.32904 5.5553C3.91911 5.5553 4.50895 5.34333 4.88813 4.91914C5.26732 4.53755 5.52028 3.98607 5.52028 3.35018C5.52028 2.75637 5.26732 2.20512 4.88813 1.78121Z" fill="white"/>
<path d="M12.979 0C13.9062 0 14.749 0.381591 15.3387 0.9754C15.9709 1.61156 16.3501 2.4173 16.3501 3.35011C16.3501 4.28318 15.9709 5.13132 15.3387 5.72482C14.7487 6.36098 13.9059 6.74256 12.979 6.74256C12.0518 6.74256 11.2511 6.36097 10.6192 5.72482C10.0291 5.13101 9.64993 4.28292 9.64993 3.35011C9.64993 2.41705 10.0291 1.6113 10.6192 0.9754C11.2513 0.381591 12.052 0 12.979 0ZM14.5381 1.78121C14.1589 1.39962 13.6109 1.14505 12.979 1.14505C12.3889 1.14505 11.8411 1.39962 11.4199 1.78121C11.0407 2.2054 10.7877 2.75661 10.7877 3.35018C10.7877 3.98633 11.0407 4.53756 11.4199 4.91914C11.8414 5.34333 12.3891 5.5553 12.979 5.5553C13.6111 5.5553 14.1589 5.34333 14.5381 4.91914C14.9596 4.53755 15.1702 3.98607 15.1702 3.35018C15.1702 2.75637 14.9596 2.20512 14.5381 1.78121Z" fill="white"/>
<path d="M22.671 0C23.5558 0 24.3988 0.381591 25.0307 0.9754C25.6208 1.61156 26 2.4173 26 3.35011C26 4.28318 25.6208 5.13132 25.0307 5.72482C24.3986 6.36098 23.5558 6.74256 22.671 6.74256C21.7438 6.74256 20.901 6.36097 20.3112 5.72482C19.679 5.13101 19.2999 4.28292 19.2999 3.35011C19.2999 2.41705 19.679 1.6113 20.3112 0.9754C20.9013 0.381591 21.744 0 22.671 0ZM24.188 1.78121C23.8088 1.39962 23.2608 1.14505 22.671 1.14505C22.0388 1.14505 21.491 1.39962 21.1119 1.78121C20.6903 2.2054 20.4376 2.75661 20.4376 3.35018C20.4376 3.98633 20.6906 4.53756 21.1119 4.91914C21.4911 5.34333 22.0391 5.5553 22.671 5.5553C23.261 5.5553 23.8088 5.34333 24.188 4.91914C24.6095 4.53755 24.8622 3.98607 24.8622 3.35018C24.8622 2.75637 24.6092 2.20512 24.188 1.78121Z" fill="white"/>
<path d="M3.32904 11.6287C4.25623 11.6287 5.09904 12.0103 5.68881 12.6041C6.27888 13.2403 6.65807 14.046 6.65807 14.9788C6.65807 15.9119 6.27888 16.76 5.68881 17.3535C5.09873 17.9897 4.25598 18.3713 3.32904 18.3713C2.40184 18.3713 1.55903 17.9897 0.969264 17.3535C0.37919 16.7597 0 15.9116 0 14.9788C0 14.0458 0.37919 13.24 0.969264 12.6041C1.55934 12.0103 2.40209 11.6287 3.32904 11.6287ZM4.88813 13.4099C4.50894 13.0283 3.91887 12.7738 3.32904 12.7738C2.73896 12.7738 2.19119 13.0283 1.76994 13.4099C1.39075 13.8341 1.13779 14.3853 1.13779 14.9789C1.13779 15.6151 1.39075 16.1663 1.76994 16.5479C2.19146 16.9721 2.7392 17.184 3.32904 17.184C3.91911 17.184 4.50895 16.9721 4.88813 16.5479C5.26732 16.1663 5.52028 15.6148 5.52028 14.9789C5.52028 14.3851 5.26732 13.8338 4.88813 13.4099Z" fill="white"/>
<path d="M12.979 11.6287C13.9062 11.6287 14.749 12.0103 15.3387 12.6041C15.9709 13.2403 16.3501 14.046 16.3501 14.9788C16.3501 15.9119 15.9709 16.76 15.3387 17.3535C14.7487 17.9897 13.9059 18.3713 12.979 18.3713C12.0518 18.3713 11.2511 17.9897 10.6192 17.3535C10.0291 16.7597 9.64993 15.9116 9.64993 14.9788C9.64993 14.0458 10.0291 13.24 10.6192 12.6041C11.2513 12.0103 12.052 11.6287 12.979 11.6287ZM14.5381 13.4099C14.1589 13.0283 13.6109 12.7738 12.979 12.7738C12.3889 12.7738 11.8411 13.0283 11.4199 13.4099C11.0407 13.8341 10.7877 14.3853 10.7877 14.9789C10.7877 15.6151 11.0407 16.1663 11.4199 16.5479C11.8414 16.9721 12.3891 17.184 12.979 17.184C13.6111 17.184 14.1589 16.9721 14.5381 16.5479C14.9596 16.1663 15.1702 15.6148 15.1702 14.9789C15.1702 14.3851 14.9596 13.8338 14.5381 13.4099Z" fill="white"/>
<path d="M22.671 11.6287C23.5558 11.6287 24.3988 12.0103 25.0307 12.6041C25.6208 13.2403 26 14.046 26 14.9788C26 15.9119 25.6208 16.76 25.0307 17.3535C24.3986 17.9897 23.5558 18.3713 22.671 18.3713C21.7438 18.3713 20.901 17.9897 20.3112 17.3535C19.679 16.7597 19.2999 15.9116 19.2999 14.9788C19.2999 14.0458 19.679 13.24 20.3112 12.6041C20.9013 12.0103 21.744 11.6287 22.671 11.6287ZM24.188 13.4099C23.8088 13.0283 23.2608 12.7738 22.671 12.7738C22.0388 12.7738 21.491 13.0283 21.1119 13.4099C20.6903 13.8341 20.4376 14.3853 20.4376 14.9789C20.4376 15.6151 20.6906 16.1663 21.1119 16.5479C21.4911 16.9721 22.0391 17.184 22.671 17.184C23.261 17.184 23.8088 16.9721 24.188 16.5479C24.6095 16.1663 24.8622 15.6148 24.8622 14.9789C24.8622 14.3851 24.6092 13.8338 24.188 13.4099Z" fill="white"/>
<path d="M3.32904 23.2574C4.25623 23.2574 5.09904 23.639 5.68881 24.2328C6.27888 24.869 6.65807 25.6747 6.65807 26.6076C6.65807 27.5406 6.27888 28.3888 5.68881 28.9823C5.09873 29.6184 4.25598 30 3.32904 30C2.40184 30 1.55903 29.6184 0.969264 28.9823C0.37919 28.3885 0 27.5404 0 26.6076C0 25.6745 0.37919 24.8687 0.969264 24.2328C1.55934 23.639 2.40209 23.2574 3.32904 23.2574ZM4.88813 25.0387C4.50894 24.6571 3.91887 24.4025 3.32904 24.4025C2.73896 24.4025 2.19119 24.6571 1.76994 25.0387C1.39075 25.4628 1.13779 26.0141 1.13779 26.6076C1.13779 27.2438 1.39075 27.795 1.76994 28.1766C2.19146 28.6008 2.7392 28.8127 3.32904 28.8127C3.91911 28.8127 4.50895 28.6008 4.88813 28.1766C5.26732 27.795 5.52028 27.2435 5.52028 26.6076C5.52028 26.0138 5.26732 25.4626 4.88813 25.0387Z" fill="white"/>
<path d="M12.979 23.2574C13.9062 23.2574 14.749 23.639 15.3387 24.2328C15.9709 24.869 16.3501 25.6747 16.3501 26.6076C16.3501 27.5406 15.9709 28.3888 15.3387 28.9823C14.7487 29.6184 13.9059 30 12.979 30C12.0518 30 11.2511 29.6184 10.6192 28.9823C10.0291 28.3885 9.64993 27.5404 9.64993 26.6076C9.64993 25.6745 10.0291 24.8687 10.6192 24.2328C11.2513 23.639 12.052 23.2574 12.979 23.2574ZM14.5381 25.0387C14.1589 24.6571 13.6109 24.4025 12.979 24.4025C12.3889 24.4025 11.8411 24.6571 11.4199 25.0387C11.0407 25.4628 10.7877 26.0141 10.7877 26.6076C10.7877 27.2438 11.0407 27.795 11.4199 28.1766C11.8414 28.6008 12.3891 28.8127 12.979 28.8127C13.6111 28.8127 14.1589 28.6008 14.5381 28.1766C14.9596 27.795 15.1702 27.2435 15.1702 26.6076C15.1702 26.0138 14.9596 25.4626 14.5381 25.0387Z" fill="white"/>
<path d="M22.671 23.2574C23.5558 23.2574 24.3988 23.639 25.0307 24.2328C25.6208 24.869 26 25.6747 26 26.6076C26 27.5406 25.6208 28.3888 25.0307 28.9823C24.3986 29.6184 23.5558 30 22.671 30C21.7438 30 20.901 29.6184 20.3112 28.9823C19.679 28.3885 19.2999 27.5404 19.2999 26.6076C19.2999 25.6745 19.679 24.8687 20.3112 24.2328C20.9013 23.639 21.744 23.2574 22.671 23.2574ZM24.188 25.0387C23.8088 24.6571 23.2608 24.4025 22.671 24.4025C22.0388 24.4025 21.491 24.6571 21.1119 25.0387C20.6903 25.4628 20.4376 26.0141 20.4376 26.6076C20.4376 27.2438 20.6906 27.795 21.1119 28.1766C21.4911 28.6008 22.0391 28.8127 22.671 28.8127C23.261 28.8127 23.8088 28.6008 24.188 28.1766C24.6095 27.795 24.8622 27.2435 24.8622 26.6076C24.8622 26.0138 24.6092 25.4626 24.188 25.0387Z" fill="white"/>
</svg>
