<svg width="20" height="26" viewBox="0 0 20 26" fill="none" xmlns="http://www.w3.org/2000/svg">
<path d="M17.5 4.37984C18.042 4.37984 18.4999 4.83364 18.4999 5.3707V22.7125C18.4999 23.2496 18.042 23.7033 17.5 23.7033H2.5C1.95799 23.7033 1.50009 23.2495 1.50009 22.7125V5.3707C1.50009 4.8336 1.95804 4.37984 2.5 4.37984H17.5ZM17.5 2.89331H2.5C1.12496 2.89331 0 4.00809 0 5.3707V22.7125C0 24.0751 1.12496 25.1899 2.5 25.1899H17.5C18.875 25.1899 20 24.0751 20 22.7125V5.3707C20 4.00809 18.875 2.89331 17.5 2.89331Z" fill="#1F7F50"/>
<path d="M12.4531 1.91775H11.4987C11.4987 1.91291 11.5003 1.9079 11.5003 1.90254C11.5003 1.08151 10.8287 0.416016 10.0002 0.416016C9.17166 0.416016 8.5001 1.08151 8.5001 1.90254C8.5001 1.90807 8.50167 1.91291 8.50167 1.91792L7.50015 1.91775C6.95015 1.91775 6.50024 2.36359 6.50024 2.90862V4.37992C6.50024 4.92495 6.95015 5.37079 7.50015 5.37079H12.4533C13.0033 5.37079 13.4532 4.92495 13.4532 4.37992L13.4534 2.90879C13.4534 2.36377 13.0033 1.91775 12.4533 1.91775L12.4531 1.91775ZM10.0002 2.64561C9.58623 2.64561 9.25018 2.31261 9.25018 1.90235C9.25018 1.4921 9.58622 1.15909 10.0002 1.15909C10.4142 1.15909 10.7503 1.49209 10.7503 1.90235C10.7503 2.31277 10.4142 2.64561 10.0002 2.64561Z" fill="#2CB070"/>
<path d="M16 8.66653H4C3.72395 8.66653 3.50005 8.44447 3.50005 8.17109C3.50005 7.89754 3.72413 7.67566 4 7.67566H16C16.2761 7.67566 16.5 7.89772 16.5 8.17109C16.5 8.44448 16.2759 8.66653 15.9998 8.66653H16Z" fill="#2CB070"/>
<path d="M16 12.803H4C3.72395 12.803 3.50005 12.5809 3.50005 12.3076C3.50005 12.034 3.72413 11.8121 4 11.8121H16C16.2761 11.8121 16.5 12.0342 16.5 12.3076C16.5 12.581 16.2759 12.803 15.9998 12.803H16Z" fill="#2CB070"/>
<path d="M16 16.9394H4C3.72395 16.9394 3.50005 16.7173 3.50005 16.4439C3.50005 16.1704 3.72413 15.9485 4 15.9485H16C16.2761 15.9485 16.5 16.1705 16.5 16.4439C16.5 16.7175 16.2759 16.9394 15.9998 16.9394H16Z" fill="#2CB070"/>
<path d="M12 20.7306H4C3.72395 20.7306 3.50005 20.5086 3.50005 20.2352C3.50005 19.9616 3.72413 19.7397 4 19.7397H12C12.2761 19.7397 12.5 19.9618 12.5 20.2352C12.5 20.5087 12.2759 20.7306 12 20.7306Z" fill="#2CB070"/>
</svg>
