<svg width="179" height="161" viewBox="0 0 179 161" fill="none" xmlns="http://www.w3.org/2000/svg">
<path d="M178.572 45.7316C178.565 44.6678 177.131 44.3195 176.641 45.2635C171.894 54.3925 158.697 77.9411 143.692 88.7695C119.265 106.4 98.6517 139.002 107.563 159.972C107.566 159.972 179.337 161.675 178.572 45.7316Z" fill="url(#paint0_linear_6198_183)"/>
<path opacity="0.43" d="M173.769 59.1687C173.678 59.4803 173.578 59.7304 173.483 60.004L173.185 60.8046L172.57 62.398C172.153 63.4566 171.718 64.5086 171.286 65.5606C170.413 67.662 169.516 69.7529 168.594 71.8333C166.748 75.9935 164.79 80.1027 162.771 84.1817C160.751 88.2608 158.629 92.2901 156.417 96.2696C154.205 100.249 151.927 104.194 149.525 108.064C144.737 115.814 139.523 123.309 133.8 130.408C130.901 133.926 127.91 137.37 124.724 140.633C121.515 143.873 118.169 146.977 114.61 149.824C114.592 149.839 114.571 149.851 114.549 149.858C114.526 149.865 114.503 149.867 114.479 149.865C114.456 149.863 114.433 149.856 114.412 149.845C114.391 149.834 114.373 149.819 114.358 149.801C114.342 149.783 114.331 149.762 114.324 149.74C114.317 149.717 114.315 149.694 114.317 149.67C114.319 149.647 114.326 149.624 114.336 149.603C114.347 149.582 114.362 149.564 114.38 149.549C117.809 146.577 121.081 143.43 124.186 140.122C127.301 136.826 130.221 133.352 133.046 129.807C135.871 126.262 138.548 122.599 141.148 118.881C143.747 115.163 146.183 111.334 148.601 107.496C153.406 99.7962 157.796 91.843 161.964 83.7772C164.039 79.7398 166.037 75.6625 167.955 71.5453C168.92 69.4897 169.863 67.4241 170.785 65.3485L172.139 62.2245L172.8 60.6534L173.122 59.8678C173.223 59.606 173.336 59.331 173.415 59.1006L173.428 59.0626C173.444 59.0198 173.475 58.9847 173.516 58.9646C173.558 58.9446 173.605 58.9411 173.648 58.9549C173.692 58.9687 173.729 58.9987 173.751 59.0388C173.773 59.0788 173.779 59.1258 173.767 59.17L173.769 59.1687Z" fill="url(#paint1_linear_6198_183)"/>
<path d="M149.687 0.692489C149.39 -0.280958 147.984 -0.209603 147.787 0.790029C145.926 10.4558 140.254 35.6489 129.45 49.6686C111.861 72.4965 101.857 108.014 115.754 124.815C115.756 124.815 182.038 106.809 149.687 0.692489Z" fill="url(#paint2_linear_6198_183)"/>
<path opacity="0.43" d="M148.953 14.3241C148.953 14.6357 148.932 14.8916 148.919 15.1685L148.864 15.9849L148.733 17.613C148.64 18.6977 148.53 19.7811 148.421 20.8639C148.194 23.029 147.942 25.1913 147.665 27.3507C147.109 31.6713 146.435 35.971 145.7 40.2628C144.964 44.5546 144.116 48.8281 143.173 53.0806C142.229 57.3331 141.219 61.5726 140.074 65.7766C137.798 74.1887 135.062 82.485 131.75 90.5547C130.052 94.5709 128.247 98.5452 126.217 102.404C124.158 106.248 121.935 110.008 119.447 113.588C119.421 113.626 119.382 113.652 119.337 113.66C119.292 113.669 119.245 113.66 119.207 113.634C119.169 113.609 119.142 113.57 119.132 113.525C119.123 113.48 119.131 113.434 119.156 113.395C121.487 109.734 123.628 105.956 125.571 102.075C127.527 98.2028 129.256 94.2194 130.877 90.1999C132.499 86.1804 133.956 82.0889 135.323 77.9712C136.69 73.8536 137.878 69.6783 139.05 65.4991C141.354 57.1289 143.21 48.6389 144.832 40.1063C145.634 35.8372 146.353 31.5537 146.99 27.2558C147.312 25.1077 147.614 22.9566 147.893 20.8024L148.287 17.5678L148.465 15.9495L148.545 15.1397C148.568 14.8746 148.596 14.5892 148.605 14.3542V14.3149C148.608 14.2708 148.628 14.2296 148.661 14.1998C148.694 14.17 148.737 14.1539 148.781 14.1546C148.825 14.1554 148.867 14.173 148.899 14.2039C148.931 14.2348 148.95 14.2766 148.951 14.3208L148.953 14.3241Z" fill="url(#paint3_linear_6198_183)"/>
<path d="M32.6074 10.0342C31.9825 35.2201 29.9565 122.093 30.924 152.876C30.9726 154.447 31.6183 155.94 32.7295 157.052C33.8408 158.164 35.3342 158.811 36.9058 158.862C53.0462 159.39 99.4778 160.728 125.878 159.621C128.526 159.512 131.033 158.399 132.889 156.507C134.744 154.616 135.808 152.088 135.864 149.44C136.413 123.004 137.622 48.6526 134.746 14.5918C134.579 12.6147 133.725 10.7583 132.332 9.34481C130.938 7.93131 129.094 7.04984 127.118 6.85335C109.541 5.0963 62.8581 0.800563 40.0461 2.27939C38.0612 2.41013 36.197 3.27848 34.8204 4.71361C33.4437 6.14874 32.6543 8.04674 32.6074 10.0342Z" fill="url(#paint4_linear_6198_183)"/>
<path d="M39.1659 17.8603C38.2842 38.4867 35.5036 107.106 36.3866 132.48C36.4469 134.269 37.1737 135.971 38.4243 137.252C39.675 138.533 41.3594 139.301 43.1473 139.405C58.4099 140.297 97.5581 142.266 119.944 140.474C121.893 140.317 123.719 139.458 125.082 138.057C126.445 136.657 127.254 134.809 127.357 132.858C128.491 111.815 131.746 47.92 130.903 22.8304C130.837 20.8962 130.065 19.053 128.734 17.6479C127.402 16.2427 125.602 15.3726 123.673 15.2012C107.162 13.7198 64.7533 10.1945 45.7302 11.2315C44.0075 11.324 42.3811 12.0541 41.1676 13.2795C39.9541 14.505 39.2406 16.1379 39.1659 17.8603Z" fill="url(#paint5_linear_6198_183)"/>
<path opacity="0.5" d="M72.4971 6.68307C72.4964 7.05499 72.6388 7.41293 72.8949 7.68283C73.1509 7.95274 73.501 8.11394 73.8727 8.13309C77.685 8.33276 88.4245 8.89771 93.2241 9.17593C93.4447 9.18825 93.6653 9.15007 93.8689 9.06431C94.0726 8.97854 94.254 8.84746 94.3993 8.68104C94.5446 8.51462 94.65 8.31725 94.7074 8.10397C94.7648 7.89069 94.7728 7.66712 94.7307 7.4503L94.7005 7.29188C94.6412 6.98278 94.4829 6.70134 94.2496 6.48998C94.0162 6.27862 93.7204 6.1488 93.4068 6.12008C90.163 5.82288 80.3714 4.99934 73.8864 5.23043C73.5119 5.24616 73.158 5.40623 72.899 5.67705C72.6399 5.94788 72.4959 6.30843 72.4971 6.68307Z" fill="white"/>
<path d="M115.199 92.2358L50.3062 90.9919C48.191 90.9514 46.598 93.4141 46.7689 96.4641C46.9419 99.4839 49.1487 100.392 51.2232 100.362L114.706 100.87C116.007 100.85 117.166 98.9406 117.309 96.5884C117.455 94.216 116.516 92.2613 115.199 92.2358Z" fill="white"/>
<path d="M115.374 112.128L50.4823 110.884C48.3665 110.843 46.7734 113.306 46.945 116.357C47.118 119.376 49.3242 120.284 51.3994 120.254L114.882 120.762C116.182 120.743 117.342 118.833 117.484 116.481C117.63 114.109 116.691 112.153 115.374 112.128Z" fill="white"/>
<path d="M87.5133 94.9564L52.2961 94.5904C51.1484 94.5786 50.2851 95.2392 50.3814 96.0588C50.4776 96.8784 51.6744 97.1154 52.7998 97.1062L87.2506 97.2731C87.9568 97.2685 88.585 96.756 88.6616 96.1242C88.7382 95.4925 88.228 94.9636 87.5133 94.9564Z" fill="url(#paint6_linear_6198_183)"/>
<path d="M29.3982 73.3828C29.3982 73.3828 27.4914 74.3097 27.1403 75.3748C26.8592 76.2298 24.75 76.3397 24.5417 78.0202C24.4343 78.8883 23.7917 79.5828 22.927 79.7151C20.7732 80.0424 17.4541 81.1631 16.9228 84.9004C16.5174 87.7527 17.9709 88.8342 19.4998 89.2086C20.6212 89.4836 21.3667 90.5742 21.1374 91.7054C20.9193 92.7908 21.2442 94.0457 23.1255 95.0382C27.342 97.264 31.5533 89.7703 31.5533 89.7703L32.416 76.69L29.3982 73.3828Z" fill="url(#paint7_linear_6198_183)"/>
<path d="M52.3422 70.2819C52.3422 70.2819 43.9229 83.59 33.9119 86.164C33.9119 86.164 35.8626 91.716 37.3685 92.3517C37.3685 92.3517 49.6834 82.0817 52.8499 72.1764L52.3422 70.2819Z" fill="url(#paint8_linear_6198_183)"/>
<path d="M12.069 155.4L11.7965 157.641C11.7718 157.848 11.6782 158.04 11.5307 158.188C11.3833 158.335 11.1905 158.428 10.9836 158.452C10.263 158.534 9.11081 158.618 7.98151 158.499C7.86508 158.486 7.75306 158.447 7.65348 158.385C7.55389 158.323 7.46922 158.24 7.40554 158.142C7.34185 158.044 7.30074 157.932 7.28514 157.816C7.26954 157.7 7.27985 157.582 7.31533 157.47C7.59045 156.605 8.09418 155.306 8.82193 154.542H11.3111C11.4193 154.542 11.5263 154.565 11.6249 154.61C11.7234 154.654 11.8114 154.719 11.8831 154.801C11.9547 154.882 12.0083 154.977 12.0403 155.08C12.0724 155.184 12.0821 155.293 12.069 155.4Z" fill="url(#paint9_linear_6198_183)"/>
<path d="M31.5562 129.14L31.9761 131.609C31.9761 131.609 30.5697 145.846 30.3194 151.541C30.2807 152.433 30.511 153.317 30.9804 154.078L33.4237 158.043L27.2086 154.377L27.0848 153.619L28.1021 152.222L26.7691 136.272C26.691 135.335 26.8846 134.396 27.3265 133.566L28.6124 131.152L31.5562 129.14Z" fill="url(#paint10_linear_6198_183)"/>
<path d="M33.8349 158.621H31.8514C31.6683 158.622 31.4877 158.58 31.3233 158.499C31.159 158.419 31.0154 158.301 30.9035 158.157C30.2852 157.354 29.0039 155.787 28.3914 155.746C27.5667 155.691 27.6709 158.621 27.6709 158.621H27.2091L26.6235 154.98C26.5517 154.534 26.6224 154.076 26.8254 153.672C27.0284 153.267 27.3535 152.937 27.7547 152.728C27.7547 152.728 27.9434 154.121 28.9653 154.737C29.9871 155.353 33.1248 157.56 33.1248 157.56C33.3933 157.529 33.6648 157.536 33.9312 157.582C34.558 157.695 34.4716 158.621 33.8349 158.621Z" fill="url(#paint11_linear_6198_183)"/>
<path d="M23.0432 130.313C23.0432 130.313 14.8034 145.932 13.4939 149.498C12.1845 153.064 11.7253 156.039 11.7076 156.322C11.6801 156.761 11.1325 157.184 9.62197 157.184C8.84312 157.184 8.46123 156.871 8.27454 156.569C8.19716 156.442 8.15349 156.297 8.14765 156.148C8.1418 155.999 8.17398 155.851 8.24113 155.718C8.71735 154.754 10.2298 151.673 10.7899 150.276C11.4587 148.608 12.8979 141.046 13.6865 138.419C14.4752 135.793 15.3674 132.94 18.8031 130.313C18.8031 130.313 21.1619 128.004 23.0432 130.313Z" fill="url(#paint12_linear_6198_183)"/>
<path d="M28.2488 104.719C30.3738 95.7191 24.99 90.628 24.99 90.628C28.3871 87.3692 34.5772 85.8864 34.5772 85.8864C34.5772 85.8864 40.4838 90.2018 39.7829 93.5797C39.3722 95.5593 35.6312 105.438 35.6312 105.438C35.6312 105.438 32.1713 107.074 28.2488 104.719Z" fill="url(#paint13_linear_6198_183)"/>
<path d="M23.5358 109.175C24.4005 106.571 28.2482 104.719 28.2482 104.719C32.1713 107.076 35.6306 105.439 35.6306 105.439C35.6306 105.439 36.4062 108.403 35.871 111.157C35.3358 113.911 31.9761 131.609 31.9761 131.609C26.6827 132.681 18.5417 130.531 18.5417 130.531C21.9133 124.548 22.6705 111.779 23.5358 109.175Z" fill="url(#paint14_linear_6198_183)"/>
<path d="M30.715 79.9384L28.9869 87.6952C28.8212 88.3786 29.4455 88.2667 30.1359 88.1364C31.2678 87.923 32.7266 87.4818 33.2146 86.6039C33.2614 86.5124 33.2913 86.4133 33.303 86.3113L34.0452 80.9328C34.0739 80.725 34.0342 80.5135 33.9321 80.3303C33.83 80.147 33.6711 80.0019 33.4792 79.9168L32.048 79.2824C31.9185 79.2247 31.7778 79.1962 31.636 79.1988C31.4942 79.2015 31.3548 79.2354 31.2275 79.298C31.1003 79.3606 30.9884 79.4504 30.8998 79.5611C30.8112 79.6718 30.7481 79.8006 30.715 79.9384Z" fill="url(#paint15_linear_6198_183)"/>
<path d="M34.0245 72.867C34.0245 72.867 35.8645 74.1108 36.6551 77.2812C37.4458 80.4516 36.1606 81.5868 34.8439 81.5174C33.5273 81.448 31.6178 81.0408 29.9638 78.7679C28.3099 76.495 31.6139 71.3463 34.0245 72.867Z" fill="url(#paint16_linear_6198_183)"/>
<path d="M31.6314 77.4887C31.6314 77.4887 30.9573 72.9475 34.7304 73.6421L35.4929 74.4361C35.4929 74.4361 37.3401 72.3577 35.2964 70.7865C33.2526 69.2154 30.4169 69.618 28.8481 72.4781C27.2793 75.3382 26.7094 77.348 28.0247 79.1253C29.34 80.9027 30.3285 79.378 30.3285 79.378C30.3285 79.378 29.7259 77.8396 30.2263 77.1797C30.7268 76.5199 31.372 77.5634 31.372 77.5634L31.6314 77.4887Z" fill="url(#paint17_linear_6198_183)"/>
<path d="M31.1161 77.8775C31.1161 77.8775 30.7833 75.5411 29.5892 76.2088C28.395 76.8765 30.0195 78.3914 30.6706 78.9072L31.1161 77.8775Z" fill="url(#paint18_linear_6198_183)"/>
<path d="M52.2839 73.0214C52.3094 73.2963 51.2882 73.4862 50.9626 72.3157C51.0524 71.8077 51.2109 69.5826 51.6007 69.2389C53.6772 67.3981 57.3795 65.3268 57.3795 65.3268C57.7935 65.9585 57.2485 66.3742 57.2485 66.3742L55.3999 67.618C55.5964 68.2556 55.8742 68.8199 55.9063 69.5485C55.9251 70.1034 55.7295 70.6442 55.36 71.0588C54.9918 71.4791 54.4973 72.0211 54.0499 72.4335C53.2062 73.2132 52.2839 73.0214 52.2839 73.0214Z" fill="url(#paint19_linear_6198_183)"/>
<path d="M53.2873 72.1142L53.0069 71.999C53.0443 71.9074 53.9312 69.7543 54.3596 69.3065C54.5227 69.1363 54.602 68.9903 54.5948 68.8725C54.5859 68.7993 54.5519 68.7315 54.4985 68.6807L53.0017 69.4806L52.3414 70.5143L52.0859 70.3519L52.7888 69.2508L54.5397 68.3154L54.6177 68.3808C54.7946 68.5249 54.8863 68.68 54.8967 68.8554C54.9098 69.0636 54.8057 69.2803 54.579 69.5173C54.2541 69.8538 53.5369 71.5061 53.2873 72.1142Z" fill="url(#paint20_linear_6198_183)"/>
<path d="M24.9895 90.628C24.9895 90.628 15.4232 110.255 11.9587 111.973C11.9587 111.973 8.4411 112.34 6.28861 112.991C5.74689 113.155 5.76458 113.923 6.31089 114.072C7.81029 114.48 10.2942 114.822 12.5699 113.587C12.5699 113.587 11.3475 115.42 12.0609 116.132C12.0609 116.132 13.6906 114.198 14.3025 113.587C14.8402 113.049 24.6371 102.376 28.7554 95.9391C29.0881 95.4153 28.8569 93.873 28.6244 93.3009C28.0938 91.9831 26.9134 89.8797 24.9895 90.628Z" fill="url(#paint21_linear_6198_183)"/>
<path d="M83.6277 79.1764C99.4748 79.1764 112.321 66.3378 112.321 50.5006C112.321 34.6634 99.4748 21.8248 83.6277 21.8248C67.7807 21.8248 54.9341 34.6634 54.9341 50.5006C54.9341 66.3378 67.7807 79.1764 83.6277 79.1764Z" fill="white"/>
<path d="M92.9354 40.1769C92.9354 45.0691 88.9664 50.3513 84.0706 50.3513C79.1748 50.3513 75.2065 45.0691 75.2065 40.1769C75.2065 35.2848 79.1755 31.8133 84.0706 31.8133C88.9658 31.8133 92.9354 35.2842 92.9354 40.1769Z" fill="url(#paint22_linear_6198_183)"/>
<path d="M73.0704 69.1879H94.7092C95.8193 69.1875 96.9006 68.8348 97.7973 68.1807C98.6939 67.5265 99.3595 66.6047 99.698 65.5481L100.863 61.9116C101.714 59.2485 100.329 56.3649 97.7015 55.4052C88.895 52.187 79.7892 52.6 70.4607 55.7017C67.8477 56.5704 66.3994 59.3644 67.12 62.0203L68.0167 65.3236C68.3182 66.4326 68.9762 67.4117 69.8895 68.1101C70.8027 68.8084 71.9205 69.1871 73.0704 69.1879Z" fill="url(#paint23_linear_6198_183)"/>
<path d="M56.7014 115.498C56.6797 116.112 56.4195 116.694 55.9759 117.12C55.5323 117.546 54.9401 117.783 54.3249 117.78C54.0234 117.777 53.7256 117.715 53.4489 117.595C53.1722 117.476 52.9223 117.302 52.7142 117.084C52.506 116.866 52.3436 116.609 52.2369 116.327C52.1301 116.045 52.081 115.745 52.0925 115.444C52.1138 114.829 52.3745 114.246 52.8192 113.82C53.2639 113.393 53.8574 113.157 54.4736 113.162C54.7745 113.165 55.0718 113.228 55.3479 113.348C55.624 113.468 55.8732 113.642 56.0809 113.86C56.2885 114.078 56.4504 114.335 56.557 114.616C56.6636 114.897 56.7127 115.197 56.7014 115.498Z" fill="url(#paint24_linear_6198_183)"/>
<path d="M65.3244 115.598C65.3043 116.209 65.0468 116.788 64.6066 117.212C64.1663 117.637 63.5779 117.873 62.9662 117.871C62.6667 117.868 62.3707 117.805 62.0959 117.685C61.8211 117.566 61.5731 117.393 61.3666 117.176C61.16 116.959 60.9992 116.703 60.8935 116.423C60.7879 116.143 60.7396 115.844 60.7515 115.545C60.7717 114.933 61.0297 114.353 61.4708 113.929C61.9119 113.505 62.5013 113.269 63.1136 113.272C63.4129 113.275 63.7084 113.339 63.9828 113.458C64.2571 113.578 64.5046 113.751 64.7107 113.968C64.9169 114.185 65.0774 114.441 65.1828 114.721C65.2882 115.001 65.3363 115.299 65.3244 115.598Z" fill="url(#paint25_linear_6198_183)"/>
<path d="M74.5652 115.754C74.5439 116.368 74.2839 116.95 73.8403 117.376C73.3967 117.802 72.8045 118.038 72.1894 118.035C71.888 118.033 71.5901 117.97 71.3134 117.851C71.0368 117.731 70.7869 117.557 70.5787 117.34C70.3705 117.122 70.2082 116.865 70.1014 116.583C69.9946 116.301 69.9455 116.001 69.957 115.7C69.9783 115.085 70.2389 114.502 70.6835 114.076C71.128 113.65 71.7214 113.414 72.3374 113.418C72.6384 113.421 72.9358 113.484 73.212 113.604C73.4881 113.724 73.7374 113.898 73.9451 114.115C74.1528 114.333 74.3147 114.59 74.4212 114.872C74.5277 115.153 74.5767 115.453 74.5652 115.754Z" fill="url(#paint26_linear_6198_183)"/>
<path d="M92.8462 115.968C92.8261 116.579 92.5685 117.158 92.1283 117.582C91.688 118.006 91.0996 118.242 90.488 118.24C90.1884 118.237 89.8924 118.174 89.6175 118.055C89.3427 117.936 89.0947 117.762 88.8881 117.545C88.6816 117.328 88.5207 117.072 88.4151 116.792C88.3095 116.512 88.2613 116.213 88.2733 115.914C88.2934 115.302 88.5515 114.723 88.9926 114.299C89.4337 113.874 90.0231 113.639 90.6354 113.642C90.9347 113.645 91.2302 113.709 91.5045 113.828C91.7788 113.948 92.0264 114.121 92.2325 114.338C92.4386 114.555 92.5991 114.811 92.7045 115.091C92.8099 115.371 92.8581 115.669 92.8462 115.968Z" fill="url(#paint27_linear_6198_183)"/>
<path d="M102.089 116.12C102.068 116.734 101.808 117.316 101.364 117.742C100.92 118.168 100.328 118.405 99.713 118.402C99.4116 118.399 99.1137 118.336 98.8371 118.217C98.5604 118.097 98.3105 117.924 98.1023 117.706C97.8941 117.488 97.7318 117.231 97.625 116.949C97.5182 116.667 97.4691 116.367 97.4806 116.066C97.502 115.451 97.7627 114.868 98.2074 114.442C98.6521 114.016 99.2457 113.78 99.8617 113.784C100.163 113.787 100.46 113.851 100.736 113.97C101.012 114.09 101.261 114.264 101.469 114.482C101.677 114.699 101.838 114.957 101.945 115.238C102.051 115.519 102.1 115.819 102.089 116.12Z" fill="url(#paint28_linear_6198_183)"/>
<path d="M83.1868 115.851C83.1665 116.461 82.909 117.04 82.4687 117.465C82.0285 117.889 81.4402 118.125 80.8286 118.123C80.5291 118.12 80.2332 118.057 79.9585 117.938C79.6838 117.819 79.4358 117.645 79.2294 117.428C79.0229 117.212 78.8621 116.955 78.7565 116.675C78.6509 116.395 78.6026 116.097 78.6146 115.798C78.6354 115.186 78.8942 114.606 79.336 114.183C79.7777 113.759 80.3675 113.524 80.9799 113.528C81.2786 113.532 81.5734 113.596 81.8471 113.715C82.1207 113.835 82.3676 114.008 82.5733 114.224C82.7789 114.441 82.9392 114.696 83.0445 114.975C83.1499 115.255 83.1983 115.552 83.1868 115.851Z" fill="url(#paint29_linear_6198_183)"/>
<path d="M2.59779 51.7954C2.55461 51.7972 2.51182 51.7867 2.47437 51.7652C2.43692 51.7436 2.40635 51.7119 2.38621 51.6737C2.25061 51.4118 2.11764 51.1375 1.99318 50.8665C1.98094 50.8399 1.97416 50.8111 1.97325 50.7818C1.97234 50.7525 1.97731 50.7233 1.98788 50.696C1.99844 50.6686 2.01438 50.6437 2.03476 50.6226C2.05513 50.6015 2.07953 50.5847 2.1065 50.5732C2.38228 50.4488 2.42486 50.7591 2.79234 51.474C2.80561 51.5001 2.81353 51.5286 2.81563 51.5578C2.81774 51.5871 2.81398 51.6164 2.80459 51.6441C2.79519 51.6719 2.78034 51.6975 2.76092 51.7194C2.74149 51.7413 2.71788 51.7592 2.69146 51.7719C2.6622 51.7861 2.63031 51.7941 2.59779 51.7954Z" fill="#91B3FA"/>
<path d="M0.985889 48.2605C0.814922 47.7159 0.664261 47.1574 0.537837 46.601C0.526223 46.5434 0.537889 46.4835 0.570288 46.4344C0.602687 46.3854 0.653188 46.3511 0.71077 46.3392C1.04419 46.2684 0.916455 46.5277 1.41953 48.1329C1.42805 48.1609 1.43091 48.1904 1.42793 48.2196C1.42495 48.2488 1.4162 48.2771 1.40218 48.3028C1.38816 48.3286 1.36916 48.3513 1.34627 48.3697C1.32338 48.388 1.29707 48.4017 1.26887 48.4098C1.21154 48.4274 1.14956 48.4215 1.09652 48.3936C1.04348 48.3656 1.0037 48.3177 0.985889 48.2605ZM0.0956811 43.8476C0.0413123 43.2768 0.00856056 42.6935 4.49593e-05 42.1331C-0.00519541 41.8326 0.449407 41.8372 0.453338 42.1259C0.462508 42.6837 0.493949 43.2466 0.547663 43.805C0.550092 43.8632 0.530099 43.92 0.491809 43.9639C0.453519 44.0077 0.399853 44.0352 0.341879 44.0407C0.283905 44.0461 0.226044 44.0292 0.180235 43.9932C0.134425 43.9573 0.10416 43.9052 0.0956811 43.8476ZM0.13564 39.3483C0.201145 38.782 0.288921 38.2112 0.397658 37.6508C0.454647 37.3621 0.899423 37.4465 0.843089 37.7339C0.735661 38.2825 0.646575 38.8422 0.585001 39.3967C0.552903 39.6893 0.102233 39.6402 0.13564 39.3489V39.3483ZM1.26101 35.2293C1.23294 35.2207 1.20686 35.2067 1.18432 35.1879C1.16177 35.1691 1.14321 35.146 1.12972 35.12C1.11623 35.0939 1.10809 35.0655 1.10578 35.0362C1.10346 35.007 1.10702 34.9776 1.11624 34.9498C1.29835 34.4084 1.50534 33.8663 1.73068 33.34C1.84662 33.069 2.26454 33.2392 2.14925 33.5102C1.9285 34.0261 1.72544 34.5576 1.54726 35.0879C1.52745 35.1441 1.48642 35.1904 1.43293 35.2168C1.37945 35.2432 1.31775 35.2477 1.26101 35.2293ZM3.08007 31.1404C3.05436 31.1264 3.03174 31.1073 3.01355 31.0844C2.99537 31.0614 2.982 31.0351 2.97424 31.0068C2.96647 30.9786 2.96448 30.9491 2.96837 30.9201C2.97226 30.8911 2.98195 30.8632 2.99688 30.838C3.28838 30.3431 3.60345 29.856 3.93294 29.3834C4.10325 29.1418 4.47663 29.3912 4.30697 29.6334C3.98404 30.0917 3.67551 30.5742 3.38991 31.0586C3.35907 31.1098 3.30946 31.1471 3.25161 31.1623C3.19375 31.1776 3.13222 31.1698 3.08007 31.1404ZM5.86926 27.5523C5.81102 27.5549 5.75404 27.535 5.71008 27.4967C5.68784 27.4777 5.66966 27.4544 5.65662 27.4282C5.64358 27.402 5.63594 27.3735 5.63417 27.3443C5.6324 27.3151 5.63652 27.2858 5.6463 27.2582C5.65608 27.2307 5.67131 27.2054 5.69109 27.1838C6.07953 26.757 6.48893 26.34 6.90881 25.9446C6.9524 25.9036 7.01023 25.8813 7.07004 25.8822C7.12984 25.8832 7.18691 25.9074 7.22913 25.9498C7.24994 25.9706 7.26631 25.9954 7.27725 26.0228C7.28819 26.0501 7.29349 26.0794 7.29281 26.1088C7.29214 26.1382 7.28551 26.1672 7.27333 26.194C7.26115 26.2208 7.24366 26.2448 7.22193 26.2647C6.81056 26.6522 6.40901 27.0607 6.02909 27.479C5.98755 27.5236 5.93012 27.5499 5.86926 27.5523ZM9.22899 24.5371C9.19248 24.5386 9.15614 24.5313 9.12298 24.5159C9.08984 24.5006 9.06083 24.4775 9.03837 24.4487C9.02062 24.4254 9.00772 24.3989 9.00044 24.3705C8.99315 24.3422 8.99163 24.3127 8.99597 24.2837C9.00031 24.2548 9.01041 24.227 9.02568 24.2021C9.04096 24.1771 9.06108 24.1555 9.08488 24.1384C9.55258 23.7973 10.0399 23.47 10.5338 23.1656C10.5847 23.1342 10.6458 23.1238 10.7042 23.1368C10.7626 23.1498 10.8136 23.185 10.8463 23.235C10.8621 23.2596 10.8728 23.2871 10.8778 23.3159C10.8828 23.3448 10.8819 23.3743 10.8753 23.4028C10.8688 23.4312 10.8565 23.4581 10.8394 23.4818C10.8223 23.5055 10.8005 23.5255 10.7756 23.5407C10.2915 23.8386 9.81395 24.1594 9.35541 24.4932C9.31879 24.5205 9.27464 24.5358 9.22899 24.5371ZM12.9313 22.1241C12.9188 22.0976 12.9117 22.0689 12.9105 22.0396C12.9093 22.0103 12.9141 21.9811 12.9244 21.9537C12.9347 21.9263 12.9504 21.9012 12.9706 21.88C12.9909 21.8588 13.0151 21.8418 13.042 21.8302C13.5706 21.5899 14.1163 21.3667 14.6639 21.167C14.9462 21.0655 15.1021 21.4799 14.8218 21.5827C14.2853 21.7791 13.7508 21.9964 13.2326 22.2314C13.1783 22.2565 13.1164 22.2593 13.0601 22.2392C13.0037 22.2191 12.9575 22.1778 12.9313 22.1241ZM28.1592 20.9241C26.5084 20.4999 26.234 20.6341 26.2962 20.3035C26.3078 20.2454 26.3417 20.1941 26.3907 20.1607C26.4397 20.1273 26.4998 20.1144 26.5582 20.1248C27.1327 20.2256 27.7098 20.3507 28.2738 20.4953C28.5653 20.5693 28.45 20.9988 28.1592 20.9241ZM17.2278 20.6276C17.2213 20.599 17.2206 20.5693 17.2256 20.5404C17.2306 20.5115 17.2413 20.4839 17.2571 20.4591C17.2729 20.4343 17.2934 20.4129 17.3175 20.3961C17.3416 20.3793 17.3687 20.3674 17.3974 20.3611C17.9653 20.2302 18.5457 20.1222 19.1228 20.0338C19.4195 19.9893 19.487 20.4266 19.1883 20.4718C18.6223 20.5562 18.0538 20.6636 17.4976 20.7906C17.4403 20.8038 17.38 20.7941 17.3297 20.7637C17.2793 20.7333 17.2428 20.6845 17.2278 20.6276ZM23.7003 20.2485C21.9971 20.1634 21.7541 20.35 21.7456 20.0129C21.7397 19.7995 21.9913 19.7739 21.9664 19.7857C22.5513 19.77 23.1454 19.7766 23.7238 19.8054C23.7532 19.8066 23.782 19.8136 23.8086 19.8261C23.8352 19.8385 23.8591 19.8561 23.8789 19.8778C23.8986 19.8995 23.9139 19.9249 23.9237 19.9526C23.9336 19.9802 23.9379 20.0096 23.9363 20.0389C23.9348 20.0682 23.9274 20.0969 23.9147 20.1234C23.9019 20.1498 23.884 20.1735 23.8621 20.193C23.8401 20.2125 23.8145 20.2274 23.7868 20.237C23.759 20.2465 23.7296 20.2504 23.7003 20.2485Z" fill="#91B3FA"/>
<path d="M31.6485 22.1404C30.9535 21.832 30.5833 21.7849 30.6999 21.506C30.7234 21.4511 30.7675 21.4075 30.8227 21.3846C30.8779 21.3617 30.9399 21.3614 30.9954 21.3836C31.7271 21.6736 32.0716 21.7672 31.9485 22.0304C31.9182 22.0798 31.8721 22.1176 31.8176 22.1375C31.7632 22.1575 31.7035 22.1585 31.6485 22.1404Z" fill="#91B3FA"/>
<path d="M43.5372 34.695C43.4892 34.6971 43.4419 34.6839 43.4019 34.6573C43.362 34.6307 43.3316 34.5921 43.3151 34.5471C43.2155 34.2721 43.1094 33.9965 42.9994 33.7268C42.9884 33.6996 42.983 33.6706 42.9834 33.6413C42.9839 33.612 42.9902 33.583 43.0019 33.5562C43.0137 33.5294 43.0307 33.5052 43.052 33.485C43.0733 33.4648 43.0984 33.4491 43.1258 33.4388C43.1813 33.4169 43.2431 33.4176 43.2982 33.4406C43.3532 33.4635 43.3971 33.507 43.4206 33.5619C43.5326 33.8368 43.6413 34.1183 43.7428 34.3991C43.7526 34.4268 43.7568 34.456 43.7551 34.4853C43.7534 34.5145 43.7459 34.5432 43.7331 34.5695C43.7202 34.5958 43.7022 34.6193 43.6802 34.6386C43.6581 34.6579 43.6324 34.6727 43.6046 34.6819C43.5829 34.6894 43.5601 34.6938 43.5372 34.695Z" fill="url(#paint30_linear_6198_183)"/>
<path d="M22.7236 63.7636C22.0948 63.7715 21.4588 63.7531 20.8325 63.7093C20.8032 63.7075 20.7745 63.7 20.748 63.6871C20.7216 63.6743 20.698 63.6563 20.6785 63.6343C20.659 63.6123 20.6441 63.5866 20.6345 63.5588C20.625 63.531 20.6211 63.5016 20.6229 63.4723C20.6491 63.1286 20.879 63.3414 22.7191 63.3211C22.7485 63.3203 22.7778 63.3253 22.8053 63.3359C22.8328 63.3465 22.8579 63.3624 22.8792 63.3827C22.9005 63.403 22.9176 63.4274 22.9295 63.4543C22.9413 63.4813 22.9477 63.5103 22.9483 63.5397C22.9503 63.7531 22.6988 63.7754 22.7236 63.7636ZM25.5299 63.3381C25.4788 62.9977 25.7604 63.1548 27.5422 62.7489C27.6002 62.735 27.6613 62.7446 27.7123 62.7755C27.7633 62.8064 27.8001 62.8561 27.8147 62.9139C27.8213 62.9425 27.8222 62.9721 27.8173 63.0011C27.8124 63.03 27.8018 63.0577 27.786 63.0825C27.7703 63.1073 27.7498 63.1287 27.7257 63.1455C27.7016 63.1623 27.6744 63.1741 27.6457 63.1803C27.0358 63.3204 26.4102 63.4369 25.7873 63.5273C25.7281 63.5363 25.6677 63.5214 25.6194 63.486C25.5711 63.4505 25.5389 63.3973 25.5299 63.3381ZM17.7898 63.289C17.1761 63.1581 16.5597 63.0062 15.9557 62.8307C15.9275 62.8228 15.9011 62.8093 15.8782 62.791C15.8552 62.7727 15.8361 62.7501 15.822 62.7244C15.8079 62.6986 15.7991 62.6704 15.7961 62.6412C15.7931 62.612 15.7959 62.5826 15.8044 62.5545C15.9072 62.2272 16.0828 62.4838 17.8822 62.8576C17.9109 62.8633 17.9381 62.8746 17.9624 62.8909C17.9867 62.9071 18.0076 62.928 18.0237 62.9523C18.0399 62.9767 18.0512 63.004 18.0568 63.0326C18.0624 63.0613 18.0623 63.0908 18.0564 63.1194C18.0427 63.1767 18.0072 63.2265 17.9574 63.2581C17.9077 63.2897 17.8476 63.3008 17.7898 63.289ZM30.5102 62.307C30.4633 62.309 30.4169 62.2965 30.3775 62.271C30.3381 62.2456 30.3075 62.2085 30.2901 62.165C30.2795 62.1376 30.2746 62.1084 30.2755 62.0791C30.2764 62.0499 30.2831 62.021 30.2953 61.9944C30.3075 61.9677 30.325 61.9438 30.3466 61.924C30.3681 61.9041 30.3935 61.8888 30.4211 61.8789C30.9969 61.6622 31.5694 61.4207 32.1242 61.1588C32.178 61.1328 32.2398 61.1289 32.2964 61.148C32.353 61.1671 32.3999 61.2077 32.4268 61.2609C32.4399 61.2872 32.4475 61.3158 32.4493 61.3451C32.451 61.3744 32.4469 61.4037 32.4371 61.4313C32.4274 61.459 32.4121 61.4844 32.3924 61.5061C32.3726 61.5277 32.3487 61.5452 32.322 61.5575C31.7574 61.8252 31.1731 62.0733 30.5855 62.2939C30.5614 62.303 30.5359 62.3081 30.5102 62.309V62.307ZM34.8649 60.1016C34.8265 60.1031 34.7884 60.0948 34.7541 60.0777C34.7197 60.0605 34.6902 60.035 34.6684 60.0034C34.652 59.9791 34.6407 59.9517 34.6351 59.923C34.6295 59.8942 34.6298 59.8646 34.6359 59.8359C34.642 59.8073 34.6538 59.7801 34.6707 59.7562C34.6875 59.7322 34.709 59.7118 34.7339 59.6963C35.2455 59.3625 35.7492 59.0024 36.2314 58.6273C36.2785 58.5904 36.3381 58.5734 36.3976 58.5799C36.4571 58.5864 36.5117 58.6159 36.5497 58.662C36.5682 58.6847 36.582 58.7108 36.5902 58.7389C36.5985 58.7669 36.601 58.7964 36.5976 58.8254C36.5942 58.8545 36.5851 58.8826 36.5707 58.908C36.5563 58.9335 36.5369 58.9558 36.5137 58.9736C36.0217 59.3566 35.5075 59.7238 34.9855 60.0642C34.9496 60.0878 34.9078 60.1007 34.8649 60.1016ZM38.6229 57.0149C38.5928 57.0162 38.5626 57.0115 38.5343 57.001C38.506 56.9906 38.48 56.9746 38.4579 56.9541C38.4364 56.9342 38.4192 56.9102 38.4072 56.8835C38.3951 56.8568 38.3886 56.828 38.3879 56.7988C38.3873 56.7696 38.3925 56.7405 38.4032 56.7133C38.414 56.6861 38.4301 56.6613 38.4507 56.6405C38.8758 56.2052 39.2871 55.7469 39.6743 55.2782C39.7128 55.2325 39.7676 55.2035 39.827 55.1972C39.8865 55.191 39.9461 55.208 39.9933 55.2448C40.0164 55.2627 40.0357 55.2851 40.05 55.3106C40.0643 55.3362 40.0733 55.3643 40.0764 55.3934C40.0796 55.4225 40.0769 55.4519 40.0685 55.4799C40.06 55.5079 40.0461 55.5339 40.0274 55.5564C39.6343 56.0343 39.2125 56.5024 38.7782 56.9462C38.7379 56.9877 38.6833 57.0123 38.6256 57.0149H38.6229ZM41.6047 53.2023C41.5606 53.2042 41.517 53.1933 41.4789 53.1709C41.4536 53.1563 41.4314 53.1367 41.4137 53.1133C41.3961 53.09 41.3833 53.0633 41.3762 53.0349C41.369 53.0065 41.3676 52.977 41.3721 52.9481C41.3766 52.9191 41.3869 52.8914 41.4023 52.8665C41.7206 52.3513 42.0207 51.8191 42.2938 51.277C42.3213 51.2239 42.3685 51.1836 42.4252 51.1648C42.482 51.146 42.5439 51.1501 42.5978 51.1762C42.6242 51.1887 42.6478 51.2064 42.6673 51.2282C42.6868 51.2499 42.7018 51.2754 42.7113 51.303C42.7208 51.3306 42.7247 51.3599 42.7228 51.389C42.7208 51.4182 42.713 51.4467 42.6999 51.4728C42.4215 52.024 42.1156 52.5693 41.7907 53.095C41.7712 53.1264 41.7443 53.1527 41.7124 53.1714C41.6804 53.1901 41.6443 53.2007 41.6073 53.2023H41.6047ZM43.5849 48.8359C43.2508 48.7272 43.5194 48.5629 43.955 46.8144C44.0251 46.5296 44.4666 46.633 44.3959 46.9178C44.2472 47.5148 44.0683 48.1125 43.8718 48.6951C43.852 48.7509 43.8113 48.7968 43.7582 48.8231C43.7051 48.8493 43.6439 48.8539 43.5875 48.8359H43.5849ZM44.6651 44.1552C44.314 44.1212 44.54 43.9058 44.5694 42.1056C44.574 41.8136 45.028 41.8182 45.0227 42.1114C45.0129 42.7262 44.9762 43.3468 44.9133 43.9562C44.9064 44.0148 44.8769 44.0684 44.831 44.1056C44.7851 44.1428 44.7265 44.1606 44.6677 44.1552H44.6651ZM44.6474 39.3626C44.5908 39.3654 44.5353 39.3467 44.4919 39.3103C44.4486 39.2738 44.4206 39.2224 44.4135 39.1662C44.3395 38.5666 44.24 37.965 44.1168 37.3784C44.1111 37.3496 44.1112 37.32 44.117 37.2912C44.1228 37.2624 44.1342 37.235 44.1507 37.2107C44.1671 37.1864 44.1882 37.1655 44.2128 37.1494C44.2373 37.1332 44.2648 37.1221 44.2937 37.1166C44.352 37.1043 44.4128 37.1155 44.463 37.1477C44.5131 37.1799 44.5486 37.2306 44.5616 37.2887C44.6873 37.8871 44.7889 38.5005 44.8636 39.1126C44.8669 39.1417 44.8645 39.1712 44.8565 39.1993C44.8484 39.2275 44.8348 39.2538 44.8166 39.2767C44.7983 39.2997 44.7757 39.3188 44.7501 39.333C44.7244 39.3471 44.6962 39.3561 44.667 39.3594L44.6474 39.3626Z" fill="url(#paint31_linear_6198_183)"/>
<path d="M13.0725 61.7571C12.3519 61.4337 12.0159 61.3257 12.1508 61.0684C12.2917 60.8007 12.5281 61.0232 13.2644 61.3545C13.2912 61.3662 13.3154 61.3832 13.3356 61.4045C13.3558 61.4257 13.3715 61.4507 13.3818 61.4781C13.3921 61.5055 13.3968 61.5347 13.3957 61.5639C13.3945 61.5932 13.3875 61.6219 13.3751 61.6484C13.349 61.7026 13.3027 61.7443 13.2461 61.7647C13.1895 61.785 13.1271 61.7823 13.0725 61.7571Z" fill="url(#paint32_linear_6198_183)"/>
<path d="M13.1594 55.6212L15.9649 54.0023C17.3385 54.6922 18.8138 55.1579 20.3347 55.3816C21.6586 58.1854 21.5525 58.4761 21.9009 58.4486L25.7939 58.1409C25.849 58.1368 25.9015 58.1158 25.9441 58.0806C25.9867 58.0454 26.0173 57.9979 26.0317 57.9445L26.8465 54.8677C28.3118 54.4087 29.6936 53.7173 30.9393 52.82L33.9695 53.9781C34.0213 53.9979 34.0779 54.0015 34.1318 53.9883C34.1856 53.975 34.2342 53.9457 34.2708 53.9041L36.8059 50.9982C36.8419 50.9571 36.8639 50.9057 36.8687 50.8513C36.8735 50.7969 36.8609 50.7425 36.8327 50.6957L35.1807 47.958C35.8872 46.6227 36.3669 45.1795 36.6002 43.6872L39.5833 42.4119C39.6341 42.3906 39.6769 42.3538 39.7056 42.3068C39.7342 42.2598 39.7474 42.205 39.7431 42.1501L39.4352 38.3473C39.4306 38.293 39.4092 38.2416 39.374 38.2C39.3388 38.1585 39.2915 38.129 39.2387 38.1155L36.0853 37.328C35.6143 35.8909 34.9087 34.5416 33.997 33.3347C35.0982 30.4176 35.3726 30.2985 35.1106 30.0785C32.1544 27.7061 32.138 27.4043 31.8308 27.5818L29.0252 29.2007C27.6518 28.5104 26.1764 28.0447 24.6554 27.8214C23.3322 25.0188 23.4377 24.7269 23.0892 24.7544C19.2244 25.1262 19.0463 24.9259 18.9585 25.2571L18.1436 28.3339C16.6785 28.7932 15.2967 29.4846 14.0509 30.3816C11.1032 29.3244 10.9486 29.0357 10.72 29.2982C8.26158 32.2179 7.97925 32.2107 8.15742 32.5059L9.80945 35.2436C9.10335 36.5793 8.62368 38.0227 8.38996 39.5152C5.56737 40.7904 5.21889 40.7027 5.24574 41.0503C5.61781 44.8059 5.41278 44.9991 5.7534 45.0842L8.90352 45.875C9.37443 47.3121 10.0801 48.6614 10.9918 49.8683C9.8946 52.7755 9.61162 52.9038 9.87823 53.1244C12.8358 55.4968 12.8554 55.798 13.1594 55.6212Z" fill="url(#paint33_linear_6198_183)"/>
<path d="M18.8888 42.7982C18.216 40.8565 19.287 38.7394 21.2758 38.0789C23.2645 37.4184 25.432 38.4605 26.1028 40.4048C26.7736 42.3491 25.7045 44.4636 23.7158 45.1241C21.7264 45.782 19.5615 44.7392 18.8888 42.7982ZM21.4919 38.708C19.8772 39.2441 18.9707 40.9652 19.5314 42.5841C20.0842 44.1788 21.8627 45.0351 23.4957 44.4924C25.1287 43.9497 26.0091 42.211 25.4563 40.6163C24.9034 39.0216 23.1243 38.166 21.4939 38.708H21.4919Z" fill="url(#paint34_linear_6198_183)"/>
<path d="M22.9153 51.0636C22.3544 51.0859 21.7926 51.0612 21.2358 50.9897C21.1573 50.9802 21.0847 50.9434 21.0308 50.8856C20.9769 50.8279 20.9451 50.753 20.941 50.6741C20.9395 50.6249 20.9489 50.576 20.9683 50.5308C20.9878 50.4855 21.017 50.4451 21.0537 50.4124C21.0905 50.3796 21.134 50.3553 21.1812 50.3412C21.2284 50.327 21.2781 50.3233 21.3268 50.3304C21.9678 50.4126 22.6156 50.4284 23.2599 50.3776C28.1282 49.9933 31.8062 45.9064 31.6209 41.1819C31.6156 41.0614 31.6084 40.9403 31.5986 40.8192C31.2016 35.9127 26.8168 32.2984 21.8286 32.6906C16.8404 33.0827 13.0962 37.3555 13.4898 42.2483C13.7257 45.1614 15.193 46.5623 15.2034 46.8674C15.2165 47.1947 14.7816 47.342 14.5864 47.0749C13.4876 45.5699 12.8621 43.7721 12.7896 41.9105C12.4621 33.6359 22.4384 28.9041 28.8841 34.2669C30.8682 35.9173 32.0735 38.2242 32.2792 40.7636C32.2897 40.8945 32.2975 41.0254 32.3028 41.1563C32.398 43.559 31.5636 45.906 29.9728 47.7099C28.278 49.651 25.8862 50.8465 23.3155 51.0374C23.1813 51.0505 23.0476 51.0584 22.9153 51.0636Z" fill="url(#paint35_linear_6198_183)"/>
<path d="M41.5961 25.6931C42.3867 26.0232 43.2259 26.2222 44.0806 26.2823L44.9322 27.8757C45.0272 28.0531 45.1444 27.9058 47.2308 27.6086C47.422 27.5778 47.3257 27.4338 47.6644 25.7101C48.4574 25.3849 49.192 24.9325 49.8392 24.3707L51.5711 24.8945C51.7637 24.9521 51.7427 24.7635 53.007 23.0811C53.025 23.056 53.0347 23.0259 53.0347 22.995C53.0347 22.9641 53.025 22.934 53.007 22.9089L51.9667 21.4288C52.297 20.6387 52.4962 19.8 52.5563 18.9458C54.0629 18.0993 54.2594 18.1334 54.228 17.9389C53.85 15.8238 53.9548 15.7073 53.7622 15.6739L51.9805 15.3629C51.6555 14.5703 51.203 13.8362 50.6409 13.1895L51.165 11.4587C51.2233 11.2662 51.034 11.2872 49.3511 10.0237C49.1952 9.91045 49.1664 10.0754 47.6978 11.062C46.9072 10.7319 46.068 10.5329 45.2132 10.4728L44.3617 8.8794C44.2667 8.70199 44.1494 8.84929 42.0631 9.14649C41.8731 9.1766 41.9701 9.31277 41.6295 11.0449C40.8363 11.3695 40.1016 11.8218 39.4547 12.3837L37.7228 11.86C37.6932 11.8507 37.6614 11.8511 37.632 11.861C37.6026 11.8708 37.577 11.8897 37.559 11.915L36.2869 13.6727C36.2688 13.6977 36.2591 13.7278 36.2591 13.7587C36.2591 13.7896 36.2688 13.8198 36.2869 13.8448L37.3271 15.325C36.9968 16.1151 36.7977 16.9538 36.7376 17.808C35.231 18.6545 35.0345 18.6204 35.0666 18.8155C35.4439 20.9293 35.3391 21.0465 35.5316 21.0799L37.3127 21.3908C37.6381 22.1834 38.0908 22.9175 38.6529 23.5642C38.1859 25.2277 38.0228 25.3429 38.1833 25.4588L39.9421 26.7301C40.0999 26.8453 40.1346 26.6744 41.5961 25.6931Z" fill="url(#paint36_linear_6198_183)"/>
<path d="M42.5694 19.2731C42.3922 18.8618 42.3411 18.4073 42.4224 17.967C42.5037 17.5267 42.7139 17.1204 43.0263 16.7995C43.3387 16.4785 43.7393 16.2574 44.1775 16.164C44.6156 16.0706 45.0717 16.1092 45.4879 16.2748C45.9041 16.4404 46.2619 16.7257 46.5159 17.0945C46.7699 17.4634 46.9087 17.8992 46.9149 18.3469C46.921 18.7946 46.7942 19.2341 46.5504 19.6097C46.3066 19.9854 45.9568 20.2803 45.5453 20.4573C44.9934 20.6941 44.3702 20.7023 43.8122 20.4803C43.2543 20.2583 42.8073 19.8241 42.5694 19.2731ZM43.1884 19.006C43.3556 19.3933 43.6698 19.6984 44.0619 19.8544C44.4541 20.0104 44.8922 20.0045 45.28 19.838C46.5737 19.2816 46.5527 17.4244 45.24 16.902C43.9273 16.3796 42.629 17.7052 43.1891 19.006H43.1884Z" fill="url(#paint37_linear_6198_183)"/>
<path d="M36.057 26.5527C35.8474 26.3327 35.643 26.101 35.4511 25.8646C35.4324 25.8418 35.4184 25.8155 35.4099 25.7872C35.4014 25.7589 35.3986 25.7293 35.4015 25.6999C35.4045 25.6705 35.4133 25.642 35.4273 25.6161C35.4413 25.5901 35.4603 25.5671 35.4832 25.5485C35.7262 25.3521 35.8422 25.6748 36.3832 26.2424C36.4036 26.2639 36.4196 26.2892 36.4302 26.3168C36.4408 26.3445 36.4458 26.3739 36.445 26.4035C36.4442 26.4331 36.4376 26.4623 36.4256 26.4893C36.4135 26.5164 36.3962 26.5408 36.3747 26.5612C36.3532 26.5816 36.3279 26.5975 36.3002 26.6081C36.2726 26.6187 36.2431 26.6237 36.2134 26.623C36.1838 26.6222 36.1546 26.6155 36.1276 26.6035C36.1005 26.5914 36.0761 26.5742 36.0557 26.5527H36.057Z" fill="#91B3FA"/>
<path d="M33.8643 23.3102C33.607 22.7478 33.3939 22.1663 33.2269 21.5708C33.1457 21.2841 33.58 21.1637 33.6599 21.4491C34.1047 23.0307 34.5063 23.265 34.1637 23.4215C34.1367 23.4339 34.1076 23.4409 34.0779 23.442C34.0483 23.4431 34.0187 23.4384 33.9908 23.428C33.963 23.4177 33.9375 23.402 33.9158 23.3817C33.8941 23.3615 33.8766 23.3372 33.8643 23.3102ZM33.0127 18.8168C32.9832 18.8174 32.9538 18.8122 32.9263 18.8014C32.8987 18.7906 32.8736 18.7745 32.8523 18.754C32.831 18.7335 32.8139 18.709 32.8021 18.682C32.7903 18.6549 32.784 18.6257 32.7835 18.5962C32.7736 17.9776 32.8124 17.3593 32.8994 16.7468C32.9407 16.4522 33.3861 16.5138 33.3449 16.809C33.2626 17.3984 33.2267 17.9933 33.2374 18.5883C33.2376 18.6477 33.2146 18.7049 33.1732 18.7476C33.1319 18.7902 33.0755 18.8151 33.016 18.8168H33.0127ZM33.901 14.1571C33.8633 14.1586 33.8258 14.1507 33.792 14.1339C33.7582 14.1172 33.7291 14.0922 33.7075 14.0613C33.6859 14.0304 33.6725 13.9945 33.6684 13.957C33.6643 13.9195 33.6697 13.8816 33.6842 13.8468C33.9207 13.2752 34.2013 12.7227 34.5233 12.1945C34.5554 12.1458 34.6052 12.1115 34.6622 12.0988C34.7192 12.0861 34.7788 12.0959 34.8287 12.1263C34.8785 12.1567 34.9146 12.2052 34.9293 12.2616C34.9441 12.318 34.9364 12.378 34.9078 12.4288C34.5978 12.937 34.3278 13.4684 34.1001 14.0183C34.084 14.0576 34.057 14.0914 34.0223 14.116C33.9876 14.1406 33.9467 14.1548 33.9043 14.1571H33.901ZM36.5677 10.2345C36.5221 10.2365 36.4769 10.2246 36.4382 10.2004C36.3995 10.1761 36.3691 10.1406 36.3511 10.0987C36.3331 10.0567 36.3283 10.0103 36.3374 9.96552C36.3465 9.92078 36.369 9.87987 36.402 9.84824C36.8474 9.41879 37.3257 9.0248 37.8326 8.66989C37.8815 8.63911 37.9405 8.62832 37.9972 8.63977C38.0539 8.65122 38.104 8.68402 38.1372 8.73139C38.1703 8.77875 38.184 8.83705 38.1754 8.89422C38.1667 8.95138 38.1364 9.00302 38.0907 9.03845C37.6031 9.3798 37.1432 9.75891 36.7151 10.1723C36.6761 10.2098 36.6249 10.2319 36.571 10.2345H36.5677ZM40.367 7.56028C40.3565 7.53269 40.3517 7.50331 40.3526 7.47383C40.3536 7.44436 40.3603 7.41535 40.3725 7.38848C40.3846 7.36162 40.402 7.33741 40.4235 7.31724C40.445 7.29707 40.4703 7.28133 40.498 7.27093C41.0776 7.05385 41.6733 6.88225 42.2797 6.7577C42.5699 6.69682 42.6622 7.13869 42.3701 7.19827C41.7868 7.31827 41.2136 7.4833 40.6558 7.69186C40.6001 7.71264 40.5383 7.71046 40.4842 7.68579C40.43 7.66112 40.3878 7.61598 40.367 7.56028Z" fill="#91B3FA"/>
<path d="M46.1445 7.06733C45.3264 6.95866 45.0375 7.05096 45.0539 6.74786C45.0552 6.71827 45.0624 6.68925 45.0751 6.66248C45.0878 6.63572 45.1057 6.61176 45.1278 6.59201C45.1499 6.57225 45.1757 6.5571 45.2037 6.54744C45.2318 6.53778 45.2614 6.53381 45.291 6.53576C45.5936 6.55213 45.9008 6.58093 46.2041 6.62152C46.2609 6.63214 46.3113 6.66412 46.3452 6.71085C46.379 6.75759 46.3936 6.81551 46.386 6.87268C46.3783 6.92986 46.349 6.98192 46.3041 7.01813C46.2592 7.05435 46.2021 7.07196 46.1445 7.06733Z" fill="#91B3FA"/>
<path d="M54.078 11.9444C53.6109 11.2603 53.3509 11.1091 53.588 10.9193C53.611 10.9007 53.6375 10.8869 53.6659 10.8786C53.6943 10.8703 53.724 10.8677 53.7534 10.871C53.7828 10.8742 53.8113 10.8832 53.8372 10.8974C53.8631 10.9117 53.8859 10.9309 53.9044 10.954C54.0944 11.1909 54.2778 11.4384 54.4501 11.6911C54.4683 11.7154 54.4814 11.7432 54.4886 11.7728C54.4958 11.8023 54.497 11.833 54.492 11.8631C54.487 11.8931 54.476 11.9218 54.4596 11.9474C54.4432 11.973 54.4217 11.9951 54.3966 12.0122C54.3714 12.0293 54.3431 12.0412 54.3132 12.0471C54.2833 12.0529 54.2526 12.0527 54.2228 12.0464C54.193 12.04 54.1648 12.0277 54.14 12.0102C54.1151 11.9927 54.094 11.9703 54.078 11.9444Z" fill="url(#paint38_linear_6198_183)"/>
<path d="M46.174 29.9109C46.1176 29.5417 46.5205 29.7466 48.0736 29.2563C48.3566 29.1666 48.4935 29.5954 48.2092 29.6851C47.6286 29.8685 47.0347 30.0066 46.4327 30.0982C46.4034 30.103 46.3734 30.102 46.3445 30.0952C46.3156 30.0884 46.2883 30.0759 46.2643 30.0585C46.2402 30.0411 46.2198 30.0191 46.2043 29.9938C46.1888 29.9684 46.1785 29.9403 46.174 29.9109ZM50.5857 28.383C50.5703 28.3579 50.5599 28.3299 50.5553 28.3008C50.5506 28.2717 50.5518 28.2419 50.5586 28.2132C50.5655 28.1845 50.578 28.1574 50.5953 28.1336C50.6127 28.1097 50.6346 28.0895 50.6597 28.074C52.0543 27.2132 52.1487 26.7805 52.393 27.0652C52.4319 27.1106 52.4512 27.1695 52.4466 27.229C52.4421 27.2885 52.4141 27.3438 52.3687 27.3827C51.9061 27.778 51.4136 28.137 50.8955 28.4563C50.8704 28.4719 50.8424 28.4824 50.8132 28.4871C50.784 28.4919 50.7542 28.4908 50.7254 28.484C50.6966 28.4772 50.6694 28.4648 50.6455 28.4474C50.6215 28.4301 50.6012 28.4082 50.5857 28.383ZM54.043 25.2493C53.7365 25.0339 54.161 24.8886 54.8822 23.4274C55.0132 23.161 55.418 23.362 55.2857 23.6238C55.0165 24.1692 54.7057 24.6932 54.3562 25.191C54.3395 25.2154 54.3181 25.2363 54.2933 25.2525C54.2685 25.2686 54.2408 25.2797 54.2117 25.2852C54.1826 25.2906 54.1527 25.2902 54.1238 25.284C54.0949 25.2779 54.0674 25.2661 54.043 25.2493ZM55.9885 21.0072C55.6217 20.9293 55.9571 20.6288 56.0481 19.0034C56.0645 18.7062 56.5139 18.731 56.4975 19.0282C56.4632 19.6356 56.3823 20.2394 56.2558 20.8344C56.2497 20.8633 56.2379 20.8907 56.2211 20.9151C56.2043 20.9394 56.1829 20.9602 56.1581 20.9763C56.1332 20.9923 56.1055 21.0033 56.0764 21.0086C56.0473 21.0139 56.0174 21.0135 55.9885 21.0072ZM55.8484 16.1629C55.53 14.5564 55.1566 14.3149 55.5097 14.1859C55.5658 14.1654 55.6278 14.1681 55.6819 14.1932C55.7361 14.2184 55.778 14.264 55.7986 14.3201C56.0071 14.8917 56.1714 15.4784 56.2899 16.0752C56.2984 16.1324 56.2845 16.1907 56.2512 16.238C56.2179 16.2853 56.1677 16.3179 56.1109 16.3292C56.0542 16.3405 55.9952 16.3295 55.9463 16.2985C55.8975 16.2676 55.8624 16.219 55.8484 16.1629Z" fill="url(#paint39_linear_6198_183)"/>
<path d="M43.4615 30.1734C43.1582 30.1427 42.853 30.0995 42.5536 30.0425C42.5244 30.0373 42.4966 30.0264 42.4717 30.0104C42.4467 29.9944 42.4252 29.9736 42.4084 29.9493C42.3915 29.925 42.3796 29.8975 42.3734 29.8686C42.3672 29.8397 42.3668 29.8098 42.3721 29.7807C42.4278 29.473 42.7252 29.6425 43.5073 29.7217C43.5652 29.7297 43.6177 29.7598 43.6537 29.8057C43.6898 29.8516 43.7066 29.9097 43.7007 29.9677C43.6947 30.0258 43.6665 30.0793 43.6219 30.1169C43.5772 30.1545 43.5197 30.1734 43.4615 30.1695V30.1734Z" fill="url(#paint40_linear_6198_183)"/>
<path d="M44.3853 23.9078C44.341 23.9063 44.2974 23.8961 44.2571 23.8778C44.2167 23.8595 44.1804 23.8334 44.1501 23.801C44.1199 23.7686 44.0963 23.7306 44.0807 23.6891C44.0652 23.6477 44.0579 23.6035 44.0594 23.5593C44.0609 23.515 44.0711 23.4714 44.0895 23.4311C44.1078 23.3908 44.134 23.3545 44.1663 23.3242C44.1987 23.294 44.2368 23.2704 44.2783 23.2548C44.3198 23.2393 44.3639 23.2321 44.4082 23.2336C44.7566 23.2516 45.1059 23.233 45.4504 23.1779C46.0858 23.0764 46.695 22.8506 47.243 22.5137C47.7911 22.1767 48.2673 21.735 48.6444 21.214C51.1912 17.6947 48.1931 12.8183 43.8973 13.5076C42.7163 13.6988 41.6459 14.3145 40.8873 15.2391C40.1286 16.1636 39.7341 17.3332 39.7777 18.528C39.8747 20.9855 41.4396 21.4929 40.8795 21.9629C40.8456 21.9914 40.8064 22.013 40.7641 22.0264C40.7218 22.0397 40.6773 22.0446 40.6332 22.0408C40.589 22.037 40.546 22.0245 40.5067 22.004C40.4674 21.9836 40.4324 21.9556 40.4039 21.9217C39.612 20.9792 39.1544 19.8013 39.1026 18.5717C39.0508 17.3421 39.4077 16.1299 40.1176 15.1243C40.8275 14.1186 41.8505 13.3761 43.027 13.0125C44.2035 12.6489 45.4674 12.6846 46.6214 13.1142C47.7754 13.5438 48.7547 14.343 49.4065 15.3872C50.0583 16.4314 50.346 17.6618 50.2246 18.8865C50.1033 20.1112 49.5797 21.2614 48.7356 22.1575C47.8916 23.0537 46.7744 23.6454 45.5585 23.8404C45.1709 23.9038 44.7777 23.9264 44.3853 23.9078Z" fill="url(#paint41_linear_6198_183)"/>
<defs>
<linearGradient id="paint0_linear_6198_183" x1="105.45" y1="102.343" x2="178.578" y2="102.343" gradientUnits="userSpaceOnUse">
<stop stop-color="#006391"/>
<stop offset="0.4" stop-color="#0986DB"/>
<stop offset="1" stop-color="#006391"/>
</linearGradient>
<linearGradient id="paint1_linear_6198_183" x1="114.318" y1="104.402" x2="173.776" y2="104.402" gradientUnits="userSpaceOnUse">
<stop stop-color="#006391"/>
<stop offset="0.4" stop-color="#0986DB"/>
<stop offset="1" stop-color="#006391"/>
</linearGradient>
<linearGradient id="paint2_linear_6198_183" x1="109.22" y1="62.4072" x2="158.584" y2="62.4072" gradientUnits="userSpaceOnUse">
<stop stop-color="#006391"/>
<stop offset="0.4" stop-color="#0986DB"/>
<stop offset="1" stop-color="#006391"/>
</linearGradient>
<linearGradient id="paint3_linear_6198_183" x1="119.129" y1="63.909" x2="148.953" y2="63.909" gradientUnits="userSpaceOnUse">
<stop stop-color="#006391"/>
<stop offset="0.4" stop-color="#0986DB"/>
<stop offset="1" stop-color="#006391"/>
</linearGradient>
<linearGradient id="paint4_linear_6198_183" x1="30.6665" y1="81.0134" x2="136.589" y2="81.0134" gradientUnits="userSpaceOnUse">
<stop stop-color="#09005D"/>
<stop offset="1" stop-color="#1A0F91"/>
</linearGradient>
<linearGradient id="paint5_linear_6198_183" x1="36.2156" y1="76.1225" x2="131.041" y2="76.1225" gradientUnits="userSpaceOnUse">
<stop stop-color="#006391"/>
<stop offset="0.4" stop-color="#0986DB"/>
<stop offset="1" stop-color="#006391"/>
</linearGradient>
<linearGradient id="paint6_linear_6198_183" x1="70.5378" y1="-2.56176" x2="69.9451" y2="54.9672" gradientUnits="userSpaceOnUse">
<stop stop-color="#E1473D"/>
<stop offset="1" stop-color="#E9605A"/>
</linearGradient>
<linearGradient id="paint7_linear_6198_183" x1="9.26077" y1="100.331" x2="31.0906" y2="80.8904" gradientUnits="userSpaceOnUse">
<stop stop-color="#4F52FF"/>
<stop offset="1" stop-color="#4042E2"/>
</linearGradient>
<linearGradient id="paint8_linear_6198_183" x1="36.0683" y1="89.957" x2="57.6777" y2="61.8744" gradientUnits="userSpaceOnUse">
<stop stop-color="#FEBBBA"/>
<stop offset="1" stop-color="#FF928E"/>
</linearGradient>
<linearGradient id="paint9_linear_6198_183" x1="12.0723" y1="156.55" x2="7.27537" y2="156.55" gradientUnits="userSpaceOnUse">
<stop stop-color="#4F52FF"/>
<stop offset="1" stop-color="#4042E2"/>
</linearGradient>
<linearGradient id="paint10_linear_6198_183" x1="32.3429" y1="175.455" x2="25.4479" y2="94.8216" gradientUnits="userSpaceOnUse">
<stop stop-color="#FEBBBA"/>
<stop offset="1" stop-color="#FF928E"/>
</linearGradient>
<linearGradient id="paint11_linear_6198_183" x1="34.3596" y1="155.674" x2="26.5973" y2="155.674" gradientUnits="userSpaceOnUse">
<stop stop-color="#4F52FF"/>
<stop offset="1" stop-color="#4042E2"/>
</linearGradient>
<linearGradient id="paint12_linear_6198_183" x1="18.4566" y1="176.655" x2="11.5596" y2="95.9998" gradientUnits="userSpaceOnUse">
<stop stop-color="#FEBBBA"/>
<stop offset="1" stop-color="#FF928E"/>
</linearGradient>
<linearGradient id="paint13_linear_6198_183" x1="8.73371" y1="146.986" x2="30.6686" y2="97.157" gradientUnits="userSpaceOnUse">
<stop stop-color="#E1473D"/>
<stop offset="1" stop-color="#E9605A"/>
</linearGradient>
<linearGradient id="paint14_linear_6198_183" x1="13.1579" y1="95.7133" x2="30.4023" y2="123.32" gradientUnits="userSpaceOnUse">
<stop stop-color="#4F52FF"/>
<stop offset="1" stop-color="#4042E2"/>
</linearGradient>
<linearGradient id="paint15_linear_6198_183" x1="32.9729" y1="70.052" x2="30.7341" y2="91.9284" gradientUnits="userSpaceOnUse">
<stop stop-color="#FEBBBA"/>
<stop offset="1" stop-color="#FF928E"/>
</linearGradient>
<linearGradient id="paint16_linear_6198_183" x1="35.736" y1="83.8132" x2="28.4818" y2="61.9403" gradientUnits="userSpaceOnUse">
<stop stop-color="#FEBBBA"/>
<stop offset="1" stop-color="#FF928E"/>
</linearGradient>
<linearGradient id="paint17_linear_6198_183" x1="6.01646" y1="96.6879" x2="27.8469" y2="77.2474" gradientUnits="userSpaceOnUse">
<stop stop-color="#4F52FF"/>
<stop offset="1" stop-color="#4042E2"/>
</linearGradient>
<linearGradient id="paint18_linear_6198_183" x1="33.1184" y1="84.6812" x2="25.8642" y2="62.8083" gradientUnits="userSpaceOnUse">
<stop stop-color="#FEBBBA"/>
<stop offset="1" stop-color="#FF928E"/>
</linearGradient>
<linearGradient id="paint19_linear_6198_183" x1="37.4189" y1="90.9958" x2="59.0284" y2="62.9132" gradientUnits="userSpaceOnUse">
<stop stop-color="#FEBBBA"/>
<stop offset="1" stop-color="#FF928E"/>
</linearGradient>
<linearGradient id="paint20_linear_6198_183" x1="53.8146" y1="67.4696" x2="55.7904" y2="54.1591" gradientUnits="userSpaceOnUse">
<stop stop-color="#FEBBBA"/>
<stop offset="1" stop-color="#FF928E"/>
</linearGradient>
<linearGradient id="paint21_linear_6198_183" x1="5.89231" y1="103.302" x2="28.9218" y2="103.302" gradientUnits="userSpaceOnUse">
<stop stop-color="#FEBBBA"/>
<stop offset="1" stop-color="#FF928E"/>
</linearGradient>
<linearGradient id="paint22_linear_6198_183" x1="130.891" y1="-36.6252" x2="9.9733" y2="162.658" gradientUnits="userSpaceOnUse">
<stop stop-color="#E1473D"/>
<stop offset="1" stop-color="#E9605A"/>
</linearGradient>
<linearGradient id="paint23_linear_6198_183" x1="140.13" y1="-31.0195" x2="19.212" y2="168.264" gradientUnits="userSpaceOnUse">
<stop stop-color="#E1473D"/>
<stop offset="1" stop-color="#E9605A"/>
</linearGradient>
<linearGradient id="paint24_linear_6198_183" x1="65.675" y1="32.9039" x2="57.5331" y2="92.566" gradientUnits="userSpaceOnUse">
<stop stop-color="#E1473D"/>
<stop offset="1" stop-color="#E9605A"/>
</linearGradient>
<linearGradient id="paint25_linear_6198_183" x1="74.1702" y1="34.0628" x2="66.0284" y2="93.7249" gradientUnits="userSpaceOnUse">
<stop stop-color="#E1473D"/>
<stop offset="1" stop-color="#E9605A"/>
</linearGradient>
<linearGradient id="paint26_linear_6198_183" x1="83.2455" y1="35.3013" x2="75.1043" y2="94.9634" gradientUnits="userSpaceOnUse">
<stop stop-color="#E1473D"/>
<stop offset="1" stop-color="#E9605A"/>
</linearGradient>
<linearGradient id="paint27_linear_6198_183" x1="101.239" y1="37.7569" x2="93.0982" y2="97.4189" gradientUnits="userSpaceOnUse">
<stop stop-color="#E1473D"/>
<stop offset="1" stop-color="#E9605A"/>
</linearGradient>
<linearGradient id="paint28_linear_6198_183" x1="110.315" y1="38.9952" x2="102.174" y2="98.6573" gradientUnits="userSpaceOnUse">
<stop stop-color="#E1473D"/>
<stop offset="1" stop-color="#E9605A"/>
</linearGradient>
<linearGradient id="paint29_linear_6198_183" x1="91.7406" y1="36.4603" x2="83.5994" y2="96.123" gradientUnits="userSpaceOnUse">
<stop stop-color="#E1473D"/>
<stop offset="1" stop-color="#E9605A"/>
</linearGradient>
<linearGradient id="paint30_linear_6198_183" x1="42.983" y1="34.0587" x2="43.7559" y2="34.0587" gradientUnits="userSpaceOnUse">
<stop stop-color="#DAE3FE"/>
<stop offset="1" stop-color="#E9EFFD"/>
</linearGradient>
<linearGradient id="paint31_linear_6198_183" x1="15.7972" y1="50.4404" x2="45.026" y2="50.4404" gradientUnits="userSpaceOnUse">
<stop stop-color="#DAE3FE"/>
<stop offset="1" stop-color="#E9EFFD"/>
</linearGradient>
<linearGradient id="paint32_linear_6198_183" x1="12.122" y1="61.3637" x2="13.3948" y2="61.3637" gradientUnits="userSpaceOnUse">
<stop stop-color="#DAE3FE"/>
<stop offset="1" stop-color="#E9EFFD"/>
</linearGradient>
<linearGradient id="paint33_linear_6198_183" x1="5.24771" y1="41.6002" x2="39.7437" y2="41.6002" gradientUnits="userSpaceOnUse">
<stop stop-color="#4F52FF"/>
<stop offset="1" stop-color="#4042E2"/>
</linearGradient>
<linearGradient id="paint34_linear_6198_183" x1="18.6877" y1="41.6002" x2="26.3039" y2="41.6002" gradientUnits="userSpaceOnUse">
<stop stop-color="#DAE3FE"/>
<stop offset="1" stop-color="#E9EFFD"/>
</linearGradient>
<linearGradient id="paint35_linear_6198_183" x1="12.7804" y1="41.5308" x2="32.308" y2="41.5308" gradientUnits="userSpaceOnUse">
<stop stop-color="#DAE3FE"/>
<stop offset="1" stop-color="#E9EFFD"/>
</linearGradient>
<linearGradient id="paint36_linear_6198_183" x1="35.0639" y1="18.3782" x2="54.2358" y2="18.3782" gradientUnits="userSpaceOnUse">
<stop stop-color="#4F52FF"/>
<stop offset="1" stop-color="#4042E2"/>
</linearGradient>
<linearGradient id="paint37_linear_6198_183" x1="42.384" y1="18.3775" x2="46.915" y2="18.3775" gradientUnits="userSpaceOnUse">
<stop stop-color="#DAE3FE"/>
<stop offset="1" stop-color="#E9EFFD"/>
</linearGradient>
<linearGradient id="paint38_linear_6198_183" x1="53.4989" y1="11.4567" x2="54.4887" y2="11.4567" gradientUnits="userSpaceOnUse">
<stop stop-color="#DAE3FE"/>
<stop offset="1" stop-color="#E9EFFD"/>
</linearGradient>
<linearGradient id="paint39_linear_6198_183" x1="46.1687" y1="22.1391" x2="56.4975" y2="22.1391" gradientUnits="userSpaceOnUse">
<stop stop-color="#DAE3FE"/>
<stop offset="1" stop-color="#E9EFFD"/>
</linearGradient>
<linearGradient id="paint40_linear_6198_183" x1="42.3682" y1="29.8906" x2="43.7091" y2="29.8906" gradientUnits="userSpaceOnUse">
<stop stop-color="#DAE3FE"/>
<stop offset="1" stop-color="#E9EFFD"/>
</linearGradient>
<linearGradient id="paint41_linear_6198_183" x1="39.0978" y1="18.3388" x2="50.2506" y2="18.3388" gradientUnits="userSpaceOnUse">
<stop stop-color="#DAE3FE"/>
<stop offset="1" stop-color="#E9EFFD"/>
</linearGradient>
</defs>
</svg>
