<svg width="27" height="27" viewBox="0 0 27 27" fill="none" xmlns="http://www.w3.org/2000/svg">
<g clip-path="url(#clip0_1066_321)">
<path d="M15.75 16.0335V18.3847C14.7318 18.0248 13.6421 17.9143 12.5723 18.0628C11.5026 18.2112 10.4841 18.6141 9.60236 19.2377C8.72062 19.8613 8.00139 20.6874 7.50506 21.6466C7.00873 22.6058 6.74979 23.67 6.75 24.75L4.5 24.7489C4.49965 23.3751 4.81379 22.0195 5.41834 20.7859C6.02289 19.5524 6.9018 18.4735 7.98774 17.6322C9.07368 16.7908 10.3378 16.2091 11.6833 15.9318C13.0288 15.6545 14.4199 15.6889 15.75 16.0324V16.0335ZM20.25 19.125V15.75H22.5V19.125H25.875V21.375H22.5V24.75H20.25V21.375H16.875V19.125H20.25Z" fill="#1F7F50"/>
<path d="M14.75 13.25C17.7885 13.25 20.25 10.7885 20.25 7.75C20.25 4.71147 17.7885 2.25 14.75 2.25C11.7115 2.25 9.25 4.71147 9.25 7.75C9.25 10.7885 11.7115 13.25 14.75 13.25Z" stroke="#2CB070" stroke-width="2"/>
</g>
<defs>
<clipPath id="clip0_1066_321">
<rect width="27" height="27" fill="white"/>
</clipPath>
</defs>
</svg>
