<svg width="12" height="12" viewBox="0 0 12 12" fill="none" xmlns="http://www.w3.org/2000/svg">
<path d="M9.48725 7.93842C8.96562 7.29999 8.59736 6.97499 8.59736 5.21492C8.59736 3.60312 7.77429 3.02888 7.09687 2.74999C7.00689 2.71303 6.92218 2.62812 6.89476 2.5357C6.77593 2.13128 6.44281 1.77499 6 1.77499C5.55718 1.77499 5.22386 2.13148 5.10625 2.5361C5.07882 2.62954 4.99412 2.71303 4.90414 2.74999C4.2259 3.02929 3.40365 3.60149 3.40365 5.21492C3.40264 6.97499 3.03437 7.29999 2.51275 7.93842C2.29662 8.20288 2.48593 8.59999 2.86395 8.59999H9.13807C9.51406 8.59999 9.70215 8.20167 9.48725 7.93842Z" stroke="#252B5C" stroke-width="0.8" stroke-linecap="round" stroke-linejoin="round"/>
<path d="M7.3 8.59998V8.92498C7.3 9.26976 7.16303 9.60042 6.91924 9.84421C6.67544 10.088 6.34478 10.225 6 10.225C5.65522 10.225 5.32456 10.088 5.08076 9.84421C4.83696 9.60042 4.7 9.26976 4.7 8.92498V8.59998" stroke="#252B5C" stroke-width="0.8" stroke-linecap="round" stroke-linejoin="round"/>
</svg>
