<svg width="50" height="25" viewBox="0 0 50 25" fill="none" xmlns="http://www.w3.org/2000/svg">
<path d="M12.4604 9.77315H18.6732C19.0264 9.77315 19.3649 9.63276 19.6146 9.38308C19.8643 9.1334 20.0047 8.79489 20.0047 8.44168V3.51417C20.0101 3.15757 19.8721 2.81395 19.6218 2.55983C19.3717 2.30571 19.0298 2.16258 18.6732 2.16258H14.8019C14.2438 2.17146 13.7215 2.43892 13.3888 2.88705C13.2764 3.0452 13.4144 2.79005 11.0324 7.43708V7.43674C10.7789 7.93441 10.8018 8.52775 11.0932 9.00422C11.3845 9.48071 11.902 9.77172 12.4605 9.77309L12.4604 9.77315ZM18.6732 3.18293C18.8429 3.18293 18.9816 3.31888 18.9844 3.48898V8.44176C18.9844 8.61357 18.845 8.75293 18.6732 8.75293H14.7506C14.7506 2.75942 14.7506 3.18298 14.8015 3.18298L18.6732 3.18293ZM11.9402 7.90102L13.7307 4.41227V8.75296H12.4605C12.2572 8.75194 12.0687 8.64571 11.9628 8.4722C11.8569 8.29868 11.8484 8.08247 11.9402 7.9011L11.9402 7.90102Z" fill="white"/>
<path d="M11.8841 16.9548C11.2929 16.9548 10.7259 17.1894 10.3078 17.6075C9.88977 18.0256 9.65509 18.5926 9.65509 19.1838C9.65509 19.7747 9.88975 20.3417 10.3078 20.7598C10.7259 21.1778 11.2929 21.4125 11.8841 21.4125C12.4753 21.4125 13.042 21.1779 13.4601 20.7598C13.8782 20.3417 14.1132 19.7747 14.1132 19.1838C14.1132 18.5926 13.8782 18.0256 13.4601 17.6075C13.042 17.1894 12.4753 16.9548 11.8841 16.9548ZM11.8841 20.3926C11.395 20.3926 10.9544 20.0979 10.7672 19.6463C10.5801 19.1944 10.6836 18.6746 11.0292 18.3289C11.3749 17.9832 11.8951 17.8797 12.3466 18.0669C12.7985 18.2541 13.093 18.6947 13.093 19.1838C13.093 19.8512 12.5516 20.3926 11.8842 20.3926L11.8841 20.3926Z" fill="white"/>
<path d="M40.6315 16.9548C40.0402 16.9548 39.4732 17.1894 39.0555 17.6075C38.6374 18.0256 38.4024 18.5926 38.4024 19.1838C38.4024 19.7747 38.6374 20.3417 39.0555 20.7598C39.4732 21.1779 40.0403 21.4125 40.6315 21.4125C41.2227 21.4125 41.7897 21.1779 42.2074 20.7598C42.6255 20.3417 42.8605 19.7747 42.8605 19.1838C42.8605 18.5926 42.6255 18.0256 42.2074 17.6075C41.7897 17.1894 41.2227 16.9548 40.6315 16.9548ZM40.6315 20.3926C40.1427 20.3926 39.7017 20.0979 39.5146 19.6463C39.3274 19.1944 39.4309 18.6746 39.7765 18.3289C40.1226 17.9832 40.6424 17.8797 41.0939 18.0669C41.5458 18.2541 41.8403 18.6947 41.8403 19.1838C41.8403 19.5042 41.7129 19.8116 41.4864 20.0384C41.2596 20.2652 40.9522 20.3926 40.6315 20.3926L40.6315 20.3926Z" fill="white"/>
<path d="M48.5484 16.5569L48.1505 12.0325C48.0593 11.0443 47.4868 10.1645 46.6203 9.68109L46.554 8.95184V8.9515C46.5127 8.47672 46.3009 8.03266 45.9576 7.70169C45.6143 7.37073 45.1631 7.175 44.687 7.15108L34.9495 6.73266L32.1951 2.03503C31.5277 0.905457 30.314 0.211695 29.0021 0.208984H11.7507C11.0723 0.210009 10.4073 0.398558 9.82874 0.753108C9.25012 1.10732 8.78049 1.61455 8.47103 2.21845L5.0741 8.82406V8.18635C5.07273 7.79218 4.91527 7.41475 4.63586 7.1367C4.3568 6.85832 3.97869 6.70222 3.58455 6.70222H1.79952C1.40535 6.70222 1.02723 6.85832 0.747857 7.1367C0.468796 7.41474 0.311331 7.79217 0.309967 8.18635V14.0012C0.309967 14.3964 0.46675 14.7752 0.746152 15.0546C1.02555 15.3337 1.40435 15.4908 1.79956 15.4908C3.59011 15.4908 3.75301 15.5216 4.06413 15.4092V16.4701H3.51317C2.87137 16.4756 2.35282 16.9961 2.35011 17.6382V18.8624C2.35319 19.5063 2.87442 20.0275 3.51825 20.0302H6.98172C7.24678 21.6314 8.27595 23.0025 9.73885 23.7048C11.2017 24.407 12.9154 24.3524 14.3302 23.5576C15.7454 22.7631 16.6843 21.3288 16.8465 19.7142H18.1114C18.3314 19.9281 18.6258 20.0486 18.9329 20.0507H33.582C33.889 20.0486 34.1831 19.9281 34.4031 19.7142H35.6734C35.8353 21.3288 36.7743 22.7631 38.1893 23.5576C39.6045 24.3524 41.3181 24.407 42.7811 23.7048C44.2439 23.0025 45.2728 21.6314 45.5382 20.0302C45.681 20.061 45.5074 20.0302 48.0887 20.0302C48.4015 20.0343 48.7032 19.9134 48.9262 19.6941C49.1492 19.4748 49.2756 19.1753 49.277 18.8624V17.6382C49.2766 17.1627 48.988 16.7351 48.5477 16.5568L48.5484 16.5569ZM4.05461 14.0064H4.05426C4.05426 14.1311 4.00474 14.2503 3.91695 14.3384C3.82883 14.4262 3.70962 14.4757 3.58495 14.4757H1.79991C1.67456 14.4757 1.55432 14.4255 1.4662 14.3363C1.37808 14.2475 1.32923 14.1266 1.3306 14.0013V8.18639C1.33333 7.92919 1.54271 7.7222 1.79991 7.7222H3.5853H3.58495C3.84216 7.7222 4.05153 7.92919 4.05427 8.18639L4.05461 14.0064ZM44.6459 8.17106C45.1265 8.19018 45.5179 8.5642 45.5589 9.04343L45.5845 9.3341C45.3447 9.30336 43.0955 9.17083 36.1329 8.73738L35.5717 7.77858L44.6459 8.17106ZM5.09953 12.6955C5.11764 11.5666 5.39875 10.4575 5.921 9.45671L9.38964 2.68785H9.3893C9.61371 2.24791 9.95562 1.87868 10.3768 1.62115C10.7983 1.36361 11.2826 1.228 11.7765 1.22903H29.0017C29.9516 1.22937 30.8301 1.73182 31.3124 2.55018C34.5567 8.06417 33.2812 5.9013 35.3931 9.48711H35.3928C35.4789 9.63296 35.6319 9.72689 35.801 9.73714L45.2936 10.3287C45.766 10.3544 46.2128 10.5508 46.5517 10.8807C46.8902 11.211 47.0975 11.6527 47.1351 12.1244L47.5228 16.4702H47.0128C46.2911 14.7722 44.9224 13.4323 43.2098 12.7464C41.4975 12.0605 39.582 12.0854 37.8882 12.816C36.194 13.5467 34.8612 14.9222 34.1842 16.6386C33.8222 16.4244 33.6128 16.4702 32.6133 16.4702L33.6336 14.8634H33.6333C33.925 14.4064 34.079 13.8752 34.0773 13.3332C34.0773 8.91091 34.108 9.15584 34.0059 8.98743C33.1134 7.4572 34.4394 9.7218 30.4966 3.0093H30.4963C30.3409 2.74288 30.1171 2.52257 29.848 2.37091C29.5792 2.21959 29.2748 2.1424 28.966 2.14718H22.4984C22.1562 2.15128 21.8296 2.29098 21.5902 2.53588C21.3511 2.78079 21.2192 3.11074 21.2233 3.45297C21.2233 16.9548 21.1775 16.118 21.3203 16.4704C18.7698 16.4704 18.7138 16.4144 18.3518 16.6388H18.3514C17.6758 14.9204 16.3426 13.5428 14.6475 12.8109C12.9522 12.0792 11.0351 12.0543 9.32141 12.7412C7.60737 13.4281 6.23839 14.7705 5.51804 16.4704H5.07435L5.09953 12.6955ZM44.9826 16.7762C42.6465 12.5629 36.2043 13.7922 35.6735 18.6685H34.7502V18.5766C34.9224 16.8735 35.8244 15.329 37.2232 14.3418C38.6215 13.3547 40.3793 13.0223 42.0416 13.4305C43.7041 13.8387 45.1079 14.9475 45.8901 16.4702H45.7576C45.4703 16.4739 45.1947 16.5829 44.9822 16.7762L44.9826 16.7762ZM10.1746 14.5065C9.04884 14.9194 8.11059 15.7255 7.5326 16.7762C7.31878 16.5863 7.04313 16.4811 6.75724 16.4804H6.62949C7.41339 14.9607 8.81658 13.8551 10.4773 13.4483C12.138 13.0415 13.8933 13.3738 15.2907 14.3589C16.6877 15.3444 17.5901 16.8861 17.7647 18.5869V18.6787H16.8414C16.6863 17.1489 15.8331 15.7765 14.5296 14.9605C13.2258 14.1448 11.6184 13.9771 10.1746 14.5065L10.1746 14.5065ZM18.8153 18.9493C18.8153 18.6176 18.7845 18.9951 18.7845 17.6384H18.7849C18.7849 17.5567 18.8508 17.4905 18.9328 17.4905H33.5819C33.6635 17.4905 33.7298 17.5567 33.7298 17.6384V18.9391C33.7062 18.9845 33.6587 19.0122 33.6075 19.0104C17.9021 19.0104 18.8815 19.046 18.815 18.9493L18.8153 18.9493ZM22.2429 15.9449V9.7423C22.4318 9.78807 21.6766 9.77304 32.2707 9.77304C32.5693 9.77406 32.8586 9.6692 33.0871 9.4769V13.3482C33.0871 14.0522 32.7913 14.3377 31.7556 15.9444V15.9448C31.5397 16.2679 31.1749 16.4599 30.7866 16.4547H22.7529C22.6176 16.4547 22.4878 16.4011 22.3922 16.3055C22.2965 16.2098 22.2426 16.08 22.2426 15.9448L22.2429 15.9449ZM32.2707 8.7528H22.4974C22.3481 8.7528 22.2272 8.63189 22.2272 8.48228V3.45298C22.2272 3.30372 22.3481 3.18281 22.4974 3.18281H29.0008C29.2587 3.18041 29.4982 3.3167 29.6283 3.53974L32.4695 8.37535C32.5152 8.45255 32.5159 8.54819 32.4719 8.62607C32.4274 8.70429 32.3448 8.75245 32.2549 8.75279L32.2707 8.7528ZM3.5129 19.0106C3.43332 19.0079 3.37013 18.9423 3.37013 18.8627V17.6385C3.37013 17.5569 3.43639 17.4906 3.51803 17.4906H6.76229C6.84392 17.4906 6.91019 17.5569 6.91019 17.6385V18.8627C6.91019 18.9443 6.84392 19.0106 6.76229 19.0106H3.5129ZM11.8834 23.1422C10.5116 23.1408 9.23832 22.4294 8.51798 21.2615C7.79795 20.094 7.73408 18.6369 8.34856 17.4103C8.96338 16.1841 10.1691 15.3633 11.5354 15.2413C12.902 15.1194 14.2341 15.7137 15.0559 16.8122C15.1366 16.9092 15.2083 17.0134 15.2701 17.123C15.7586 17.9281 15.9444 18.8804 15.7944 19.8099C15.6445 20.7396 15.1687 21.585 14.452 22.1957C13.7354 22.8061 12.8248 23.1418 11.8834 23.1422L11.8834 23.1422ZM40.6316 23.1422C39.4935 23.1415 38.4108 22.6507 37.6597 21.7954C36.9089 20.9398 36.5625 19.8027 36.7091 18.6739C36.788 17.9989 37.0469 17.3574 37.4588 16.8171C38.281 15.7189 39.6131 15.1247 40.9794 15.2466C42.346 15.3685 43.5518 16.1893 44.1666 17.4156C44.781 18.6421 44.7168 20.0992 43.9968 21.2668C43.2768 22.4345 42.0034 23.1461 40.6317 23.1475L40.6316 23.1422ZM48.2828 18.8627C48.2828 18.9444 48.2165 19.0106 48.1349 19.0106H45.7579C45.6762 19.0106 45.61 18.9444 45.61 18.8627V18.6738C46.0383 18.6738 46.3191 18.6738 45.61 18.6738V17.6536V17.6539C45.61 17.5719 45.6762 17.5057 45.7579 17.5057H48.1093C48.1909 17.5057 48.2572 17.5719 48.2572 17.6539L48.2828 18.8627Z" fill="white"/>
<path d="M25.4166 10.9458H23.9475C23.6657 10.9458 23.4375 11.1743 23.4375 11.4561C23.4375 11.7375 23.6657 11.966 23.9475 11.966H25.4166C25.6984 11.966 25.9266 11.7375 25.9266 11.4561C25.9266 11.1743 25.6984 10.9458 25.4166 10.9458Z" fill="white"/>
</svg>
