<svg width="28" height="28" viewBox="0 0 28 28" fill="none" xmlns="http://www.w3.org/2000/svg">
<path d="M12.552 0.606989C11.5734 1.44154 11.701 2.3899 12.9349 3.56586L13.9987 4.59009L15.0624 3.56586C15.6581 2.99685 16.1261 2.23816 16.1261 1.85882C16.1261 0.986332 15.0198 4.1008e-05 13.9987 4.1008e-05C13.5732 4.1008e-05 12.8924 0.265581 12.552 0.606989ZM15.0624 1.89675C15.0624 2.57957 14.8071 2.88305 14.0838 2.95891C13.0626 3.11065 12.4669 2.2761 12.8924 1.28981C13.02 0.948398 13.5306 0.758726 14.0838 0.834595C14.8071 0.910463 15.0624 1.21394 15.0624 1.89675Z" fill="white"/>
<path d="M13.5732 5.69012C13.5732 5.87979 13.786 6.06946 13.9987 6.06946C14.254 6.06946 14.4242 5.87979 14.4242 5.69012C14.4242 5.46251 14.254 5.31077 13.9987 5.31077C13.786 5.31077 13.5732 5.46251 13.5732 5.69012Z" fill="white"/>
<path d="M0.638237 6.29713C-0.212746 7.05582 -0.212746 8.11798 0.638237 8.87666C1.48922 9.63535 2.68059 9.63535 3.53158 8.87666C3.99962 8.49732 4.21236 8.45939 4.21236 8.76286C4.21236 9.0284 4.29746 9.1422 4.42511 9.06634C4.7655 8.76286 3.82942 6.33507 3.27628 5.99366C2.4253 5.53845 1.36157 5.65225 0.638237 6.29713ZM3.14863 7.5869C3.14863 8.26972 2.89334 8.57319 2.17001 8.64906C1.14883 8.8008 0.553139 7.96624 0.97863 6.97995C1.10628 6.63854 1.61687 6.44887 2.17001 6.52474C2.89334 6.60061 3.14863 6.90408 3.14863 7.5869Z" fill="white"/>
<path d="M24.721 5.99366C24.1678 6.33507 23.2318 8.76286 23.5721 9.06634C23.6998 9.1422 23.7849 9.0284 23.7849 8.76286C23.7849 8.45939 23.9976 8.49732 24.4657 8.87666C25.3167 9.63535 26.508 9.63535 27.359 8.87666C29.1461 7.32136 26.8484 4.8177 24.721 5.99366ZM26.9761 7.5869C26.9761 8.26972 26.7208 8.57319 25.9974 8.64906C25.4443 8.72493 24.9337 8.53526 24.8061 8.19385C24.3806 7.20756 24.9763 6.373 25.9974 6.52474C26.7208 6.60061 26.9761 6.90408 26.9761 7.5869Z" fill="white"/>
<path d="M10.9776 7.20741C8.85017 8.1937 8.21193 8.95239 8.89271 9.67314C9.14801 9.97662 9.4033 11.0008 9.4033 11.9492C9.4033 13.201 9.70115 14.1115 10.467 15.0977L11.4882 16.5013L10.0841 16.9945C7.87154 17.7911 6.76526 18.9291 6.76526 20.3706V21.6224H13.9986H21.232V20.3706C21.232 18.8912 19.998 17.6773 17.9131 17.0324L16.509 16.6151L17.4451 15.2115C18.5514 13.6183 19.0194 9.33173 18.1684 8.45924C17.4451 7.66263 14.5943 6.44873 13.488 6.44873C12.9349 6.48666 11.8286 6.79014 10.9776 7.20741ZM15.7431 7.8523C17.2749 8.53511 17.828 8.99032 17.828 9.74901C17.828 10.0525 17.4876 9.93868 16.977 9.48347C16.2537 8.83859 16.041 8.80065 14.9772 9.2938C14.339 9.59727 13.2753 9.86281 12.6796 9.86281C12.0413 9.86281 11.2755 10.1284 10.9776 10.4698C10.467 11.0008 10.3819 11.0008 10.1266 10.356C9.5735 9.14206 9.70115 8.80065 11.1478 8.00403C12.8072 7.05568 13.8284 7.01774 15.7431 7.8523ZM16.8919 11.3802C16.977 12.1009 17.2749 12.8217 17.5302 12.9734C17.8706 13.1631 17.9131 13.3907 17.6153 13.5424C17.36 13.7321 16.9345 14.3011 16.6367 14.9081C15.6155 16.9945 12.3817 16.9945 11.3606 14.9081C11.0627 14.3011 10.6372 13.6942 10.3819 13.5424C10.0841 13.3148 10.1266 13.1631 10.5096 13.0114C10.7649 12.9355 11.0202 12.5182 11.0202 12.1389C11.0202 11.2664 11.5308 10.9629 13.7859 10.3939C16.2963 9.74901 16.7643 9.90075 16.8919 11.3802ZM15.1474 17.6393C15.0623 17.829 14.5517 18.0187 13.9986 18.0187C13.4455 18.0187 12.9349 17.829 12.8498 17.6393C12.8072 17.4117 13.3178 17.26 13.9986 17.26C14.7219 17.26 15.2325 17.4117 15.1474 17.6393ZM12.2966 18.2084C13.4029 19.1946 14.6368 19.1567 15.7431 18.1704C16.2537 17.7152 16.8919 17.4876 17.4025 17.6393C18.7641 18.0187 20.381 19.3843 20.381 20.143C20.381 20.8258 19.998 20.8638 13.9561 20.8638C7.57369 20.8638 7.57369 20.8638 7.70134 20.0292C7.82899 19.2705 10.2117 17.4497 11.0627 17.4497C11.2755 17.4497 11.8286 17.7911 12.2966 18.2084Z" fill="white"/>
<path d="M12.2968 13.2769C12.2968 13.4666 12.5095 13.6562 12.7222 13.6562C12.9775 13.6562 13.1477 13.4666 13.1477 13.2769C13.1477 13.0493 12.9775 12.8976 12.7222 12.8976C12.5095 12.8976 12.2968 13.0493 12.2968 13.2769Z" fill="white"/>
<path d="M14.8496 13.2769C14.8496 13.4666 15.0624 13.6562 15.2751 13.6562C15.5304 13.6562 15.7006 13.4666 15.7006 13.2769C15.7006 13.0493 15.5304 12.8976 15.2751 12.8976C15.0624 12.8976 14.8496 13.0493 14.8496 13.2769Z" fill="white"/>
<path d="M5.48877 9.48357C5.48877 9.67324 5.70152 9.86292 5.91426 9.86292C6.16956 9.86292 6.33975 9.67324 6.33975 9.48357C6.33975 9.25597 6.16956 9.10423 5.91426 9.10423C5.70152 9.10423 5.48877 9.25597 5.48877 9.48357Z" fill="white"/>
<path d="M21.6575 9.48357C21.6575 9.67324 21.8702 9.86292 22.083 9.86292C22.3383 9.86292 22.5085 9.67324 22.5085 9.48357C22.5085 9.25597 22.3383 9.10423 22.083 9.10423C21.8702 9.10423 21.6575 9.25597 21.6575 9.48357Z" fill="white"/>
<path d="M5.48877 18.9671C5.48877 19.1568 5.70152 19.3464 5.91426 19.3464C6.16956 19.3464 6.33975 19.1568 6.33975 18.9671C6.33975 18.7395 6.16956 18.5878 5.91426 18.5878C5.70152 18.5878 5.48877 18.7395 5.48877 18.9671Z" fill="white"/>
<path d="M21.6575 18.9671C21.6575 19.1568 21.8702 19.3464 22.083 19.3464C22.3383 19.3464 22.5085 19.1568 22.5085 18.9671C22.5085 18.7395 22.3383 18.5878 22.083 18.5878C21.8702 18.5878 21.6575 18.7395 21.6575 18.9671Z" fill="white"/>
<path d="M0.638225 19.9534C-0.680798 21.0914 0.255283 23.1399 2.08489 23.1399C3.10607 23.1399 4.21235 22.1536 4.21235 21.2432C4.21235 20.3328 3.10607 19.3465 2.08489 19.3465C1.6594 19.3465 0.978617 19.612 0.638225 19.9534ZM3.14862 21.2432C3.14862 21.926 2.89333 22.2295 2.16999 22.3053C1.14881 22.4571 0.553126 21.6225 0.978617 20.6362C1.10626 20.2948 1.61685 20.1052 2.16999 20.181C2.89333 20.2569 3.14862 20.5604 3.14862 21.2432Z" fill="white"/>
<path d="M24.4659 19.9534C23.1468 21.0914 24.0829 23.1399 25.9125 23.1399C26.338 23.1399 27.0188 22.8744 27.3592 22.5329C28.6782 21.3949 27.7421 19.3465 25.9125 19.3465C25.487 19.3465 24.8063 19.612 24.4659 19.9534ZM26.9763 21.2432C26.9763 21.926 26.721 22.2295 25.9976 22.3053C24.9765 22.4571 24.3808 21.6225 24.8063 20.6362C24.9339 20.2948 25.4445 20.1052 25.9976 20.181C26.721 20.2569 26.9763 20.5604 26.9763 21.2432Z" fill="white"/>
<path d="M13.5732 22.3812C13.5732 22.5708 13.786 22.7605 13.9987 22.7605C14.254 22.7605 14.4242 22.5708 14.4242 22.3812C14.4242 22.1535 14.254 22.0018 13.9987 22.0018C13.786 22.0018 13.5732 22.1535 13.5732 22.3812Z" fill="white"/>
<path d="M12.85 24.5435C11.7011 25.7194 11.616 26.6298 12.5521 27.4644C13.8286 28.6024 16.1262 27.8058 16.1262 26.2126C16.1262 25.6436 14.3392 23.4813 13.9137 23.5572C13.8286 23.5572 13.3605 24.0124 12.85 24.5435ZM15.0625 26.1746C15.0625 26.8574 14.8072 27.1609 14.0839 27.2368C13.0627 27.3885 12.467 26.554 12.8925 25.5677C13.0202 25.2263 13.5307 25.0366 14.0839 25.1125C14.8072 25.1883 15.0625 25.4918 15.0625 26.1746Z" fill="white"/>
</svg>
