<svg width="360" height="47" viewBox="0 0 360 47" fill="none" xmlns="http://www.w3.org/2000/svg">
<g style="mix-blend-mode:multiply">
<path d="M478.534 13.4273C472.874 -4.15331 448.201 -13.77 428.821 -11.6032C409.441 -9.43643 393.772 0.813623 377.415 9.05918C361.058 17.3047 341.359 23.8055 321.776 17.9467C296.705 10.4351 279.922 -14.8842 254.653 -21.4919C234.965 -26.635 216.2 -18.5796 203.606 -7.55572C196.489 -1.31924 191.946 7.20956 185.538 14.0039C156.471 44.8316 173.477 87.6345 143.556 102.599C111.134 118.794 84.33 107.75 72.3719 98.3035C57.0813 86.2201 25.3926 52.7658 48.4675 17.5937C57.8553 3.34092 66.7165 -11.6235 70.7671 -28.2437C76.8272 -53.1301 61.958 -84.7938 33.8702 -96.6071C14.6241 -104.707 -8.53545 -103.405 -24.9055 -115.983C-35.9073 -124.437 -41.124 -137.706 -40.6245 -149.697C-40.125 -161.689 -34.5998 -172.508 -27.5141 -182.001" stroke="#ECECEC" stroke-opacity="0.69" stroke-width="0.5" stroke-miterlimit="10"/>
<path d="M478.113 14.4923C471.531 -3.39126 446.613 -13.7534 426.508 -11.8205C406.903 -9.93231 390.909 0.3638 374.698 8.94774C358.703 17.4563 339.774 24.3958 320.64 19.405C296.177 13.0037 279.085 -10.7176 253.909 -17.1758C233.894 -22.2863 214.96 -15.3362 201.595 -5.06997C193.921 0.829278 188.566 9.14889 181.783 16.1194C153.028 45.6681 168.899 87.2331 139.647 101.924C108.174 117.709 81.8559 107.486 69.7409 98.3067C54.4023 86.6724 24.0029 54.3843 45.2746 20.0358C54.0459 5.87053 62.2981 -9.14296 66.2144 -25.6323C72.0456 -49.9022 58.0864 -80.7595 31.0614 -92.4677C12.3806 -100.557 -10.1714 -100.141 -26.4112 -112.534C-37.5372 -120.999 -43.127 -133.976 -43.3619 -145.838C-43.5916 -157.83 -38.999 -168.944 -32.5524 -178.811" stroke="#ECECEC" stroke-opacity="0.69" stroke-width="0.5" stroke-miterlimit="10"/>
<path d="M477.694 15.5513C470.176 -2.63542 445.006 -13.7645 424.209 -12.0514C404.371 -10.4259 388.054 -0.102491 372.04 8.85589C356.397 17.6165 338.245 25.0109 319.559 20.8935C295.7 15.6077 278.302 -6.57179 253.251 -12.8153C232.901 -17.8907 213.777 -12.0492 199.663 -2.54276C191.411 3.01608 185.258 11.1322 178.102 18.2736C149.719 46.5767 164.387 86.8677 135.813 101.282C105.277 116.653 79.4717 107.275 67.1981 98.3488C51.7862 87.1523 22.6604 56.049 42.1549 22.5166C50.3239 8.45789 57.9593 -6.62089 61.75 -22.9818C67.3459 -46.6382 54.0121 -76.1865 28.3322 -88.2868C10.3741 -96.7529 -11.7278 -96.8363 -27.8349 -109.049C-39.0916 -117.527 -45.075 -130.185 -46.0127 -141.952C-46.9669 -153.956 -43.314 -165.349 -37.4929 -175.604" stroke="#ECECEC" stroke-opacity="0.69" stroke-width="0.5" stroke-miterlimit="10"/>
<path d="M477.273 16.6159C468.84 -1.87082 443.409 -13.7456 421.897 -12.2877C401.834 -10.9086 385.194 -0.576638 369.337 8.782C354.045 17.7947 336.658 25.6384 318.432 22.3999C295.204 18.241 277.476 -2.38109 252.486 -8.47043C231.801 -13.5108 212.462 -8.78911 197.616 -0.028644C188.78 5.18695 181.849 13.1027 174.306 20.4146C146.371 47.5062 159.78 86.5109 131.885 100.63C102.28 115.583 76.9921 107.04 64.4981 98.3528C49.0556 87.6004 21.1771 57.6383 38.8947 24.973C46.4614 11.0208 53.4315 -4.15116 57.1402 -20.3451C62.4248 -43.4219 49.9233 -71.8869 25.4536 -84.1279C8.13566 -92.7854 -13.3979 -93.5818 -29.404 -105.577C-40.7669 -114.091 -47.1651 -126.431 -48.8001 -138.083C-50.4954 -150.113 -47.7672 -161.785 -42.5828 -172.418" stroke="#ECECEC" stroke-opacity="0.69" stroke-width="0.5" stroke-miterlimit="10"/>
<path d="M476.852 17.6808C467.493 -1.11694 441.833 -13.7555 419.615 -12.5043C399.349 -11.3685 382.361 -1.03925 366.676 8.68252C351.735 17.9473 335.129 26.2406 317.379 23.8949C294.73 20.8402 276.727 1.81157 251.831 -4.11476C230.818 -9.11721 211.237 -5.52671 195.687 2.49378C186.254 7.36048 178.557 15.0869 170.629 22.564C143.137 48.4546 155.242 86.1212 128.028 99.9908C99.3535 114.545 74.5921 106.815 61.9222 98.3866C46.4086 88.0667 19.7522 59.2345 35.7616 27.4352C42.7015 13.5596 49.0413 -1.61372 52.6497 -17.7189C57.6792 -40.1719 45.991 -67.613 22.7047 -79.9684C6.01406 -88.823 -14.9629 -90.3059 -30.8498 -102.108C-42.326 -110.641 -49.1424 -122.69 -51.4801 -134.198C-53.9205 -146.261 -52.1097 -158.177 -47.5589 -169.214" stroke="#ECECEC" stroke-opacity="0.69" stroke-width="0.5" stroke-miterlimit="10"/>
<path d="M476.433 18.74C466.148 -0.349988 440.249 -13.7498 417.275 -12.728C396.775 -11.8361 379.46 -1.50647 363.947 8.59717C349.362 18.1034 333.532 26.8892 316.245 25.3984C294.209 23.4942 275.894 5.99931 251.091 0.241275C231.009 -4.44047 210.648 -2.75915 193.681 4.98193C183.639 9.49408 175.202 17.0371 166.88 24.6819C139.892 49.4426 150.681 85.7279 124.126 99.3128C96.3875 113.438 72.1451 106.557 59.2827 98.3731C43.7321 88.4945 18.2824 60.7409 32.5324 29.8547C38.8945 16.0647 44.5873 0.825426 48.0734 -15.1245C52.8486 -36.9724 41.9118 -63.4044 19.8596 -75.8517C3.79708 -84.9221 -16.6265 -87.0675 -32.3854 -98.6795C-43.9836 -107.228 -51.2181 -118.987 -54.2334 -130.39C-57.4229 -142.495 -56.5247 -154.665 -52.6035 -166.097" stroke="#ECECEC" stroke-opacity="0.69" stroke-width="0.5" stroke-miterlimit="10"/>
<path d="M476.013 19.8053C464.799 0.409567 438.667 -13.73 414.979 -12.982C394.257 -12.3231 376.6 -2.01218 361.272 8.479C347.049 18.2295 331.98 27.4752 315.158 26.8662C293.73 26.0723 275.114 10.1408 250.373 4.55034C228.69 -0.363209 208.593 0.905212 191.671 7.50021C181.015 11.6497 171.848 19.0069 163.123 26.8219C136.691 50.47 146.091 85.3534 120.214 98.662C93.4336 112.376 69.753 106.349 56.6686 98.3904C41.0731 88.9369 16.7835 62.2474 29.3438 32.3053C35.441 17.8782 40.1874 2.89627 43.54 -12.5042C48.0649 -33.7388 37.8968 -59.1668 17.0614 -71.701C1.60887 -80.9635 -18.2471 -83.8032 -33.8781 -95.2245C-45.5982 -103.789 -53.2723 -115.261 -56.9467 -126.533C-60.9091 -138.676 -60.9086 -151.1 -57.6193 -162.922" stroke="#ECECEC" stroke-opacity="0.69" stroke-width="0.5" stroke-miterlimit="10"/>
<path d="M475.591 20.8695C463.459 1.16566 437.085 -13.7111 412.671 -13.2106C391.735 -12.7871 373.707 -2.51428 358.58 8.37821C344.682 18.356 330.417 28.0814 314.056 28.3514C293.241 28.6893 274.303 14.3502 249.694 8.90754C227.68 4.0372 207.302 4.12529 189.712 10.0213C178.429 13.8025 168.548 21.0063 159.415 28.97C133.569 51.5249 141.558 84.9846 116.356 98.0222C90.4974 111.288 67.3002 106.088 54.0383 98.425C38.4106 89.4022 15.2478 63.7493 26.1453 34.7761C31.5523 20.2918 35.8414 5.38323 38.9857 -9.85596C43.288 -30.4714 33.8705 -54.9224 14.2423 -67.5223C-0.574275 -77.0354 -19.8759 -80.5052 -35.3854 -91.7389C-46.6044 -99.9463 -55.101 -110.746 -59.6881 -122.631C-64.4297 -134.817 -65.3332 -147.498 -62.6505 -159.698" stroke="#ECECEC" stroke-opacity="0.69" stroke-width="0.5" stroke-miterlimit="10"/>
<path d="M475.192 21.9375C462.11 1.92475 435.517 -13.7049 410.397 -13.4619C389.247 -13.2605 370.896 -3.0113 355.888 8.24575C342.329 18.4512 328.86 28.6587 312.963 29.7972C292.76 31.2534 273.505 18.4961 248.993 13.2111C226.648 8.384 205.974 7.278 187.75 12.4973C175.839 15.8967 165.247 22.9554 155.704 31.0729C130.464 52.5566 137.022 84.5707 112.509 97.3429C87.5335 110.246 64.8758 105.865 51.4213 98.447C35.7598 89.8415 13.6817 65.2001 22.9601 37.2344C27.6595 22.6923 31.4949 7.85006 34.4517 -7.23621C38.4847 -27.2469 29.8628 -50.72 11.4435 -63.3721C-2.75687 -73.1254 -21.5019 -77.2309 -36.881 -88.2792C-48.2094 -96.438 -57.0681 -107.032 -62.399 -118.797C-67.9204 -131.178 -69.7289 -144.219 -67.6322 -156.534" stroke="#ECECEC" stroke-opacity="0.69" stroke-width="0.5" stroke-miterlimit="10"/>
<path d="M474.727 22.9822C460.743 2.67508 433.902 -13.6624 408.035 -13.6888C386.655 -13.6857 367.966 -3.49793 353.172 8.16609C339.953 18.5992 327.274 29.2861 311.838 31.317C292.24 33.8887 272.673 22.7213 248.259 17.5888C225.579 12.8155 204.609 10.4966 185.722 15.0386C173.176 18.0534 161.893 24.9753 151.933 33.244C127.329 53.6759 132.42 84.2221 108.565 96.7095C84.5844 109.173 62.4837 105.605 48.801 98.4608C33.1183 90.2782 12.0663 66.6094 19.7692 39.6896C23.6607 26.0887 26.8982 10.8163 29.9113 -4.60069C33.7027 -24.0006 25.8479 -46.534 8.6414 -59.2302C-4.93167 -69.2315 -23.1223 -73.9672 -38.3712 -84.8303C-49.8238 -92.9393 -59.0474 -103.328 -65.1099 -114.946C-71.4899 -127.366 -74.1047 -140.663 -72.6685 -153.383" stroke="#ECECEC" stroke-opacity="0.69" stroke-width="0.5" stroke-miterlimit="10"/>
<path d="M474.33 24.0585C459.428 3.42454 432.351 -13.6099 405.753 -13.9052C384.169 -14.1454 365.107 -3.9904 350.512 8.08024C337.626 18.7382 325.726 29.8934 310.748 32.8086C291.767 36.5016 271.887 26.9241 247.569 21.9358C224.587 17.2252 203.289 13.6659 183.752 17.5496C170.575 20.1744 158.604 26.9678 148.213 35.4006C124.263 54.808 127.87 83.859 104.678 96.1019C81.6029 108.136 60.0354 105.385 46.1523 98.5199C30.4405 90.744 10.3804 68.0389 16.5269 42.1736C19.8277 28.5508 22.4786 13.3157 25.3748 -1.97533C28.9152 -20.7433 21.8361 -42.3394 5.83303 -55.0585C-7.11836 -65.3294 -24.7578 -70.6713 -39.8764 -81.3492C-52.0931 -89.9763 -61.6085 -100.317 -67.8422 -111.064C-75.068 -123.518 -78.4797 -137.065 -77.6946 -150.187" stroke="#ECECEC" stroke-opacity="0.69" stroke-width="0.5" stroke-miterlimit="10"/>
<path d="M473.912 25.1174C458.076 4.20708 430.774 -13.5696 403.447 -14.1391C381.652 -14.5879 362.229 -4.49222 347.821 7.97939C335.263 18.854 324.179 30.4999 309.664 34.3023C291.289 39.1108 271.096 31.1233 246.88 26.282C223.537 21.5951 201.962 16.8315 181.786 20.0678C167.988 22.295 155.32 28.981 144.486 37.5214C121.215 55.9155 123.318 83.463 100.802 95.4027C78.6697 107.024 57.6378 105.085 43.5463 98.4828C27.8323 91.1383 8.70081 69.3686 13.3947 44.5978C15.9695 31.001 18.0679 15.8119 20.8108 0.643232C24.1253 -17.5324 17.8268 -38.2018 3.01292 -50.9119C-9.31208 -61.4631 -26.4051 -67.4006 -41.3934 -77.8932C-53.7321 -86.5366 -63.7257 -96.5885 -70.5839 -107.213C-78.661 -119.691 -82.8725 -133.49 -82.7323 -147.017" stroke="#ECECEC" stroke-opacity="0.69" stroke-width="0.5" stroke-miterlimit="10"/>
<path d="M473.491 26.1826C456.727 4.96654 429.196 -13.5229 401.108 -14.3622C379.095 -15.0223 359.307 -4.99414 345.093 7.89471C332.869 18.9754 322.589 31.1198 308.534 35.8011C290.819 41.7184 270.294 35.3311 246.175 30.6288C222.488 26.0169 200.621 19.9789 179.802 22.5785C165.317 24.385 152.033 30.9871 140.772 39.6676C118.201 57.0703 118.844 83.1527 96.9627 94.7401C75.7943 105.99 55.4314 104.374 40.9687 98.5035C25.0201 92.0271 6.94574 70.6653 10.2259 47.038C12.1174 33.4226 13.6799 18.2934 16.3163 3.2616C19.3489 -14.264 13.8726 -34.0835 0.225098 -46.7504C-11.4624 -57.5895 -28.0137 -64.1121 -42.8694 -74.4247C-55.3347 -83.0737 -65.8281 -92.8398 -73.3059 -103.353C-82.2333 -115.852 -87.2455 -129.904 -87.7482 -143.842" stroke="#ECECEC" stroke-opacity="0.69" stroke-width="0.5" stroke-miterlimit="10"/>
<path d="M473.07 27.2471C455.385 5.72819 427.618 -13.477 398.835 -14.6004C376.611 -15.4691 356.457 -5.52183 342.443 7.78708C330.539 19.087 321.057 31.7082 307.464 37.282C290.31 44.3137 269.488 39.5301 245.469 34.9802C221.45 30.4303 199.283 23.1204 177.822 25.0967C162.723 26.4896 148.751 33.014 137.043 41.8127C115.18 58.2404 114.245 82.7612 93.0556 94.1101C72.8133 104.953 52.8508 104.571 38.326 98.5327C22.5568 91.9775 5.08831 71.9858 7.01255 49.5087C8.18904 35.8606 9.24737 20.8054 11.7558 5.9073C14.6061 -11.0383 9.91418 -29.974 -2.57569 -42.5951C-13.6163 -53.7435 -29.6503 -60.8301 -44.367 -70.9599C-56.963 -79.6227 -67.9284 -89.097 -76.0029 -99.4821C-85.782 -111.992 -91.5984 -126.295 -92.7436 -140.647" stroke="#ECECEC" stroke-opacity="0.69" stroke-width="0.5" stroke-miterlimit="10"/>
<path d="M472.658 28.2907C454.036 6.48737 426.04 -13.4172 396.561 -14.8195C374.124 -15.8915 353.586 -6.00672 339.782 7.70103C328.195 19.212 319.529 32.3239 306.401 38.7795C289.854 46.9215 268.721 43.7412 244.8 39.3303C220.448 34.8289 197.98 26.2658 175.871 27.616C160.133 28.584 145.513 35.0611 133.351 43.9565C112.21 59.4282 109.738 82.3857 89.2063 93.4685C69.8703 103.864 50.445 104.306 35.6992 98.5761C19.9238 92.3932 3.16754 73.2597 3.83882 51.9406C4.25117 38.2505 4.85445 23.2785 7.22459 8.50316C9.84995 -7.81794 5.98033 -25.9036 -5.38111 -38.4476C-15.7487 -49.9126 -31.2916 -57.5559 -45.8606 -67.5054C-58.5809 -76.1791 -70.0468 -85.3489 -78.7235 -95.6274C-89.3494 -108.151 -95.969 -122.709 -97.7556 -137.483" stroke="#ECECEC" stroke-opacity="0.69" stroke-width="0.5" stroke-miterlimit="10"/>
<path d="M472.23 29.3712C452.693 7.24907 424.466 -13.363 394.224 -15.0671C371.574 -16.3424 350.647 -6.52299 337.06 7.58642C325.766 19.2918 317.931 32.9081 305.273 40.2537C289.328 49.5031 267.888 47.9344 244.064 43.6624C219.369 39.2307 196.611 29.3745 173.859 30.1202C157.487 30.6526 142.226 37.0853 129.593 46.0823C109.193 60.6065 105.141 82.0076 85.2946 92.7983C66.9188 102.795 48.0448 104.03 33.0883 98.5687C17.2902 92.7953 1.22323 74.5541 0.638445 54.417C0.250226 40.6815 0.457865 25.8129 2.6747 11.1599C5.1052 -4.53598 2.05226 -21.7933 -8.18634 -34.2817C-17.8604 -46.0923 -32.9089 -54.2655 -47.373 -64.041C-60.2264 -72.7232 -72.1863 -81.5855 -81.463 -91.7628C-92.9413 -104.289 -100.37 -119.102 -102.798 -134.302" stroke="#ECECEC" stroke-opacity="0.69" stroke-width="0.5" stroke-miterlimit="10"/>
<path d="M471.802 30.4518C451.337 8.024 422.879 -13.2822 391.908 -15.2793C369.042 -16.7526 347.742 -7.04907 334.36 7.50197C323.402 19.4269 316.357 33.5225 304.169 41.7581C288.832 52.1177 267.078 52.1577 243.352 48.0246C218.323 43.6602 195.277 32.5056 171.855 32.6729C154.848 32.7698 138.964 39.1853 125.839 48.2619C106.214 61.8153 100.576 81.6252 81.3984 92.1419C63.956 101.716 45.6246 103.746 30.4582 98.585C14.6213 93.1886 -0.85446 75.8214 -2.56625 56.8668C-3.7962 43.0929 -3.96602 28.3039 -1.86445 13.7902C0.299073 -1.30622 -1.84766 -17.7144 -10.9966 -30.1237C-19.947 -42.2793 -34.5282 -51.007 -48.8563 -60.5757C-61.8341 -69.2688 -74.2968 -77.8213 -84.1647 -87.8998C-96.4914 -100.427 -104.728 -115.494 -107.793 -131.125" stroke="#ECECEC" stroke-opacity="0.69" stroke-width="0.5" stroke-miterlimit="10"/>
<path d="M471.39 31.4951C450.001 8.76976 421.307 -13.2334 389.61 -15.5288C366.528 -17.2001 344.836 -7.58874 331.683 7.38836C321.028 19.5187 314.777 34.0831 303.074 43.2276C288.311 54.6699 266.283 56.349 242.657 52.3496C217.313 48.0609 193.969 35.6291 169.87 35.132C152.229 34.7935 135.724 41.2052 122.106 50.3481C103.219 63.0289 95.9701 81.1987 77.4985 91.496C60.9583 100.614 43.2116 103.464 27.825 98.593C11.9938 93.5934 -2.97945 77.1115 -5.76368 59.3191C-8.04945 44.8602 -8.27003 30.446 -6.42009 16.4253C-4.45777 1.95131 -5.72529 -13.6324 -13.8147 -25.9635C-22.0114 -38.4632 -36.1986 -47.683 -50.376 -57.0954C-63.4868 -65.797 -76.446 -74.0367 -86.9091 -84.0246C-100.079 -96.5476 -109.124 -111.867 -112.833 -127.93" stroke="#ECECEC" stroke-opacity="0.69" stroke-width="0.5" stroke-miterlimit="10"/>
<path d="M470.969 32.5596C448.653 9.52855 419.732 -13.1793 387.305 -15.7624C364.003 -17.621 341.9 -8.12913 328.992 7.28783C318.643 19.6182 313.209 34.6867 301.978 44.7159C287.82 57.2738 265.478 60.5615 241.927 56.6844C216.228 52.4599 192.608 38.7031 167.881 37.6527C149.61 36.868 132.506 43.3114 118.374 52.4985C100.285 64.2761 91.4375 80.8301 73.6231 90.8293C58.0432 99.5486 40.8399 103.176 25.2363 98.6209C9.3839 93.9932 -5.12322 78.4441 -8.92218 61.7697C-12.0939 47.4052 -12.7739 32.9849 -10.9377 19.0265C-9.18762 5.18267 -9.52368 -9.59145 -16.5971 -21.8319C-24.0036 -34.6723 -37.8041 -44.419 -51.8298 -53.643C-65.0673 -62.3502 -78.523 -70.2773 -89.59 -80.172C-103.597 -92.6898 -113.45 -108.263 -117.802 -124.761" stroke="#ECECEC" stroke-opacity="0.69" stroke-width="0.5" stroke-miterlimit="10"/>
<path d="M470.548 33.6249C447.31 10.2909 418.149 -13.0898 384.99 -15.974C361.48 -18.0331 338.992 -8.63061 326.293 7.20393C316.242 19.7369 311.642 35.3045 300.874 46.2208C287.324 59.8889 264.671 64.8309 241.242 61.0532C215.203 56.944 191.285 41.8269 165.919 40.1802C147.025 38.9522 129.365 45.4656 114.67 54.6558C97.3188 65.542 86.8716 80.4669 69.7518 90.2035C55.0837 98.4965 38.4239 102.9 22.6056 98.6565C6.78737 94.4129 -7.35326 79.8157 -12.1187 64.2362C-16.3519 50.4138 -17.1381 35.8141 -15.4814 21.668C-13.9247 8.4119 -13.3363 -5.48578 -19.4159 -17.6709C-25.9801 -30.8669 -39.4484 -41.1204 -53.3494 -50.1807C-66.7318 -58.8699 -80.6729 -66.492 -92.3303 -76.3067C-107.188 -88.8123 -117.86 -104.642 -122.857 -121.585" stroke="#ECECEC" stroke-opacity="0.69" stroke-width="0.5" stroke-miterlimit="10"/>
<path d="M470.129 34.6838C445.961 11.0494 416.568 -12.9692 382.692 -16.2238C358.965 -18.4435 336.073 -9.17626 323.606 7.09248C313.855 19.8227 310.087 35.8947 299.779 47.6901C286.84 62.4766 263.874 69.0085 240.545 65.3832C214.176 61.3306 189.998 44.9211 163.951 42.6716C144.423 40.9893 126.166 47.58 110.952 56.7741C94.3783 66.7861 82.3357 80.0712 65.8787 89.5312C52.1462 97.3957 36.0298 102.576 20.0136 98.6571C4.12803 94.7523 -9.58957 81.253 -15.2948 66.6914C-20.6751 52.9361 -21.4993 38.3195 -19.9769 24.3042C-18.6395 11.6942 -17.0666 -1.3766 -22.1445 -13.4901C-27.8996 -27.0693 -41.0857 -37.8201 -54.847 -46.7163C-68.36 -55.4192 -82.792 -62.7071 -95.0652 -72.4531C-110.757 -84.9454 -122.237 -101.027 -127.873 -118.411" stroke="#ECECEC" stroke-opacity="0.69" stroke-width="0.5" stroke-miterlimit="10"/>
<path d="M469.708 35.7488C444.644 11.8229 414.991 -12.928 380.393 -16.4541C356.429 -18.8749 333.141 -9.70804 320.921 6.99524C311.454 19.9411 308.537 36.5073 298.683 49.1789C286.349 65.0809 263.076 73.2056 239.84 69.7298C213.136 65.731 188.703 48.0319 161.968 45.1768C141.819 43.0459 123.022 49.758 107.212 58.9087C91.4016 68.0595 77.7621 79.6915 61.9917 88.8726C49.1917 96.3328 33.6124 102.286 17.3522 98.6596C1.44301 95.132 -11.9085 82.7561 -18.518 69.1329C-25.1276 55.5097 -25.8823 40.8223 -24.5623 26.9202C-23.4175 14.9302 -20.8425 2.73225 -25.0113 -9.35745C-29.7893 -23.2194 -42.6822 -34.5261 -56.3449 -43.2512C-70.0076 -51.9763 -84.9115 -58.9215 -97.7752 -68.5874C-114.299 -81.0615 -126.595 -97.3908 -132.884 -115.216" stroke="#ECECEC" stroke-opacity="0.69" stroke-width="0.5" stroke-miterlimit="10"/>
</g>
</svg>
