<svg width="6" height="10" viewBox="0 0 6 10" fill="none" xmlns="http://www.w3.org/2000/svg">
<path d="M1.2512 9.2353V2.09895C1.09732 2.31928 0.866518 2.55594 0.558777 2.80891V2.38049C0.73669 2.11935 0.890561 1.85414 1.02039 1.58484C1.15022 1.31554 1.256 1.04217 1.33775 0.764709H1.46758C1.54932 1.04217 1.65511 1.31554 1.78493 1.58484C1.91476 1.85414 2.06863 2.11935 2.24655 2.38049V2.80891C2.09749 2.6865 1.96525 2.56818 1.84985 2.45393C1.73445 2.33152 1.63587 2.2132 1.55413 2.09895V9.2353H1.2512Z" fill="black"/>
<path d="M4.94409 9.2353C4.78061 8.6559 4.52095 8.11731 4.16512 7.61952V7.1911C4.31899 7.3135 4.45363 7.43591 4.56903 7.55832C4.68444 7.67256 4.78061 7.78681 4.85754 7.90106V4.33288V0.764709H5.16048V7.90106C5.24222 7.78681 5.34079 7.67256 5.4562 7.55832C5.5716 7.43591 5.70383 7.3135 5.85289 7.1911V7.61952C5.50188 8.11731 5.24222 8.6559 5.07392 9.2353H4.94409Z" fill="black"/>
</svg>
