<svg width="9" height="11" viewBox="0 0 9 11" fill="none" xmlns="http://www.w3.org/2000/svg">
<path d="M4.5 9.56829L6.975 7.0623C7.46445 6.56667 7.79775 5.93522 7.93277 5.2478C8.06779 4.56037 7.99846 3.84785 7.73354 3.20032C7.46863 2.55279 7.02002 1.99934 6.44446 1.60996C5.86889 1.22057 5.19222 1.01274 4.5 1.01274C3.80778 1.01274 3.13111 1.22057 2.55554 1.60996C1.97998 1.99934 1.53137 2.55279 1.26646 3.20032C1.00154 3.84785 0.932208 4.56037 1.06723 5.2478C1.20225 5.93522 1.53555 6.56667 2.025 7.0623L4.5 9.56829ZM4.5 11L1.318 7.77815C0.688671 7.14094 0.260093 6.32907 0.0864642 5.44523C-0.0871648 4.56138 0.00195342 3.64526 0.342549 2.8127C0.683145 1.98014 1.25992 1.26853 1.99994 0.767879C2.73996 0.267224 3.60999 0 4.5 0C5.39001 0 6.26004 0.267224 7.00006 0.767879C7.74008 1.26853 8.31685 1.98014 8.65745 2.8127C8.99805 3.64526 9.08716 4.56138 8.91354 5.44523C8.73991 6.32907 8.31133 7.14094 7.682 7.77815L4.5 11ZM4.5 5.56883C4.76522 5.56883 5.01957 5.46215 5.20711 5.27227C5.39464 5.08239 5.5 4.82485 5.5 4.55631C5.5 4.28777 5.39464 4.03023 5.20711 3.84035C5.01957 3.65046 4.76522 3.54379 4.5 3.54379C4.23478 3.54379 3.98043 3.65046 3.79289 3.84035C3.60536 4.03023 3.5 4.28777 3.5 4.55631C3.5 4.82485 3.60536 5.08239 3.79289 5.27227C3.98043 5.46215 4.23478 5.56883 4.5 5.56883ZM4.5 6.58135C3.96957 6.58135 3.46086 6.368 3.08579 5.98823C2.71071 5.60846 2.5 5.09338 2.5 4.55631C2.5 4.01923 2.71071 3.50416 3.08579 3.12439C3.46086 2.74462 3.96957 2.53127 4.5 2.53127C5.03043 2.53127 5.53914 2.74462 5.91421 3.12439C6.28929 3.50416 6.5 4.01923 6.5 4.55631C6.5 5.09338 6.28929 5.60846 5.91421 5.98823C5.53914 6.368 5.03043 6.58135 4.5 6.58135Z" fill="black"/>
</svg>
