<svg width="205" height="190" viewBox="0 0 205 190" fill="none" xmlns="http://www.w3.org/2000/svg">
<g clip-path="url(#clip0_6221_183)">
<path d="M184.129 190H4.22065C3.10126 190 2.02773 189.557 1.2362 188.768C0.444677 187.979 2.67044e-06 186.909 2.67044e-06 185.793C-0.000621346 185.24 0.108123 184.693 0.32001 184.182C0.531896 183.672 0.842763 183.208 1.23481 182.817C1.62686 182.426 2.09238 182.116 2.60474 181.905C3.11709 181.694 3.66621 181.585 4.22065 181.586H184.129C185.249 181.586 186.322 182.029 187.114 182.818C187.905 183.607 188.35 184.677 188.35 185.793C188.349 186.908 187.903 187.978 187.112 188.766C186.321 189.555 185.248 189.999 184.129 190Z" fill="#E6EDFF"/>
<path d="M14.5352 77.9428C14.2071 76.7593 13.5763 75.681 12.7046 74.8135L11.282 73.7027C10.1912 73.0744 8.9518 72.748 7.69204 72.7573H7.34111C6.38896 72.7166 5.44305 72.9287 4.60006 73.3718C3.72125 73.6525 2.93154 74.1577 2.30953 74.8372C1.63056 75.4575 1.12411 76.2424 0.839417 77.1156C0.395224 77.9558 0.184039 78.899 0.22766 79.8477C0.308279 80.4764 0.393642 81.1051 0.479003 81.7385C0.80525 82.9154 1.43088 83.9884 2.2953 84.8536L3.71799 85.9644C4.80841 86.5935 6.04803 86.92 7.30791 86.9098H7.65884C8.61068 86.9533 9.55692 86.7428 10.3999 86.3C11.277 86.0186 12.065 85.5135 12.6857 84.8347C13.3671 84.2135 13.8752 83.4269 14.1605 82.5516C14.6036 81.7109 14.8148 80.768 14.7723 79.8194L14.5352 77.9428Z" fill="#E6EDFF"/>
<path d="M189.63 86.092C198.119 86.092 205 79.233 205 70.772C205 62.3109 198.119 55.4519 189.63 55.4519C181.142 55.4519 174.26 62.3109 174.26 70.772C174.26 79.233 181.142 86.092 189.63 86.092Z" fill="#BFD2FF"/>
<path d="M132.12 0.104006C131.472 0.235907 130.837 0.427377 130.223 0.675967C130.262 0.721184 130.299 0.768528 130.332 0.817778C130.45 1.00773 130.529 1.21893 130.565 1.43931C130.601 1.6597 130.593 1.88496 130.541 2.10224C130.49 2.31951 130.396 2.52455 130.265 2.70563C130.134 2.88671 129.968 3.0403 129.778 3.15762C129.587 3.27494 129.375 3.3537 129.154 3.3894C128.933 3.4251 128.707 3.41705 128.489 3.36569C128.271 3.31434 128.065 3.22069 127.884 3.09009C127.702 2.9595 127.548 2.79452 127.43 2.60457C127.396 2.54825 127.366 2.48983 127.34 2.42967C126.836 2.86869 126.376 3.35462 125.965 3.88084C126.026 3.88084 126.088 3.92339 126.145 3.95175C126.353 4.05092 126.538 4.19095 126.69 4.3634C126.842 4.53586 126.957 4.73718 127.029 4.95526C127.101 5.17333 127.128 5.40364 127.108 5.63234C127.089 5.86104 127.023 6.08339 126.914 6.28601C126.806 6.48864 126.658 6.66735 126.479 6.81139C126.299 6.95543 126.093 7.06183 125.871 7.12418C125.65 7.18652 125.418 7.20353 125.189 7.17417C124.961 7.14482 124.741 7.06971 124.542 6.95336C124.48 6.9173 124.42 6.87785 124.362 6.83519C124.14 7.47061 123.982 8.12603 123.888 8.79215C123.958 8.77775 124.029 8.76827 124.101 8.76379C124.542 8.76593 124.965 8.93815 125.282 9.24435C125.598 9.55054 125.784 9.96696 125.799 10.4063C125.814 10.8457 125.658 11.274 125.364 11.6013C125.07 11.9287 124.66 12.1298 124.22 12.1625C124.139 12.1672 124.058 12.1672 123.978 12.1625C124.106 12.8291 124.3 13.4814 124.556 14.11C124.617 14.0559 124.682 14.0069 124.751 13.9634C125.134 13.7493 125.584 13.6904 126.01 13.7988C126.435 13.9073 126.802 14.1749 127.034 14.5459C127.267 14.917 127.347 15.3631 127.258 15.7916C127.17 16.22 126.919 16.598 126.558 16.8469C126.482 16.8913 126.403 16.9293 126.32 16.9603C126.77 17.4808 127.271 17.9558 127.814 18.3784C127.841 18.2969 127.874 18.2178 127.914 18.1421C128.126 17.744 128.488 17.4462 128.92 17.3141C129.352 17.182 129.819 17.2265 130.219 17.4378C130.618 17.649 130.917 18.0097 131.049 18.4405C131.182 18.8714 131.137 19.337 130.925 19.7351C130.88 19.8165 130.827 19.894 130.769 19.9667C131.42 20.1919 132.092 20.3502 132.775 20.4394C132.756 20.3522 132.745 20.2637 132.742 20.1747C132.725 19.7246 132.889 19.2865 133.197 18.9567C133.504 18.627 133.931 18.4325 134.382 18.4162C134.834 18.3999 135.273 18.5631 135.604 18.8698C135.935 19.1765 136.13 19.6017 136.147 20.0518C136.156 20.1461 136.156 20.2411 136.147 20.3354C136.824 20.2021 137.487 20.001 138.124 19.7351C138.062 19.6712 138.007 19.6015 137.958 19.5271C137.839 19.338 137.759 19.1275 137.721 18.9075C137.684 18.6875 137.691 18.4623 137.741 18.2448C137.791 18.0274 137.883 17.8218 138.013 17.6399C138.142 17.4581 138.307 17.3034 138.496 17.1849C138.686 17.0663 138.897 16.9861 139.118 16.9489C139.339 16.9117 139.565 16.9182 139.783 16.968C140.001 17.0178 140.207 17.11 140.39 17.2393C140.572 17.3685 140.727 17.5324 140.846 17.7214C140.893 17.7988 140.934 17.8793 140.969 17.9624C141.484 17.5113 141.952 17.011 142.368 16.4687C142.288 16.4421 142.208 16.4106 142.131 16.3742C141.731 16.1623 141.432 15.8008 141.3 15.369C141.167 14.9373 141.212 14.4708 141.425 14.0722C141.637 13.6735 142 13.3753 142.433 13.2432C142.866 13.1112 143.334 13.156 143.734 13.3678C143.806 13.4113 143.876 13.4586 143.943 13.5097C144.164 12.8662 144.323 12.2029 144.417 11.5291C144.34 11.545 144.263 11.5561 144.185 11.5621C143.947 11.5788 143.708 11.5456 143.483 11.4645C143.259 11.3834 143.054 11.2563 142.882 11.0914C142.71 10.9265 142.574 10.7275 142.484 10.5072C142.394 10.2869 142.351 10.0502 142.359 9.81237C142.366 9.57455 142.423 9.34091 142.527 9.12653C142.63 8.91215 142.778 8.72179 142.96 8.56775C143.142 8.4137 143.354 8.29939 143.583 8.2322C143.812 8.165 144.052 8.14642 144.289 8.17765C144.157 7.51858 143.96 6.87415 143.701 6.25378C143.644 6.29632 143.597 6.34359 143.535 6.3814C143.152 6.59553 142.701 6.65447 142.276 6.546C141.851 6.43753 141.484 6.16998 141.252 5.7989C141.019 5.42783 140.939 4.98174 141.028 4.55327C141.116 4.1248 141.367 3.74687 141.728 3.49796C141.786 3.46333 141.846 3.4333 141.908 3.40815C141.466 2.90775 140.975 2.45179 140.443 2.04679C140.423 2.10512 140.4 2.16198 140.372 2.21696C140.16 2.615 139.798 2.91281 139.366 3.0449C138.934 3.17698 138.467 3.13251 138.067 2.92127C137.668 2.71003 137.369 2.34932 137.237 1.91849C137.104 1.48766 137.149 1.02201 137.361 0.623972C137.393 0.570192 137.427 0.518123 137.465 0.467982C136.834 0.252395 136.182 0.10192 135.521 0.0189209C135.533 0.0748461 135.541 0.131787 135.544 0.189092C135.552 0.411942 135.516 0.634139 135.437 0.842995C135.359 1.05185 135.24 1.24328 135.088 1.40634C134.935 1.56941 134.752 1.70092 134.548 1.79337C134.344 1.88582 134.125 1.9374 133.901 1.94516C133.677 1.95292 133.455 1.9167 133.245 1.83859C133.035 1.76048 132.843 1.642 132.68 1.4899C132.516 1.33781 132.384 1.15509 132.292 0.952173C132.199 0.749256 132.147 0.530116 132.139 0.307265C132.127 0.240169 132.121 0.172172 132.12 0.104006ZM133.913 4.30154C135.087 4.25454 136.248 4.55587 137.25 5.16735C138.251 5.77883 139.048 6.67294 139.54 7.73638C140.031 8.79983 140.195 9.98473 140.01 11.141C139.825 12.2972 139.3 13.3727 138.501 14.2312C137.702 15.0896 136.666 15.6925 135.523 15.9633C134.38 16.2341 133.183 16.1606 132.082 15.7523C130.981 15.3439 130.027 14.619 129.339 13.6694C128.652 12.7198 128.263 11.5883 128.222 10.4182C128.167 8.85595 128.735 7.33546 129.801 6.18923C130.868 5.043 132.346 4.36431 133.913 4.30154Z" fill="#E6EDFF"/>
<path d="M22.5876 60.9872C33.1897 60.9872 41.7844 53.125 41.7844 43.4265C41.7844 33.7281 33.1897 25.8659 22.5876 25.8659C11.9855 25.8659 3.39075 33.7281 3.39075 43.4265C3.39075 53.125 11.9855 60.9872 22.5876 60.9872Z" fill="#E6EDFF"/>
<path d="M22.1323 43.696L7.16086 38.9218C6.57536 40.4459 6.27479 42.0639 6.27405 43.696C6.27405 51.6562 13.4349 58.203 22.1323 58.203C24.9837 58.2089 27.7906 57.4985 30.2938 56.1373L22.1323 43.696Z" fill="#628AEC"/>
<path d="M22.9432 43.4266L31.2091 55.8065C33.4867 54.5492 35.4034 52.7314 36.7765 50.5265C38.0931 48.3937 38.7938 45.9402 38.8015 43.436L22.9432 43.4266Z" fill="#BFD2FF"/>
<path d="M23.0428 42.727L38.9011 42.5284C38.8701 40.5422 38.3989 38.5875 37.5211 36.8041C36.6175 34.9766 35.3415 33.357 33.7747 32.0488L23.0428 42.727Z" fill="#FEFEFF"/>
<path d="M68.5641 26.2535H62.8212V40.009H68.5641V26.2535Z" fill="#628AEC"/>
<path d="M77.4417 19.5223H71.6987V40.009H77.4417V19.5223Z" fill="#628AEC"/>
<path d="M86.3146 10.2291H80.5717V40.0042H86.3146V10.2291Z" fill="#628AEC"/>
<path d="M95.1921 23.2567H89.4492V40.009H95.1921V23.2567Z" fill="#628AEC"/>
<path d="M59.7482 10.5175V39.8814H98.9812" stroke="#628AEC" stroke-width="0.876261" stroke-miterlimit="10"/>
<path d="M147.922 19.3569C146.636 19.6089 145.378 19.9857 144.166 20.4819C144.243 20.5699 144.315 20.6631 144.379 20.7608C144.851 21.513 145.003 22.4212 144.803 23.2855C144.603 24.1498 144.067 24.8995 143.312 25.3696C142.558 25.8397 141.646 25.9918 140.779 25.7923C139.912 25.5929 139.16 25.0582 138.688 24.306C138.624 24.1949 138.567 24.0796 138.518 23.961C137.528 24.8184 136.623 25.7681 135.815 26.7971C135.932 26.8383 136.048 26.8857 136.161 26.939C136.551 27.1441 136.896 27.4238 137.178 27.762C137.459 28.1003 137.671 28.4905 137.801 28.9103C137.931 29.3302 137.977 29.7715 137.936 30.209C137.895 30.6465 137.768 31.0717 137.562 31.4603C137.356 31.8489 137.076 32.1933 136.736 32.4738C136.397 32.7543 136.006 32.9654 135.584 33.0951C135.163 33.2248 134.72 33.2705 134.282 33.2297C133.843 33.1889 133.416 33.0623 133.026 32.8571C132.903 32.7849 132.785 32.706 132.671 32.6208C132.239 33.8701 131.932 35.1589 131.755 36.4685C131.891 36.44 132.029 36.4211 132.168 36.4118C132.611 36.3905 133.054 36.4571 133.472 36.6079C133.889 36.7587 134.272 36.9906 134.599 37.2901C134.926 37.5897 135.189 37.9509 135.375 38.3528C135.561 38.7548 135.664 39.1895 135.68 39.6317C135.696 40.0739 135.623 40.5148 135.466 40.9288C135.31 41.3428 135.072 41.7217 134.768 42.0435C134.463 42.3653 134.097 42.6236 133.692 42.8034C133.286 42.9832 132.849 43.081 132.405 43.091C132.246 43.0934 132.088 43.084 131.931 43.0626C132.183 44.3737 132.565 45.6564 133.074 46.8914C133.19 46.7835 133.315 46.6854 133.448 46.5984C133.822 46.3656 134.238 46.2084 134.672 46.1359C135.107 46.0634 135.552 46.0769 135.981 46.1756C136.41 46.2744 136.816 46.4565 137.175 46.7115C137.534 46.9665 137.838 47.2895 138.072 47.6619C138.306 48.0344 138.463 48.449 138.536 48.8822C138.609 49.3154 138.595 49.7586 138.496 50.1866C138.397 50.6146 138.214 51.0189 137.958 51.3765C137.703 51.7341 137.379 52.0379 137.005 52.2707C136.854 52.36 136.695 52.4359 136.531 52.4976C137.416 53.5131 138.399 54.4394 139.466 55.2629C139.515 55.1001 139.579 54.9419 139.656 54.7902C140.071 54.006 140.782 53.4183 141.631 53.1563C142.481 52.8944 143.4 52.9797 144.187 53.3934C144.974 53.8071 145.563 54.5153 145.826 55.3624C146.089 56.2094 146.004 57.1258 145.589 57.91C145.502 58.0766 145.401 58.2348 145.285 58.3827C146.565 58.8228 147.887 59.1317 149.231 59.3044C149.192 59.1334 149.169 58.9595 149.159 58.7845C149.139 58.3431 149.206 57.902 149.358 57.4867C149.509 57.0714 149.742 56.6902 150.042 56.3651C150.342 56.04 150.704 55.7775 151.107 55.5927C151.509 55.4079 151.945 55.3046 152.388 55.2886C152.831 55.2727 153.272 55.3445 153.687 55.4998C154.102 55.6552 154.482 55.891 154.805 56.1937C155.128 56.4964 155.388 56.8599 155.569 57.2632C155.75 57.6666 155.849 58.1017 155.86 58.5434C155.862 58.7284 155.85 58.9133 155.822 59.0964C157.152 58.8371 158.452 58.4444 159.702 57.9241C159.584 57.7938 159.476 57.6547 159.379 57.5082C158.907 56.756 158.755 55.8478 158.955 54.9835C159.155 54.1192 159.692 53.3695 160.446 52.8994C161.201 52.4293 162.112 52.2772 162.979 52.4767C163.846 52.6761 164.598 53.2108 165.07 53.963C165.161 54.1134 165.239 54.2715 165.302 54.4357C166.315 53.5477 167.237 52.5612 168.053 51.4908C167.89 51.4407 167.731 51.3774 167.579 51.3017C167.19 51.0956 166.845 50.8152 166.565 50.4764C166.285 50.1377 166.074 49.7472 165.946 49.3274C165.817 48.9075 165.772 48.4665 165.814 48.0295C165.857 47.5925 165.985 47.168 166.191 46.7803C166.398 46.3927 166.68 46.0494 167.019 45.7701C167.359 45.4908 167.751 45.281 168.172 45.1526C168.593 45.0242 169.036 44.9798 169.474 45.0219C169.913 45.0639 170.339 45.1916 170.727 45.3977C170.871 45.4797 171.007 45.5729 171.135 45.6766C171.563 44.411 171.863 43.1063 172.032 41.7816C171.883 41.814 171.733 41.8346 171.581 41.843C171.138 41.8643 170.694 41.7977 170.277 41.6469C169.86 41.4961 169.477 41.2642 169.15 40.9647C168.823 40.6652 168.559 40.3039 168.374 39.902C168.188 39.5 168.085 39.0653 168.069 38.6231C168.053 38.1809 168.126 37.7401 168.282 37.326C168.439 36.912 168.677 36.5331 168.981 36.2113C169.286 35.8895 169.652 35.6312 170.057 35.4514C170.463 35.2716 170.9 35.1738 171.344 35.1639C171.491 35.1637 171.639 35.1732 171.785 35.1922C171.524 33.8965 171.135 32.6297 170.623 31.4107C170.521 31.5005 170.413 31.5841 170.301 31.6612C169.546 32.1313 168.635 32.2834 167.768 32.0839C166.901 31.8844 166.149 31.3498 165.677 30.5976C165.205 29.8454 165.053 28.9373 165.253 28.073C165.453 27.2086 165.989 26.459 166.744 25.9888C166.861 25.9239 166.981 25.8655 167.104 25.8139C166.231 24.8309 165.266 23.9334 164.221 23.1337C164.174 23.2472 164.14 23.3606 164.083 23.4741C163.666 24.257 162.953 24.8425 162.103 25.1018C161.252 25.3611 160.333 25.2729 159.547 24.8567C158.762 24.4405 158.175 23.7303 157.914 22.8824C157.654 22.0345 157.743 21.1183 158.16 20.3354C158.222 20.2267 158.298 20.1321 158.369 20.0281C157.129 19.6149 155.852 19.3204 154.556 19.1489C154.556 19.2624 154.599 19.3711 154.604 19.4893C154.635 20.3756 154.312 21.2381 153.705 21.887C153.099 22.5359 152.259 22.9181 151.369 22.9494C150.48 22.9807 149.615 22.6587 148.964 22.0541C148.313 21.4495 147.929 20.612 147.898 19.7256C147.899 19.6024 147.907 19.4792 147.922 19.3569ZM151.388 25.6154C154.089 25.5208 156.757 26.2264 159.055 27.6431C161.353 29.0598 163.178 31.1239 164.299 33.5745C165.42 36.025 165.787 38.7519 165.354 41.4103C164.92 44.0688 163.706 46.5394 161.863 48.5098C160.021 50.4802 157.634 51.8618 155.004 52.4801C152.375 53.0983 149.62 52.9254 147.088 51.9831C144.557 51.0408 142.363 49.3715 140.783 47.1863C139.204 45.0011 138.31 42.3981 138.214 39.7065C138.15 37.9188 138.44 36.1361 139.068 34.4602C139.695 32.7844 140.648 31.2482 141.872 29.9396C143.095 28.6309 144.565 27.5755 146.198 26.8335C147.831 26.0915 149.595 25.6776 151.388 25.6154Z" fill="#BFD2FF"/>
<path d="M128.222 36.563C127.81 36.2605 127.298 36.0099 127.141 35.5231C126.88 34.7478 127.72 33.9348 127.511 33.1596C127.34 32.4931 126.562 32.2142 125.861 32.1244C125.159 32.0346 124.395 31.9258 124.006 31.3586C123.679 30.8859 123.755 30.262 123.679 29.69C123.594 29.1169 123.347 28.5798 122.966 28.1419C122.586 27.704 122.088 27.3834 121.531 27.2178C120.345 26.8822 119.311 27.9552 118.32 28.3854C117.803 28.6131 117.35 28.9656 117.003 29.4112C116.656 29.8569 116.426 30.3815 116.333 30.9379C116.156 32.0631 116.218 33.2128 116.514 34.313C116.807 35.4106 117.025 36.5273 117.163 37.6549C117.207 38.8673 117.025 40.0772 116.627 41.2238C116.34 42.1058 116.392 43.0631 116.774 43.9087C117.206 44.6461 118.074 44.9864 118.894 45.2228C120.476 45.7276 122.148 45.8888 123.798 45.6955C125.365 45.4869 126.806 44.7276 127.862 43.5542C128.587 42.9682 129.145 42.2019 129.479 41.3325C130.119 39.6544 129.645 37.584 128.222 36.563Z" fill="#485070"/>
<path d="M120.004 30.8387C120.103 31.1831 120.131 31.5436 120.088 31.8992C120.045 32.2548 119.931 32.5981 119.753 32.9091C119.634 33.1124 119.449 33.3203 119.212 33.3014C118.975 33.2825 118.795 32.9895 118.709 32.7342C118.471 32.0272 118.322 31.2938 118.263 30.5503C118.226 30.0776 118.311 29.2741 118.961 29.4301C119.463 29.5482 119.871 30.3991 120.004 30.8387Z" fill="#FF6EA1"/>
<path d="M119.999 41.9707C119.525 43.6298 116.812 44.4334 115.257 42.519C115.062 42.2827 114.887 42.0463 114.716 41.7863C113.033 42.1172 110.533 42.8452 109.409 44.2018C109.076 44.6659 108.837 45.1912 108.708 45.7475C108.124 47.7328 107.636 49.7513 107.252 51.7886C107.19 52.0177 107.19 52.259 107.252 52.4882C107.379 52.7517 107.58 52.9733 107.83 53.1263C110.154 54.9509 110.766 57.9005 111.529 60.5618C112.691 64.6081 113.222 70.2001 114.375 74.2463C118.169 74.5347 134.008 70.9375 135.914 69.2925C133.187 64.3906 130.973 55.5465 130.119 49.4015C129.749 46.7922 128.725 44.3105 127.724 41.8667C127.487 41.2947 127.278 39.9759 126.842 39.6072C126.264 39.1345 120.748 39.9475 120.165 39.9665C120.165 40.2926 120.198 40.6188 120.208 40.9402C120.193 41.2925 120.122 41.6403 119.999 41.9707Z" fill="#FF6EA1"/>
<path d="M114.356 39.2952C114.176 38.7216 113.926 38.1722 113.611 37.6597C114.546 37.6323 115.451 37.3261 116.21 36.7805C116.585 36.5068 116.934 36.1999 117.253 35.8635C117.372 35.7453 117.547 35.4475 117.728 35.23C117.476 35.5231 118.093 37.1586 118.202 37.4943C118.449 38.2089 118.83 38.8699 119.326 39.4418C119.824 39.9948 120.151 40.0893 120.241 40.8598C120.308 41.7101 120.183 42.5644 119.876 43.3604C119.73 43.8566 119.427 44.2926 119.013 44.6036C118.747 44.7452 118.456 44.8317 118.156 44.8577C117.856 44.8837 117.554 44.8487 117.268 44.7549C116.286 44.4996 114.939 43.6818 114.588 42.6608C114.403 42.1267 114.588 41.8478 114.659 41.2995C114.69 40.618 114.587 39.9372 114.356 39.2952Z" fill="#FFC1A6"/>
<path d="M114.688 41.0442C114.688 40.9875 114.688 40.9308 114.688 40.874C114.638 40.3372 114.528 39.8076 114.36 39.2952C114.181 38.7216 113.931 38.1722 113.616 37.6597C114.551 37.6323 115.456 37.3261 116.215 36.7805C116.59 36.5068 116.939 36.1999 117.258 35.8635C117.377 35.7453 117.552 35.4475 117.732 35.23C117.761 35.5326 117.803 35.8351 117.856 36.1329C117.76 37.1445 117.423 38.1185 116.872 38.9731C116.32 39.8277 115.572 40.538 114.688 41.0442Z" fill="#E3856D"/>
<path d="M108.433 34.0388C108.815 35.5753 109.691 36.9449 110.927 37.9385C111.254 38.218 111.635 38.4272 112.046 38.5531C112.253 38.6128 112.47 38.6251 112.682 38.5891C112.894 38.553 113.095 38.4696 113.27 38.3451C113.744 37.9669 113.829 37.2862 113.863 36.6765C113.966 35.5402 113.93 34.3956 113.753 33.2683C113.575 32.1339 113.039 31.0858 112.222 30.2762C111.534 29.6427 109.651 28.7257 108.821 29.6002C107.92 30.5456 108.153 32.9091 108.433 34.0388Z" fill="#485070"/>
<path d="M109.414 31.3634C109.576 30.2904 110.79 31.0845 111.785 30.6307C112.644 30.2384 113.294 29.8933 114.261 29.9642C115.134 30.0103 115.96 30.3755 116.58 30.99C116.741 31.1601 116.888 31.3303 117.026 31.5052C117.42 32.1314 117.755 32.7929 118.026 33.4811V33.5283C118.117 34.8489 117.808 36.1661 117.14 37.3099C116.844 37.855 116.408 38.3116 115.876 38.6324C115.344 38.9532 114.736 39.1265 114.114 39.1345C113.403 39.1221 112.721 38.8573 112.189 38.3876C111.606 37.8567 111.124 37.2259 110.766 36.5252C110.202 35.4853 109.253 32.5404 109.414 31.3634Z" fill="#FFC1A6"/>
<path d="M114.109 33.3723C112.938 33.0981 111.738 32.928 110.652 32.3986C109.835 32.0205 109.176 31.3702 108.788 30.5598C108.428 29.7325 108.674 29.1417 109.153 28.4326C109.852 27.404 110.902 26.6633 112.108 26.348C113.298 26.0361 114.787 26.4946 115.93 26.8916C116.735 27.1461 117.457 27.6133 118.017 28.2436C118.965 29.3638 119.264 31.2924 119.188 32.7105C119.137 33.2958 119.017 33.8732 118.832 34.4311C118.695 34.9038 118.453 35.438 117.884 35.5042C117.509 35.5514 116.751 34.4784 116.366 34.2421C115.751 33.8775 115.082 33.6097 114.384 33.4479L114.109 33.3723Z" fill="#485070"/>
<path d="M112.307 34.6581C112.313 34.7263 112.339 34.7912 112.383 34.8446C112.426 34.8979 112.484 34.9371 112.55 34.9574C112.615 34.9777 112.685 34.978 112.751 34.9583C112.817 34.9387 112.876 34.8999 112.919 34.847C112.963 34.7941 112.99 34.7295 112.996 34.6613C113.003 34.5931 112.989 34.5245 112.957 34.4641C112.924 34.4038 112.874 34.3545 112.813 34.3226C112.753 34.2906 112.684 34.2774 112.615 34.2846C112.57 34.2888 112.527 34.3018 112.487 34.3228C112.447 34.3439 112.412 34.3726 112.383 34.4073C112.354 34.442 112.333 34.4821 112.32 34.5251C112.307 34.5682 112.302 34.6133 112.307 34.6581Z" fill="#485070"/>
<path d="M112.819 33.6748C112.586 33.6287 112.345 33.6603 112.132 33.7647" stroke="#485070" stroke-width="0.75" stroke-miterlimit="10" stroke-linecap="round"/>
<path d="M110.202 35.2206C110.209 35.2885 110.236 35.3529 110.279 35.4055C110.323 35.4581 110.381 35.4966 110.447 35.5162C110.512 35.5358 110.582 35.5355 110.648 35.5153C110.713 35.4952 110.771 35.4562 110.815 35.4032C110.858 35.3502 110.884 35.2856 110.891 35.2176C110.897 35.1496 110.883 35.0812 110.85 35.0212C110.818 34.9611 110.768 34.9121 110.707 34.8803C110.647 34.8485 110.578 34.8353 110.51 34.8424C110.419 34.8531 110.336 34.8986 110.279 34.9692C110.221 35.0398 110.194 35.13 110.202 35.2206Z" fill="#485070"/>
<path d="M110.676 34.2468C110.444 34.2003 110.204 34.2319 109.993 34.3366" stroke="#485070" stroke-width="0.75" stroke-miterlimit="10" stroke-linecap="round"/>
<path d="M111.425 35.2678C111.495 35.5676 111.446 35.8827 111.288 36.147C111.237 36.2085 111.209 36.285 111.207 36.3645C111.218 36.4061 111.242 36.4433 111.275 36.4712C111.308 36.499 111.349 36.5162 111.392 36.5205C111.477 36.5241 111.563 36.5113 111.643 36.4826" stroke="#485070" stroke-width="0.75" stroke-miterlimit="10" stroke-linecap="round"/>
<path d="M113.161 36.9837C113.015 37.1386 112.835 37.2573 112.635 37.3303C112.434 37.4034 112.22 37.4287 112.008 37.4044" stroke="#485070" stroke-width="0.75" stroke-miterlimit="10" stroke-linecap="round"/>
<path d="M118.107 33.4432C118.132 33.6905 118.083 33.9396 117.966 34.159C117.849 34.3785 117.669 34.5585 117.449 34.6762C117.23 34.794 116.98 34.8442 116.732 34.8206C116.484 34.797 116.248 34.7006 116.055 34.5435C115.862 34.3865 115.719 34.1759 115.646 33.9384C115.573 33.7008 115.572 33.4469 115.643 33.2088C115.715 32.9707 115.855 32.759 116.047 32.6005C116.239 32.4419 116.474 32.3437 116.722 32.3182C116.887 32.3012 117.054 32.3168 117.213 32.3642C117.372 32.4116 117.52 32.4897 117.649 32.5943C117.777 32.6988 117.884 32.8275 117.963 32.9732C118.041 33.1189 118.09 33.2786 118.107 33.4432Z" fill="#FFC1A6"/>
<path d="M117.04 33.0131C116.947 33.01 116.854 33.0305 116.772 33.0726C116.689 33.1148 116.618 33.1772 116.566 33.2541C116.516 33.3325 116.487 33.4221 116.481 33.5146C116.475 33.6071 116.493 33.6996 116.532 33.7836C116.581 33.7279 116.646 33.6882 116.718 33.6697C116.79 33.6511 116.866 33.6546 116.936 33.6796C117.005 33.7064 117.065 33.753 117.108 33.8135C117.151 33.874 117.175 33.9458 117.177 34.0199" stroke="#485070" stroke-width="0.75" stroke-linecap="round" stroke-linejoin="round"/>
<path d="M147.381 115.234H47.3424C45.0533 115.234 43.1976 117.083 43.1976 119.365V175.313C43.1976 177.595 45.0533 179.445 47.3424 179.445H147.381C149.67 179.445 151.526 177.595 151.526 175.313V119.365C151.526 117.083 149.67 115.234 147.381 115.234Z" fill="#DCE4FF" stroke="#485070" stroke-width="0.75" stroke-miterlimit="10"/>
<path d="M159.545 179.525H35.1783C35.1783 180.892 35.7229 182.202 36.6923 183.168C37.6617 184.135 38.9765 184.677 40.3474 184.677H154.376C155.747 184.677 157.062 184.135 158.031 183.168C159 182.202 159.545 180.892 159.545 179.525Z" fill="#BAC5EF" stroke="#485070" stroke-width="0.75" stroke-miterlimit="10"/>
<path d="M145.688 117.758H49.0354C47.2465 117.758 45.7964 119.203 45.7964 120.986V174.203C45.7964 175.986 47.2465 177.431 49.0354 177.431H145.688C147.477 177.431 148.927 175.986 148.927 174.203V120.986C148.927 119.203 147.477 117.758 145.688 117.758Z" fill="#545D78"/>
<path d="M98.8199 116.439C98.8199 116.597 98.7729 116.752 98.6849 116.883C98.5968 117.014 98.4716 117.117 98.3252 117.177C98.1788 117.238 98.0176 117.253 97.8621 117.223C97.7067 117.192 97.5639 117.116 97.4518 117.004C97.3397 116.892 97.2634 116.75 97.2324 116.595C97.2015 116.44 97.2174 116.279 97.278 116.133C97.3387 115.987 97.4414 115.863 97.5732 115.775C97.705 115.687 97.86 115.64 98.0185 115.64C98.1239 115.64 98.2284 115.66 98.3259 115.7C98.4235 115.74 98.5121 115.799 98.5866 115.873C98.6611 115.947 98.7202 116.035 98.7602 116.133C98.8003 116.23 98.8206 116.334 98.8199 116.439Z" fill="#333333"/>
<path d="M56.4286 57.1867L56.4286 177.081H138.29V57.1867H56.4286Z" fill="#FEFEFF"/>
<path d="M104.881 167.571L93.9876 154.042L84.5125 166.143L76.2988 157.294L77.3753 156.306L84.4176 163.893L93.9686 151.693L104.577 164.867L110.737 152.336L123.736 150.043L123.987 151.48L111.724 153.64L104.881 167.571Z" fill="#E6EDFF"/>
<path d="M125.737 150.762C125.737 150.387 125.625 150.02 125.416 149.709C125.206 149.397 124.909 149.155 124.561 149.013C124.213 148.87 123.83 148.834 123.461 148.909C123.093 148.984 122.755 149.166 122.491 149.433C122.226 149.7 122.047 150.039 121.977 150.407C121.906 150.776 121.947 151.157 122.095 151.502C122.242 151.847 122.489 152.14 122.804 152.345C123.119 152.55 123.488 152.657 123.864 152.652C124.363 152.646 124.839 152.444 125.19 152.09C125.541 151.736 125.737 151.259 125.737 150.762Z" fill="#FF6EA1"/>
<path d="M106.683 166.219C106.687 165.844 106.58 165.476 106.375 165.162C106.169 164.848 105.874 164.602 105.528 164.455C105.182 164.308 104.8 164.267 104.43 164.338C104.061 164.408 103.721 164.586 103.453 164.85C103.185 165.113 103.002 165.45 102.927 165.817C102.852 166.185 102.888 166.566 103.031 166.913C103.174 167.26 103.417 167.557 103.73 167.765C104.042 167.974 104.41 168.086 104.786 168.086C105.285 168.086 105.764 167.89 106.119 167.54C106.474 167.191 106.676 166.716 106.683 166.219Z" fill="#628AEC"/>
<path d="M112.886 152.988C112.886 152.614 112.774 152.248 112.566 151.937C112.358 151.627 112.061 151.384 111.715 151.241C111.368 151.098 110.987 151.061 110.619 151.133C110.251 151.206 109.913 151.387 109.647 151.651C109.382 151.915 109.201 152.252 109.128 152.619C109.055 152.986 109.093 153.366 109.236 153.712C109.38 154.057 109.623 154.352 109.935 154.56C110.247 154.768 110.614 154.879 110.989 154.879C111.492 154.879 111.974 154.68 112.33 154.325C112.686 153.97 112.886 153.489 112.886 152.988Z" fill="#FFB861"/>
<path d="M93.907 154.86C94.9442 154.86 95.785 154.022 95.785 152.988C95.785 151.954 94.9442 151.116 93.907 151.116C92.8698 151.116 92.0291 151.954 92.0291 152.988C92.0291 154.022 92.8698 154.86 93.907 154.86Z" fill="#FFB861"/>
<path d="M84.6879 166.668C85.7251 166.668 86.5658 165.83 86.5658 164.796C86.5658 163.762 85.7251 162.924 84.6879 162.924C83.6507 162.924 82.8099 163.762 82.8099 164.796C82.8099 165.83 83.6507 166.668 84.6879 166.668Z" fill="#FF6EA1"/>
<path d="M79.1205 157.176C79.1205 156.802 79.0092 156.436 78.8008 156.126C78.5924 155.815 78.2961 155.572 77.9495 155.429C77.6029 155.286 77.2215 155.249 76.8535 155.322C76.4855 155.395 76.1475 155.575 75.8823 155.839C75.617 156.103 75.4363 156.44 75.3631 156.807C75.2899 157.174 75.3275 157.554 75.4711 157.9C75.6146 158.245 75.8578 158.54 76.1697 158.748C76.4817 158.956 76.8484 159.067 77.2236 159.067C77.7267 159.067 78.2092 158.868 78.5649 158.513C78.9206 158.158 79.1205 157.677 79.1205 157.176Z" fill="#3FD4C7"/>
<path d="M68.9814 145.335V170.856H126.117" stroke="#485070" stroke-width="0.75" stroke-miterlimit="10"/>
<path d="M82.2504 104.593H73.5293V124.782H82.2504V104.593Z" fill="#FFB861"/>
<path d="M95.728 94.714H87.007V124.782H95.728V94.714Z" fill="#FF6EA1"/>
<path d="M71.9027 98.8076C82.4008 94.0272 91.743 87.0497 99.2942 78.3493" stroke="#485070" stroke-width="0.75" stroke-miterlimit="10" stroke-linecap="round"/>
<path d="M100.11 77.4181L99.4887 79.1812L99.2326 78.406L98.4312 78.2453L100.11 77.4181Z" fill="#485070"/>
<path d="M109.21 81.0768H100.489V124.782H109.21V81.0768Z" fill="#3FD4C7"/>
<path d="M122.693 100.193H113.972V124.782H122.693V100.193Z" fill="#628AEC"/>
<path d="M68.3982 81.8945V124.848H126.657" stroke="#485070" stroke-width="0.75" stroke-miterlimit="10"/>
<path d="M126.572 128.994H68.0662V131.929H126.572V128.994Z" fill="#E6EDFF"/>
<path d="M114.825 70.8618H79.6659V73.7973H114.825V70.8618Z" fill="#E6EDFF"/>
<path d="M126.501 65.733H67.995V68.6685H126.501V65.733Z" fill="#E6EDFF"/>
<path d="M126.572 134.378H68.0662V137.313H126.572V134.378Z" fill="#E6EDFF"/>
<path d="M126.572 139.762H68.0662V142.697H126.572V139.762Z" fill="#E6EDFF"/>
<path d="M124.352 39.7254C123.67 39.8861 122.996 40.0752 122.323 40.2642C122.207 40.2889 122.097 40.3372 122 40.4061C121.891 40.5275 121.822 40.6792 121.801 40.8409C121.595 41.9989 121.626 43.1862 121.891 44.3322C122.156 45.4781 122.649 46.5591 123.342 47.5107C123.76 48.0306 124.253 48.4844 124.703 48.9713C125.154 49.4582 125.747 49.8931 126.126 50.3894C126.6 50.9803 126.785 51.9351 126.999 52.6394C127.496 54.2624 127.801 55.9376 127.909 57.6311C127.985 58.7514 128.037 60.0276 128.9 60.7509C129.763 61.4741 131.115 61.285 131.997 60.6043C132.838 59.8582 133.45 58.8895 133.761 57.8107C134.773 55.075 135.239 52.1686 135.132 49.2549C135.004 46.6125 134.183 43.4266 132.481 41.3373C131.333 39.9192 129.446 39.3141 127.634 39.2858C126.526 39.2989 125.424 39.4465 124.352 39.7254Z" fill="#FF6EA1"/>
<path d="M125.974 55.5465C126.607 52.1525 127.239 48.7586 127.871 45.3646" stroke="#485070" stroke-width="0.75" stroke-miterlimit="10"/>
<path d="M126.634 46.0122C126.852 46.5653 127.07 47.1183 127.283 47.6714" stroke="#485070" stroke-width="0.75" stroke-miterlimit="10"/>
<path d="M113.801 62.8685C114.043 62.7824 114.298 62.7346 114.555 62.7267C116.86 62.6795 119.103 62.4431 121.427 62.2068C122.982 62.0508 124.533 61.9657 126.083 61.942C127.331 61.942 128.777 62.1926 129.996 61.8522C131.215 61.5119 132.158 61.129 132.803 60.0702C133.111 59.5607 133.391 59.0352 133.643 58.4961C133.812 58.2112 133.888 57.8808 133.861 57.5507C133.761 57.078 133.244 56.7991 132.737 56.6053C131.66 56.2083 130.992 55.5937 129.754 55.4661C128.462 55.3718 127.164 55.4738 125.903 55.7686C123.437 56.2839 120.971 56.4966 118.548 57.2151C115.838 58.0757 113.186 59.1099 110.609 60.3112C109.65 60.6718 108.766 61.2054 108.001 61.8853C107.497 62.3534 107.19 62.9938 107.14 63.6784C107.09 64.3629 107.301 65.0411 107.731 65.5771C107.861 65.7437 108.032 65.8746 108.227 65.9573C108.422 66.04 108.634 66.0718 108.845 66.0498C109.319 65.9694 109.604 65.3738 109.225 65.1989C111.714 66.1443 111.781 63.5823 113.801 62.8685Z" fill="#FFC1A6"/>
<path d="M106.014 63.2609V63.1096L105.9 63.3885L106.014 63.2609Z" fill="#FF6EA1"/>
<path d="M112.473 44.0647C112.329 43.7908 112.11 43.563 111.842 43.4076C111.036 42.9349 109.348 43.6582 108.622 44.0552C108.467 44.1403 108.317 44.2333 108.172 44.3341C107.318 44.9093 106.544 45.5926 105.867 46.3667C105.635 46.622 105.393 46.8772 105.184 47.1372C101.841 50.9897 99.6783 55.2298 100.219 60.3727C100.337 61.4741 100.556 62.6653 101.381 63.4121C101.719 63.6976 102.118 63.9029 102.548 64.0126C102.978 64.1223 103.426 64.1335 103.861 64.0455C104.69 63.8758 105.452 63.4722 106.057 62.8827L106.033 63.0954L106.156 62.7929C107.475 61.5166 107.783 59.7535 108.105 58.0328L111.249 50.3468C111.752 49.1131 113.369 45.7428 112.473 44.0647Z" fill="#FF6EA1"/>
<path d="M107.128 82.1262C108.575 79.7627 105.943 79.3893 105.559 77.2905C105.516 77.037 105.516 76.7782 105.559 76.5247C105.924 74.2322 106.085 71.9727 106.265 69.6423C106.389 68.0824 106.578 66.5272 106.839 64.9862C107.01 63.9463 107.418 62.7976 107.465 61.7152C107.441 61.3701 107.404 61.025 107.347 60.6894C107.122 60.2654 106.815 59.8904 106.443 59.5868C106.07 59.2831 105.641 59.0569 105.179 58.9215C104.533 58.7305 103.85 58.6996 103.188 58.8314C102.527 58.9632 101.909 59.2537 101.386 59.6779C101.123 60.0805 100.889 60.5006 100.684 60.9352C100.439 62.0666 100.344 63.2253 100.404 64.3812C100.489 66.8959 100.262 69.3681 100.565 71.8639C100.961 74.6556 101.55 77.4164 102.329 80.1267C102.526 81.1226 102.918 82.0702 103.482 82.9156C103.909 83.4859 104.535 83.877 105.237 84.0124C105.938 84.1479 106.665 84.018 107.275 83.6482C107.469 83.5457 107.633 83.3962 107.753 83.2137C107.874 83.0311 107.946 82.8213 107.963 82.6036C107.944 82.1498 107.385 81.7716 107.128 82.1262Z" fill="#FFC1A6"/>
<path d="M107.356 60.7461C108.034 57.6594 109.254 54.7165 110.96 52.0532" stroke="#485070" stroke-width="0.75" stroke-miterlimit="10"/>
<path d="M109.727 53.9535L110.96 53.1594" stroke="#485070" stroke-width="0.75" stroke-miterlimit="10"/>
<path d="M36.5441 113.253C38.3083 115.262 39.0291 117.98 39.6314 120.514C40.4028 123.801 41.1773 127.083 41.9551 130.36C42.166 131.132 42.2963 131.924 42.3439 132.723C42.3044 134.113 42.0942 135.493 41.718 136.831C41.3338 138.401 40.3901 138.306 38.9864 138.164C36.767 137.947 33.7699 137.276 32.2523 135.475C31.541 134.619 31.3039 133.47 31.1094 132.378C30.8249 130.875 30.5451 129.372 30.2606 127.864C29.1082 121.719 27.9558 115.38 29.2599 109.268C32.0949 109.665 34.6862 111.082 36.5441 113.253Z" fill="white"/>
<path d="M39.802 132.69C40.7837 133.163 41.699 133.749 42.6474 134.316C44.146 135.215 45.7109 135.848 47.2474 136.68C47.6677 136.937 48.1275 137.124 48.6085 137.233C49.4289 137.38 50.2967 137.072 51.1219 137.181C52.2316 137.332 53.1753 138.315 53.5737 139.615C54.2518 141.804 52.6679 140.986 51.6198 140.797L49.1681 140.348C45.9982 139.792 42.7949 139.445 39.5792 139.308C37.7913 139.214 34.6424 139.256 33.3051 137.63C32.6554 136.841 31.9346 133.376 32.7882 132.544C32.946 132.403 33.1343 132.302 33.3383 132.246C35.0008 131.681 36.7995 131.653 38.4789 132.166C38.9317 132.31 39.3738 132.485 39.802 132.69Z" fill="#9C5240"/>
<path d="M38.6402 158.008H7.29365C7.04612 158.012 6.8002 157.968 6.57023 157.876C6.34027 157.785 6.13088 157.649 5.95428 157.476C5.77769 157.303 5.63743 157.096 5.5417 156.869C5.44597 156.641 5.39669 156.397 5.39673 156.15C5.39669 155.904 5.44597 155.659 5.5417 155.432C5.63743 155.204 5.77769 154.998 5.95428 154.825C6.13088 154.652 6.34027 154.516 6.57023 154.424C6.8002 154.333 7.04612 154.288 7.29365 154.293H38.6402C39.1345 154.293 39.6086 154.488 39.9581 154.837C40.3076 155.185 40.5039 155.658 40.5039 156.15C40.5039 156.643 40.3076 157.115 39.9581 157.464C39.6086 157.812 39.1345 158.008 38.6402 158.008Z" fill="#485070"/>
<path d="M34.505 133.489V122.513C34.505 120.861 33.161 119.521 31.5031 119.521H6.96649C5.3086 119.521 3.96461 120.861 3.96461 122.513V133.489C3.96461 135.142 5.3086 136.481 6.96649 136.481H31.5031C33.161 136.481 34.505 135.142 34.505 133.489Z" fill="#485070"/>
<path d="M9.76911 133.726H7.87219V156.292H9.76911V133.726Z" fill="#485070"/>
<path d="M30.2321 133.726H28.3352V156.292H30.2321V133.726Z" fill="#485070"/>
<path d="M22.9195 157.077H21.0226V184.488H22.9195V157.077Z" fill="#485070"/>
<path d="M8.66413 157.077H6.76721V184.488H8.66413V157.077Z" fill="#485070"/>
<path d="M39.0717 157.077H37.1748V184.488H39.0717V157.077Z" fill="#485070"/>
<path d="M29.3359 157.077H27.439V184.488H29.3359V157.077Z" fill="#485070"/>
<path d="M58.0362 166.696C56.9644 166.923 56.2246 166.975 54.9537 167.169C53.1042 167.43 51.25 167.641 49.391 167.802C49.8652 171.135 50.3395 174.065 50.4296 174.652C50.9038 177.204 50.6477 183.6 51.7906 186.029C53.1801 186.2 54.3846 185.973 55.6888 185.864C56.3859 179.454 56.955 173.035 58.0362 166.696Z" fill="#CF9378"/>
<path d="M48.3572 172.302C48.3466 172.826 48.3863 173.35 48.4758 173.867C50.0276 175.384 52.0978 176.261 54.2709 176.32C55.4815 176.372 56.6915 176.204 57.8418 175.824C57.9746 173.328 58.1232 170.832 58.2876 168.336C58.4963 165.089 58.6622 161.842 59.0701 158.613C59.3585 155.712 59.3744 152.791 59.1175 149.887C58.2876 146.715 56.1725 145.846 56.1725 145.846C56.1725 145.846 50.2636 143.515 45.7395 142.537C40.1815 141.322 34.5334 140.419 28.947 139.228C26.2629 138.646 21.7719 138.755 20.4109 141.681C18.7795 145.037 21.9948 149.537 24.5556 151.504C27.2208 153.527 30.5072 154.548 33.7794 155.257C38.4148 156.265 43.154 156.721 47.8972 156.614C47.7455 156.604 48.3525 171.139 48.3572 172.302Z" fill="#66A3F2"/>
<path d="M47.8925 156.628C46.8634 155.607 45.8865 154.524 44.8574 153.503C43.3209 151.981 41.8271 150.416 40.3001 148.885C37.2698 145.845 34.2205 142.82 31.2565 139.715C30.4788 139.554 29.7011 139.393 28.9233 139.242C26.2392 138.661 21.7482 138.769 20.3872 141.695C18.7796 145.037 21.9948 149.537 24.5557 151.504C27.2208 153.527 30.5073 154.548 33.7794 155.257C38.4148 156.265 43.154 156.721 47.8973 156.613C47.8953 156.618 47.8937 156.623 47.8925 156.628Z" fill="#485070"/>
<path d="M47.9352 157.531C47.9352 156.051 48.1391 154.245 48.1438 152.766" stroke="#485070" stroke-width="0.397545" stroke-miterlimit="10"/>
<path d="M51.7479 144.413C47.7739 143.142 44.1602 141.965 38.313 141.175" stroke="#485070" stroke-width="0.75" stroke-miterlimit="10"/>
<path d="M51.1172 187.83H63.8361V189.201H51.5725C51.4467 189.201 51.3261 189.151 51.2372 189.063C51.1482 188.974 51.0983 188.854 51.0983 188.728V187.811L51.1172 187.83Z" fill="#B3B3B3"/>
<path d="M63.6606 188.199C63.7056 188.136 63.7453 188.07 63.7791 188C63.8981 187.646 63.8996 187.264 63.7835 186.909C63.6673 186.554 63.4397 186.245 63.1342 186.029C62.4994 185.588 61.7815 185.279 61.0239 185.122C59.458 184.644 57.8608 184.276 56.2436 184.02C55.8121 183.964 51.1788 183.548 51.2026 183.33C51.1314 184.498 51.0556 185.661 50.9844 186.823C50.8991 187.278 50.8991 187.744 50.9844 188.199H63.6606Z" fill="#485070"/>
<path d="M53.2939 182.371C53.6605 182.095 54.1041 181.94 54.563 181.928C55.0219 181.915 55.4734 182.045 55.8548 182.3C56.2263 182.568 56.5243 182.925 56.7215 183.338C56.9187 183.751 57.0088 184.207 56.9834 184.663C56.9884 184.749 56.9762 184.835 56.9478 184.916C56.9193 184.997 56.875 185.072 56.8174 185.136C56.679 185.232 56.5109 185.275 56.3432 185.259L54.1523 185.282C53.678 185.282 53.1185 185.396 52.8007 184.989C52.2459 184.261 52.7628 182.914 53.2939 182.371Z" fill="#485070"/>
<path d="M58.1263 184.356C57.9107 184.339 57.6953 184.391 57.5117 184.505C57.3282 184.619 57.1862 184.789 57.1067 184.989" stroke="#B3B3B3" stroke-width="0.75" stroke-miterlimit="10" stroke-linecap="round"/>
<path d="M58.3872 185.467C58.5024 185.283 58.6615 185.131 58.8502 185.024C59.0389 184.917 59.2513 184.858 59.4685 184.852" stroke="#B3B3B3" stroke-width="0.75" stroke-miterlimit="10" stroke-linecap="round"/>
<path d="M59.9995 185.637C60.0513 185.501 60.1425 185.383 60.2616 185.299C60.3807 185.215 60.5222 185.168 60.6682 185.164" stroke="#B3B3B3" stroke-width="0.75" stroke-miterlimit="10" stroke-linecap="round"/>
<path d="M36.9709 164.975C35.3396 165.202 33.7067 165.391 32.0721 165.543C33.3099 171.607 33.879 177.786 34.8891 183.893C36.2786 183.893 37.5448 183.59 39.0196 183.623C39.3041 181.775 39.8685 170.799 40.7411 164.361C39.498 164.642 38.2389 164.847 36.9709 164.975Z" fill="#CF9378"/>
<path d="M32.314 173.607C32.6507 174.973 33.0443 175.814 34.3958 176.349C35.57 176.818 36.8413 176.995 38.0996 176.864C39.2296 176.682 40.2868 176.191 41.1536 175.446C41.1536 175.446 42.8988 149.547 40.7315 146.228C38.0759 142.168 32.2713 141.331 27.7424 140.343C23.7826 139.474 19.7706 138.765 15.7681 137.98C14.7912 141.676 15.4978 146.016 16.911 149.424V149.476C17.475 150.787 18.3874 151.921 19.5498 152.754C20.7122 153.587 22.0806 154.088 23.5075 154.203C25.627 154.382 27.7546 154.449 29.8812 154.401C29.8764 154.425 31.1094 168.715 32.314 173.607Z" fill="#66A3F2"/>
<path d="M29.9429 155.351C29.9429 153.872 30.1468 152.066 30.1515 150.587" stroke="#485070" stroke-width="0.397545" stroke-miterlimit="10"/>
<path d="M34.5572 187.632H47.276V189.003H35.0124C34.8867 189.003 34.766 188.953 34.6771 188.864C34.5882 188.776 34.5382 188.655 34.5382 188.53V187.613L34.5572 187.632Z" fill="#B3B3B3"/>
<path d="M47.0957 188C47.144 187.939 47.1853 187.872 47.219 187.802C47.338 187.448 47.3395 187.065 47.2234 186.71C47.1072 186.355 46.8796 186.047 46.5741 185.831C45.9393 185.389 45.2214 185.081 44.4637 184.923C42.8979 184.446 41.3006 184.078 39.6835 183.822C39.252 183.765 34.6187 183.349 34.6377 183.132L34.4243 186.625C34.3366 187.079 34.3366 187.546 34.4243 188H47.0957Z" fill="#485070"/>
<path d="M36.748 182.172C37.1136 181.896 37.5564 181.741 38.0147 181.729C38.4729 181.716 38.9237 181.846 39.3041 182.101C39.6765 182.369 39.9755 182.726 40.1735 183.139C40.3716 183.552 40.4623 184.008 40.4375 184.465C40.4425 184.551 40.4303 184.636 40.4019 184.718C40.3734 184.799 40.3291 184.873 40.2715 184.937C40.1331 185.033 39.965 185.077 39.7973 185.06H37.6064C37.1321 185.06 36.5726 185.174 36.2548 184.767C35.6857 184.063 36.2216 182.702 36.748 182.172Z" fill="#485070"/>
<path d="M41.5615 184.157C41.346 184.141 41.1309 184.194 40.9475 184.308C40.7641 184.422 40.622 184.591 40.5419 184.791" stroke="#B3B3B3" stroke-width="0.75" stroke-miterlimit="10" stroke-linecap="round"/>
<path d="M41.827 185.268C41.9422 185.085 42.1013 184.933 42.29 184.825C42.4787 184.718 42.6911 184.659 42.9083 184.654" stroke="#B3B3B3" stroke-width="0.75" stroke-miterlimit="10" stroke-linecap="round"/>
<path d="M43.4347 185.439C43.4878 185.302 43.5801 185.185 43.6998 185.101C43.8196 185.017 43.9616 184.97 44.1081 184.966" stroke="#B3B3B3" stroke-width="0.75" stroke-miterlimit="10" stroke-linecap="round"/>
<path d="M15.2322 142.995C15.346 143.591 15.4598 144.186 15.5689 144.782C17.6318 143.709 20.0978 143.941 22.4358 143.941C27.5613 143.928 32.6067 142.672 37.1369 140.282C36.8352 139.051 36.651 137.794 36.5868 136.529C36.5868 135.233 36.0414 133.976 36.0414 132.681C35.956 130.927 36.0414 129.169 36.1125 127.415C36.2785 124.106 36.5014 120.741 35.8802 117.488C35.504 115.337 34.6483 113.297 33.3762 111.518C32.7834 110.719 31.9535 109.68 31.0525 109.221C30.1515 108.763 28.6387 108.895 27.5574 108.8C26.7704 108.698 25.9733 108.698 25.1863 108.8C24.2241 109.009 23.3092 109.393 22.4879 109.935C17.997 112.62 17.4516 116.95 16.1 121.61C15.4266 123.941 14.3644 126.144 13.691 128.469C13.3181 129.772 13.1486 131.124 13.1883 132.478C13.2167 133.702 13.6625 134.789 13.9138 135.995C14.3565 138.326 14.7959 140.66 15.2322 142.995Z" fill="white"/>
<path d="M27.9369 113.055C28.7789 113.764 29.8614 114.126 30.9625 114.066C31.3439 114.064 31.7158 113.947 32.0295 113.731C32.1835 113.62 32.2991 113.465 32.3603 113.286C32.4215 113.108 32.4252 112.914 32.3709 112.733" stroke="#485070" stroke-width="0.397545" stroke-miterlimit="10" stroke-linecap="round"/>
<path d="M26.9031 122.82C27.3995 124.412 28.2564 125.869 29.4076 127.078C30.5588 128.287 31.9735 129.216 33.5423 129.793" stroke="#485070" stroke-width="0.397545" stroke-miterlimit="10" stroke-linecap="round"/>
<path d="M29.8148 125.293C30.6448 126.27 31.816 126.897 33.0917 127.046" stroke="#485070" stroke-width="0.397545" stroke-miterlimit="10" stroke-linecap="round"/>
<path d="M24.0814 125.099C25.2463 128.749 27.299 132.055 30.0567 134.723" stroke="#485070" stroke-width="0.397545" stroke-miterlimit="10" stroke-linecap="round"/>
<path d="M34.4148 112.88C35.7047 115.092 35.7237 116.349 36.0129 118.302C36.3376 120.492 36.4867 122.705 36.4587 124.919C36.4066 128.625 35.5861 132.01 36.416 135.687" stroke="#485070" stroke-width="0.397545" stroke-miterlimit="10"/>
<path d="M31.7165 108.11C31.9094 107.495 32.1787 106.906 32.518 106.357C31.5148 106.325 30.5439 105.996 29.7295 105.411C29.3273 105.118 28.9527 104.789 28.6103 104.428C28.4823 104.3 28.2926 103.955 28.0982 103.747C27.8895 105.974 27.0596 108.068 25.1532 109.339C25.8484 110.488 26.8433 111.427 28.0318 112.057C29.0229 112.629 31.4984 113.74 31.5553 111.736C31.5553 111.079 31.3087 110.474 31.3656 109.807C31.418 109.23 31.5357 108.661 31.7165 108.11Z" fill="#CF9378"/>
<path d="M31.3608 109.982C31.3608 109.925 31.3608 109.864 31.3608 109.807C31.4803 108.585 31.8742 107.406 32.5132 106.357C31.51 106.325 30.539 105.996 29.7247 105.411C29.3225 105.118 28.9479 104.789 28.6055 104.428C28.4775 104.3 28.2878 103.955 28.0933 103.747C28.0601 104.073 28.0175 104.395 27.9558 104.693C28.0559 105.782 28.4176 106.831 29.0102 107.752C29.6028 108.673 30.4091 109.437 31.3608 109.982Z" fill="#9C5240"/>
<path d="M16.7782 113.253C15.0141 115.262 14.2885 117.98 13.691 120.514C12.9037 123.801 12.1197 127.083 11.3388 130.36C11.0732 131.499 10.6417 133.054 10.893 134.217C11.05 134.86 11.3332 135.466 11.7264 135.999C12.1195 136.532 12.6148 136.982 13.1835 137.323C14.3549 138.027 16.138 138.344 17.4516 137.748C18.7652 137.153 20.1547 136.571 21.07 135.47C21.7813 134.614 22.0184 133.466 22.2129 132.374C22.4974 130.871 22.7772 129.367 23.0617 127.859C24.2141 121.714 25.3665 115.376 24.0624 109.264C21.2267 109.661 18.6354 111.081 16.7782 113.253Z" fill="white"/>
<path d="M24.1003 119.36C21.5347 120.022 21.7624 123.293 21.53 125.312C21.1889 128.294 20.6198 131.246 19.8275 134.142" stroke="#485070" stroke-width="0.397545" stroke-miterlimit="10"/>
<path d="M22.1749 121.034C22.4612 120.14 23.0016 119.349 23.7304 118.755" stroke="#485070" stroke-width="0.397545" stroke-miterlimit="10"/>
<path d="M20.6574 133.281C22.0327 133.584 23.3842 134.019 24.7311 134.43C26.8746 135.073 29.0465 135.446 31.2233 136.023C31.8389 136.213 32.4763 136.324 33.1202 136.354C34.2204 136.354 35.2874 135.919 36.3876 135.881C37.1237 135.884 37.8477 136.069 38.4948 136.418C39.1419 136.768 39.692 137.272 40.0961 137.885C41.4429 139.937 39.2093 139.388 37.8056 139.37L34.5192 139.322C30.2132 139.261 26.1395 139.478 21.8193 139.838C19.4481 140.036 15.3792 140.584 13.2832 139.195C12.2683 138.523 10.5943 135.238 11.5285 134.255C11.7163 134.085 11.9376 133.956 12.1782 133.877C14.2946 133.042 16.5824 132.731 18.8459 132.969C19.4547 133.042 20.0594 133.146 20.6574 133.281Z" fill="#CF9378"/>
<path d="M56.7559 143.993H28.2973C27.9804 143.993 27.7235 144.249 27.7235 144.565V144.763C27.7235 145.079 27.9804 145.335 28.2973 145.335H56.7559C57.0728 145.335 57.3297 145.079 57.3297 144.763V144.565C57.3297 144.249 57.0728 143.993 56.7559 143.993Z" fill="#485070"/>
<path d="M60.322 145.33H35.0219L37.2223 130.842C37.2562 130.601 37.3758 130.379 37.5593 130.218C37.7429 130.057 37.9783 129.966 38.2229 129.963H61.5171C61.6586 129.966 61.7978 130 61.9251 130.062C62.0524 130.124 62.1649 130.212 62.2548 130.321C62.3448 130.43 62.4102 130.557 62.4466 130.693C62.4829 130.83 62.4894 130.972 62.4655 131.112L60.322 145.33Z" fill="#757E96"/>
<path d="M49.7609 139.024C50.6881 139.024 51.4397 138.275 51.4397 137.351C51.4397 136.427 50.6881 135.678 49.7609 135.678C48.8338 135.678 48.0822 136.427 48.0822 137.351C48.0822 138.275 48.8338 139.024 49.7609 139.024Z" fill="white"/>
<path d="M36.7291 98.8832C36.4398 97.7582 35.2305 98.7414 34.1255 98.3632C33.1771 98.0323 32.4373 97.7393 31.4129 97.9189C30.4823 98.0592 29.6371 98.5394 29.0418 99.2661C28.889 99.4586 28.7466 99.659 28.615 99.8664C28.266 100.577 27.9819 101.317 27.7661 102.079V102.131C27.8159 103.554 28.2915 104.93 29.1319 106.082C29.5065 106.631 30.0215 107.07 30.6236 107.353C31.2256 107.637 31.8928 107.754 32.5558 107.694C33.3134 107.606 34.0136 107.248 34.5286 106.687C35.0909 106.058 35.5343 105.333 35.8375 104.546C36.3449 103.369 37.0468 100.122 36.7291 98.8832Z" fill="#CF9378"/>
<path d="M31.394 99.9799C31.394 99.9295 31.4035 99.8727 31.4224 99.8097L31.7212 98.3916C32.9115 99.2803 34.2014 100.542 35.7427 101.053C36.3186 101.234 36.9367 101.235 37.5129 101.054C38.089 100.873 38.5952 100.519 38.9627 100.041C39.0896 99.8655 39.2006 99.6788 39.2946 99.4836C39.3539 99.314 39.4236 99.1482 39.5033 98.9872C39.2804 99.1019 39.0243 99.1353 38.7793 99.0818C38.5342 99.0283 38.3156 98.8912 38.1612 98.6941C37.8641 98.2926 37.638 97.8434 37.4926 97.3659C37.0505 96.2719 36.3034 95.3271 35.3396 94.6432C34.3738 93.9653 33.1949 93.6581 32.02 93.7781C31.2819 93.866 30.5801 94.1465 29.9855 94.5912C29.689 94.8079 29.4282 95.0695 29.2125 95.3664C29.1129 95.5034 28.6909 96.255 28.8616 96.4016C28.7238 96.3044 28.5603 96.2499 28.3917 96.2449C28.223 96.2398 28.0565 96.2845 27.9131 96.3732C27.6159 96.5648 27.374 96.8304 27.2113 97.1437C26.4783 98.4338 26.2074 99.9341 26.443 101.398C26.5627 102.018 26.7537 102.622 27.0121 103.199C27.2065 103.672 27.5243 104.229 28.1171 104.244C28.9422 104.244 28.8474 102.887 29.0655 102.178C29.1556 101.899 29.1366 101.554 29.4686 101.469C29.8006 101.384 30.3507 102.022 30.6115 101.502C30.6781 101.301 30.6781 101.084 30.6115 100.883C30.5448 100.681 30.5584 100.461 30.6494 100.268C30.6494 100.268 31.0857 100.268 31.1521 100.268C31.2199 100.256 31.2813 100.22 31.3255 100.168C31.3697 100.115 31.394 100.049 31.394 99.9799Z" fill="#485070"/>
<path d="M29.3643 94.3075C29.0463 94.7387 28.8478 95.2457 28.7887 95.7775C28.7296 96.3094 28.812 96.8474 29.0276 97.3375" stroke="#485070" stroke-width="0.75" stroke-miterlimit="10" stroke-linecap="round"/>
<path d="M27.0975 96.1321C27.3638 95.9761 27.676 95.9167 27.9811 95.9641C28.2863 96.0115 28.5656 96.1627 28.7716 96.3921" stroke="#485070" stroke-width="0.75" stroke-miterlimit="10" stroke-linecap="round"/>
<path d="M33.6323 103.09C33.8366 103.09 34.0022 102.925 34.0022 102.721C34.0022 102.518 33.8366 102.353 33.6323 102.353C33.4281 102.353 33.2625 102.518 33.2625 102.721C33.2625 102.925 33.4281 103.09 33.6323 103.09Z" fill="#485070"/>
<path d="M33.3431 101.724C33.587 101.649 33.8491 101.657 34.0877 101.748" stroke="#485070" stroke-width="0.75" stroke-miterlimit="10" stroke-linecap="round"/>
<path d="M36.3355 103.095C36.3355 103.168 36.3138 103.239 36.2732 103.3C36.2325 103.36 36.1747 103.408 36.1072 103.436C36.0396 103.463 35.9652 103.471 35.8934 103.457C35.8217 103.442 35.7558 103.407 35.704 103.356C35.6523 103.304 35.6171 103.238 35.6028 103.167C35.5885 103.095 35.5959 103.021 35.6239 102.954C35.6519 102.886 35.6993 102.829 35.7601 102.788C35.8209 102.748 35.8924 102.726 35.9656 102.726C36.0637 102.726 36.1578 102.765 36.2272 102.834C36.2965 102.903 36.3355 102.997 36.3355 103.095Z" fill="#485070"/>
<path d="M35.681 102.102C35.9233 102.027 36.1838 102.036 36.4208 102.126" stroke="#485070" stroke-width="0.75" stroke-miterlimit="10" stroke-linecap="round"/>
<path d="M35.0077 103.289C34.9674 103.615 35.0539 103.945 35.2495 104.21C35.3115 104.269 35.3502 104.348 35.3586 104.433C35.3511 104.477 35.3305 104.519 35.2992 104.552C35.2679 104.584 35.2275 104.607 35.1831 104.617C35.0927 104.638 34.9985 104.638 34.9081 104.617" stroke="#485070" stroke-width="0.75" stroke-miterlimit="10" stroke-linecap="round"/>
<path d="M33.3431 105.293C33.5172 105.442 33.7232 105.548 33.9452 105.605C34.1672 105.661 34.3993 105.666 34.6236 105.619" stroke="#485070" stroke-width="0.75" stroke-miterlimit="10" stroke-linecap="round"/>
<path d="M27.6856 102.05C27.6846 102.318 27.7634 102.58 27.9118 102.803C28.0603 103.026 28.2718 103.2 28.5195 103.303C28.7673 103.406 29.0401 103.433 29.3035 103.381C29.5669 103.33 29.8091 103.201 29.9992 103.013C30.1894 102.824 30.319 102.583 30.3717 102.32C30.4244 102.058 30.3979 101.786 30.2954 101.539C30.1928 101.291 30.019 101.08 29.7959 100.931C29.5727 100.782 29.3103 100.703 29.0419 100.703C28.683 100.703 28.3387 100.845 28.0845 101.097C27.8303 101.35 27.6868 101.693 27.6856 102.05Z" fill="#CF9378"/>
<path d="M28.7668 101.474C28.8649 101.463 28.9643 101.476 29.0561 101.512C29.1479 101.548 29.2293 101.607 29.2932 101.682C29.3539 101.76 29.3946 101.851 29.4119 101.948C29.4293 102.045 29.4227 102.145 29.3928 102.239C29.333 102.187 29.259 102.153 29.1801 102.143C29.1011 102.132 29.0208 102.145 28.9493 102.18C28.8778 102.215 28.8182 102.27 28.7781 102.339C28.7381 102.407 28.7193 102.486 28.7241 102.565" stroke="#485070" stroke-width="0.75" stroke-linecap="round" stroke-linejoin="round"/>
<path d="M179.482 179.331C179.444 179.161 174.602 180.007 174.066 180.088L174.004 180.14C172.33 181.558 170.21 182.328 168.129 183.08C167.798 183.169 167.496 183.342 167.251 183.581C166.303 184.682 168.309 185.16 169.02 185.216C170.178 185.254 171.335 185.141 172.463 184.881C174.796 184.474 177.172 184.607 179.482 184.039C179.576 184.026 179.663 183.981 179.728 183.912C179.767 183.848 179.787 183.774 179.785 183.699C179.911 182.236 179.809 180.763 179.482 179.331Z" fill="#485070"/>
<path d="M168.878 145.387C170.049 157.006 172.198 168.932 173.516 180.537C176.247 180.773 177.239 180.593 179.89 180.144C181.63 167.519 182.365 161.426 180.795 148.616C180.634 147.301 180.795 136.415 180.729 135.016C180.449 126.692 181.564 117.186 176.551 110.157C175.28 108.38 173.208 107.018 171.097 107.184C170.371 107.254 169.669 107.485 169.042 107.858C168.416 108.232 167.88 108.739 167.474 109.344C164.885 112.847 166.331 122.371 166.791 126.531C167.403 132.048 168.323 139.852 168.878 145.387Z" fill="#757E96"/>
<path d="M169.703 152.615C170.177 150.601 170.756 148.611 171.325 146.621C173.317 139.658 174.142 132.506 175.143 125.349C175.422 123.66 175.57 121.952 175.584 120.24C175.555 118.5 175.323 116.756 175.185 115.04C175.052 112.666 174.73 110.306 174.223 107.983C173.295 107.403 172.21 107.124 171.116 107.184C170.39 107.254 169.688 107.485 169.061 107.858C168.435 108.232 167.899 108.739 167.493 109.344C164.904 112.847 166.35 122.371 166.81 126.531C167.422 132.048 168.342 139.852 168.897 145.387C169.12 147.76 169.4 150.175 169.703 152.615Z" fill="#545D78"/>
<path d="M160.807 180.943H160.664C159.111 181.131 157.54 181.124 155.988 180.92C155.791 180.886 155.589 180.886 155.391 180.92C155.222 180.971 155.062 181.05 154.917 181.151C153.459 182.033 151.852 182.644 150.174 182.952C149.226 183.132 148.183 183.231 147.419 183.836C147.063 184.124 146.784 184.649 147.054 185.018C147.156 185.135 147.285 185.227 147.429 185.287C148.884 185.968 151.085 185.703 152.645 185.613C155.173 185.476 157.677 185.613 160.171 185.141C160.274 185.129 160.371 185.091 160.456 185.032C160.559 184.926 160.626 184.791 160.645 184.644C160.809 183.955 160.934 183.258 161.02 182.555C161.053 182.281 161.21 181.283 161.02 181.047C160.994 181.015 160.962 180.989 160.925 180.971C160.888 180.953 160.848 180.943 160.807 180.943Z" fill="#485070"/>
<path d="M166.99 108.777C161.243 108.687 159.483 114.666 158.801 119.266C157.353 128.978 156.339 138.747 155.761 148.573C155.471 153.451 155.087 157.554 154.926 162.451C154.755 167.467 154.48 176.159 154.698 181.127C154.694 181.228 154.723 181.328 154.779 181.411C154.866 181.487 154.977 181.529 155.092 181.529C157.2 181.751 159.324 181.781 161.437 181.619C161.538 181.619 161.636 181.592 161.722 181.539C161.812 181.477 161.001 181.156 161.034 181.066C162.651 176.089 163.761 167.188 164.268 161.988C165.326 151.116 167.588 140.528 171.662 130.483C175.731 120.968 178.016 108.961 166.99 108.777Z" fill="#757E96"/>
<path d="M169.347 136.349C171.655 130.859 173.636 125.239 175.28 119.516" stroke="#485070" stroke-width="0.75" stroke-miterlimit="10"/>
<path d="M168.119 121.662H168.176C168.704 121.747 169.23 121.823 169.755 121.889C170.144 121.937 170.533 121.979 170.922 122.012L171.306 122.05L172.254 122.116H172.809H173.241C175.723 122.196 178.207 122.022 180.653 121.596C180.288 117.205 179.325 112.974 176.764 109.387C175.498 107.614 173.421 106.248 171.311 106.413C170.585 106.484 169.884 106.714 169.258 107.088C168.632 107.462 168.097 107.969 167.692 108.573C167.493 108.85 167.322 109.146 167.185 109.457C162.191 109.344 159.986 114.359 158.872 118.59C160.005 119.254 161.205 119.797 162.452 120.211C164.295 120.859 166.191 121.345 168.119 121.662Z" fill="#545D78"/>
<path d="M170.623 77.5504C170.658 76.9075 170.612 76.2627 170.486 75.6313C171.437 75.9506 172.463 75.9786 173.43 75.7117C173.91 75.5774 174.377 75.4002 174.825 75.1822C174.986 75.1066 175.299 74.8703 175.541 74.7095C174.958 76.865 175 79.1198 176.342 80.9728C175.29 81.8083 174.029 82.3427 172.695 82.5185C171.562 82.7123 168.854 82.8872 169.504 80.9917C169.717 80.3677 170.177 79.8903 170.357 79.2474C170.506 78.6928 170.595 78.1239 170.623 77.5504Z" fill="#F7B699"/>
<path d="M173.246 75.7542C172.332 75.9717 171.376 75.9292 170.486 75.6313C170.612 76.2627 170.659 76.9075 170.623 77.5504C170.597 78.1287 170.507 78.7024 170.358 79.2616L170.301 79.4318C170.41 79.4318 170.524 79.3987 170.633 79.375C171.893 78.5008 172.815 77.2231 173.246 75.7542Z" fill="#C46E58"/>
<path d="M169.158 67.1606C169.822 66.2152 170.614 67.5482 171.775 67.5766C172.79 67.6049 173.578 67.5766 174.474 68.106C175.294 68.5616 175.916 69.3043 176.219 70.1906C176.293 70.4236 176.354 70.6603 176.404 70.8996C176.474 71.6859 176.474 72.4768 176.404 73.2631V73.3104C175.859 74.6263 174.933 75.7504 173.743 76.5389C173.197 76.9246 172.557 77.1578 171.89 77.2143C171.223 77.2708 170.553 77.1486 169.95 76.8603C169.273 76.5106 168.744 75.9326 168.456 75.2295C168.151 74.4436 167.99 73.6094 167.982 72.7668C167.944 71.4999 168.423 68.2147 169.158 67.1606Z" fill="#F7B699"/>
<path d="M170.471 69.3776C169.561 69.5052 168.816 69.6517 167.982 69.1649C167.344 68.7898 166.869 68.1916 166.649 67.4868C166.592 67.2778 166.554 67.0643 166.535 66.8486C166.535 66.7494 166.535 66.376 166.535 66.3098C166.703 66.4948 166.931 66.6155 167.178 66.6509C167.426 66.6863 167.678 66.6342 167.892 66.5036C168.311 66.2305 168.682 65.8884 168.987 65.492C169.782 64.6186 170.813 63.9918 171.956 63.6863C173.104 63.3898 174.32 63.514 175.384 64.0361C176.044 64.377 176.603 64.8838 177.006 65.5062C177.213 65.8134 177.373 66.1496 177.48 66.5036C177.523 66.669 177.651 67.5199 177.443 67.5955C177.609 67.5498 177.785 67.5551 177.948 67.6107C178.112 67.6664 178.254 67.7698 178.358 67.9075C178.557 68.1868 178.681 68.5123 178.718 68.8529C178.888 70.0014 178.742 71.1744 178.296 72.2468C177.953 73.0537 177.568 73.8425 177.144 74.6103C176.786 75.2668 176.242 75.803 175.579 76.1513C174.701 76.4914 173.752 76.6052 172.819 76.4822C172.419 76.5045 172.022 76.4029 171.682 76.1913C171.343 75.9798 171.077 75.6685 170.922 75.3004C170.777 74.9045 170.697 74.4879 170.685 74.0667C170.685 73.8918 170.59 72.677 170.732 72.6013C170.563 72.7041 170.374 72.7716 170.177 72.7999C170.078 72.8123 169.977 72.7957 169.887 72.7521C169.797 72.7084 169.722 72.6396 169.67 72.5541C169.612 72.376 169.62 72.1829 169.694 72.0105L170.471 69.3776Z" fill="#485070"/>
<path d="M177.665 65.4211C177.811 65.9365 177.819 66.4811 177.688 67.0004C177.556 67.5197 177.29 67.9955 176.916 68.3802" stroke="#485070" stroke-width="0.75" stroke-miterlimit="10" stroke-linecap="round"/>
<path d="M179.145 67.9311C178.949 67.6943 178.677 67.5318 178.375 67.4707C178.073 67.4096 177.759 67.4537 177.485 67.5955" stroke="#485070" stroke-width="0.75" stroke-miterlimit="10" stroke-linecap="round"/>
<path d="M172.624 73.282C172.531 73.5325 172.364 73.7496 172.147 73.9059C171.929 74.0623 171.67 74.1508 171.402 74.1602C171.134 74.1697 170.869 74.0998 170.641 73.9592C170.413 73.8187 170.231 73.6138 170.12 73.3706C170.009 73.1274 169.972 72.8567 170.015 72.5928C170.058 72.3289 170.178 72.0836 170.361 71.8879C170.544 71.6923 170.781 71.555 171.042 71.4935C171.303 71.432 171.576 71.4491 171.828 71.5425C171.995 71.6045 172.148 71.6988 172.278 71.8198C172.408 71.9408 172.514 72.0862 172.588 72.2477C172.662 72.4093 172.703 72.5838 172.709 72.7612C172.716 72.9387 172.687 73.1157 172.624 73.282Z" fill="#F7B699"/>
<path d="M171.804 72.3603C171.717 72.3114 171.619 72.2857 171.519 72.2857C171.42 72.2857 171.322 72.3114 171.235 72.3603C171.152 72.4098 171.083 72.4788 171.033 72.5612C170.984 72.6436 170.955 72.737 170.95 72.833C171.024 72.8043 171.105 72.7982 171.182 72.8154C171.259 72.8327 171.33 72.8725 171.384 72.9299C171.439 72.9872 171.475 73.0594 171.488 73.1373C171.501 73.2152 171.491 73.2952 171.458 73.3671" stroke="#485070" stroke-width="0.75" stroke-linecap="round" stroke-linejoin="round"/>
<path d="M153.802 88.6021C153.843 88.389 153.938 88.1899 154.078 88.0243C154.219 87.8586 154.4 87.732 154.604 87.6567C155.021 87.5149 155.728 87.5149 155.87 87.0942C155.936 86.8862 156.007 86.8058 155.837 86.664C155.661 86.5285 155.447 86.4523 155.225 86.4466C154.882 86.4313 154.542 86.5117 154.243 86.6787C153.944 86.8458 153.698 87.0928 153.532 87.392C153.432 87.5763 153.29 87.8174 153.091 87.7607C153.045 87.7405 153.004 87.7113 152.969 87.6747C152.935 87.6382 152.909 87.595 152.892 87.548C152.655 86.9996 152.982 86.3804 153.3 85.8699C153.522 85.4448 153.848 85.0823 154.248 84.8158C154.736 84.5992 155.276 84.527 155.803 84.6078C156.87 84.6834 157.994 84.7638 158.9 85.3972C159.137 85.5626 159.374 85.7564 159.588 85.9266C160.217 86.3233 160.901 86.6274 161.618 86.8295C161.399 87.5905 161.176 88.3515 160.958 89.1173C160.948 89.1572 160.927 89.1933 160.897 89.2213C160.855 89.2353 160.81 89.2353 160.769 89.2213C159.469 88.9046 157.971 88.6399 156.667 88.4366C155.709 88.3505 154.744 88.4062 153.802 88.6021Z" fill="#F7B699"/>
<path d="M160.944 85.1372C159.746 86.6461 159.12 88.5271 159.175 90.4503L161.679 91.4477C161.968 90.1289 162.253 88.81 162.542 87.4912C162.628 87.0942 162.983 86.2528 162.756 85.9266C162.528 85.6004 161.352 85.3263 160.944 85.1372Z" fill="white"/>
<path d="M169.556 88.2617C168.865 87.8377 168.145 87.4602 167.403 87.132C166.113 86.5553 164.762 86.0826 163.467 85.6383C162.974 85.4479 162.468 85.29 161.954 85.1656C160.532 86.664 160.057 89.2024 160.223 91.3106C161.708 92.6058 163.88 93.3763 165.516 94.3926C166.413 95.0015 167.366 95.5254 168.361 95.9572C169.36 96.3911 170.475 96.4857 171.534 96.2267C171.809 96.165 172.069 96.046 172.295 95.8773C172.522 95.7087 172.71 95.4943 172.847 95.2482C172.977 94.9209 173.032 94.5689 173.009 94.2177C172.959 93.0207 172.619 91.8536 172.017 90.8163C171.416 89.7791 170.572 88.9025 169.556 88.2617Z" fill="#545D78"/>
<path d="M145.105 96.5764C144.823 96.0831 144.653 95.5345 144.605 94.9688C144.558 94.4031 144.634 93.8339 144.83 93.3007C144.889 93.0994 144.991 92.9136 145.131 92.7567C145.27 92.5998 145.443 92.4756 145.636 92.3931C145.884 92.341 146.142 92.3646 146.376 92.4607C146.61 92.5568 146.81 92.721 146.95 92.932C147.219 93.3576 147.434 93.8149 147.59 94.2933C147.798 94.7996 148.072 95.2764 148.405 95.7114C148.8 96.1104 149.096 96.5961 149.269 97.1295C149.306 97.3515 149.29 97.5792 149.221 97.7938C149.153 98.0083 149.034 98.2035 148.875 98.3632C147.666 99.5402 145.683 97.6164 145.105 96.5764Z" fill="#F7B699"/>
<path d="M158.521 95.8579L151.327 99.337L141.804 90.7245L149.003 87.2454L158.521 95.8579Z" fill="#F4AE2D"/>
<path d="M157.345 95.4987L151.165 98.4861L142.938 91.0459L149.121 88.0585L157.345 95.4987Z" fill="white"/>
<path d="M150.06 89.6326L144.925 92.1142L144.422 91.6604L149.558 89.1788L150.06 89.6326Z" fill="#C8DDF7"/>
<path d="M152.683 92.0055L147.547 94.4871L147.044 94.0333L152.18 91.5517L152.683 92.0055Z" fill="#C8DDF7"/>
<path d="M153.551 92.7949L148.415 95.2766L147.917 94.8228L153.053 92.3411L153.551 92.7949Z" fill="#C8DDF7"/>
<path d="M154.423 93.5795L149.287 96.0612L148.785 95.6074L153.921 93.1257L154.423 93.5795Z" fill="#C8DDF7"/>
<path d="M155.291 94.3642L150.155 96.8459L149.653 96.3968L154.789 93.9152L155.291 94.3642Z" fill="#C8DDF7"/>
<path d="M156.159 95.1536L151.023 97.6353L150.521 97.1815L155.661 94.6998L156.159 95.1536Z" fill="#C8DDF7"/>
<path d="M148.813 88.758L144.493 90.8474L142.658 89.1835L146.978 87.0989L148.813 88.758Z" fill="#485070"/>
<path d="M145.849 95.7871C145.778 95.8718 145.713 95.9618 145.655 96.0565C145.11 96.9263 146.162 97.7346 146.836 98.2073C148.353 99.2708 150.212 99.7861 151.981 100.297C152.977 100.585 155.86 99.8759 155.064 98.316C154.518 97.2524 152.911 96.6379 151.853 96.3543C150.753 96.151 149.814 95.6925 149.401 94.5817C149.221 94.109 149.145 93.5607 148.984 93.0596C148.954 92.933 148.89 92.817 148.799 92.724C148.753 92.6788 148.692 92.6506 148.628 92.6437C148.563 92.6369 148.498 92.6518 148.443 92.6862C148.389 92.7353 148.351 92.7996 148.334 92.8705C148.026 93.7261 148.576 94.3595 147.519 94.8653C147.168 95.0307 146.784 95.1253 146.442 95.3096C146.219 95.4337 146.018 95.5952 145.849 95.7871Z" fill="#F7B699"/>
<path d="M151.151 94.8605C150.123 96.4879 149.703 98.4243 149.966 100.33L152.564 101.053L152.991 97.0302C153.034 96.6284 153.295 95.7492 153.039 95.4514C152.783 95.1536 151.573 94.9882 151.151 94.8605Z" fill="white"/>
<path d="M168.954 79.2427C169.512 78.8412 170.186 78.6291 170.874 78.6377L176.148 78.165C176.48 79.3373 176.813 80.5095 177.149 81.6818C177.149 81.6346 171.458 81.8567 170.903 81.8425C170.348 81.8284 168.48 82.008 168.242 81.4738C168.005 80.9397 168.532 79.654 168.954 79.2427Z" fill="white"/>
<path d="M180.511 108.46C180.511 106.593 180.62 104.73 180.738 102.868C180.895 100.443 181.08 98.0182 181.108 95.5838C181.186 92.5607 180.984 89.5369 180.506 86.5506C180.378 85.8084 180.221 85.0758 180.032 84.3573C179.994 84.206 179.956 84.05 179.913 83.8846C179.349 82.5468 178.287 80.7695 176.869 79.9801C176.633 79.9659 176.397 79.9659 176.162 79.9801C174.531 80.0873 172.909 80.2669 171.296 80.519C170.187 80.6892 169.4 80.831 168.584 81.6771C166.502 83.8373 164.548 88.6777 164.003 91.6557C163.486 94.4919 163.69 94.662 163.391 97.5266C163.04 100.939 162.542 104.333 161.897 107.708C161.352 110.545 160.541 113.636 158.175 115.314C162.101 116.954 166.075 118.623 170.282 119.266C174.488 119.909 179.017 119.483 182.612 117.181C180.909 114.6 180.501 111.556 180.511 108.46Z" fill="#757E96"/>
<path d="M170.799 89.2355C170.653 88.9134 170.428 88.6335 170.144 88.4224C169.819 88.2288 169.441 88.1412 169.063 88.1719C167.417 88.2475 166.113 89.59 165.236 90.975C164.359 92.36 163.676 93.9341 162.424 94.9976C160.237 96.86 154.969 95.3427 152.522 94.7991C150.658 96.6142 150.459 98.7177 151.426 101.166C154.708 102.584 161.613 106.011 165.179 104.314C166.399 103.67 167.418 102.704 168.124 101.521C168.562 100.843 168.961 100.141 169.319 99.4173C170.195 97.8586 170.86 96.1913 171.297 94.4587C171.737 92.7123 171.561 90.8679 170.799 89.2355Z" fill="#757E96"/>
<path d="M172.259 83.3315C171.705 82.7862 170.982 82.4429 170.207 82.3571C169.433 82.2714 168.652 82.4481 167.991 82.8589C167.218 83.3315 166.825 84.3384 166.426 85.1278C165.931 86.1068 165.509 87.1212 165.165 88.1625C164.814 89.2261 164.544 90.3133 164.216 91.3863C163.676 93.14 162.974 94.8511 162.571 96.6427C162.168 98.4342 162.096 100.358 162.751 102.064C163.699 104.504 166.938 103.208 168.375 101.852C169.608 100.684 170.201 99.0156 170.746 97.4037C171.292 95.7918 171.856 94.1752 172.406 92.5586C172.989 90.977 173.359 89.3256 173.506 87.6473C173.601 86.0165 173.317 84.4518 172.259 83.3315Z" fill="#757E96"/>
<path d="M163.533 93.4614C164.304 89.8785 165.648 86.4423 167.512 83.2842" stroke="#485070" stroke-width="0.75" stroke-miterlimit="10"/>
<path d="M173.369 90.403L171.249 96.0754C170.742 97.4367 170.263 99.1762 169.3 100.297C168.337 101.417 167.446 102.66 166.27 103.558C165.151 104.508 163.711 104.995 162.243 104.919" stroke="#485070" stroke-width="0.75" stroke-miterlimit="10"/>
<path d="M174.142 90.9041C173.501 91.269 172.974 91.8041 172.62 92.4498" stroke="#485070" stroke-width="0.75" stroke-miterlimit="10"/>
<path d="M151.986 90.0769L151.137 90.5496L151.569 89.6893L156.676 84.3809C156.702 84.3538 156.734 84.3322 156.769 84.3174C156.804 84.3027 156.842 84.2951 156.88 84.2951C156.918 84.2951 156.956 84.3027 156.991 84.3174C157.026 84.3322 157.057 84.3538 157.084 84.3809C157.137 84.4363 157.166 84.51 157.166 84.5865C157.166 84.6631 157.137 84.7368 157.084 84.7922L151.986 90.0769Z" fill="#485070"/>
</g>
<defs>
<clipPath id="clip0_6221_183">
<rect width="205" height="190" fill="white"/>
</clipPath>
</defs>
</svg>
