<svg width="20" height="20" viewBox="0 0 20 20" fill="none" xmlns="http://www.w3.org/2000/svg">
<g clip-path="url(#clip0_1030_4719)">
<g clip-path="url(#clip1_1030_4719)">
<path d="M3.99167 8.43622H10.3783V10.0329H3.99167V12.4279L0 9.23456L3.99167 6.04122V8.43622ZM3.19333 14.0246H5.35522C6.27704 14.8375 7.41387 15.3672 8.62929 15.5501C9.8447 15.733 11.0871 15.5613 12.2073 15.0556C13.3276 14.5499 14.2781 13.7317 14.9449 12.6992C15.6116 11.6666 15.9663 10.4637 15.9663 9.23456C15.9663 8.00546 15.6116 6.80247 14.9449 5.76994C14.2781 4.73741 13.3276 3.9192 12.2073 3.41351C11.0871 2.90781 9.8447 2.7361 8.62929 2.91899C7.41387 3.10187 6.27704 3.63158 5.35522 4.44456H3.19333C3.93631 3.45237 4.90044 2.64712 6.00911 2.09278C7.11779 1.53844 8.34046 1.25029 9.58 1.25122C13.9892 1.25122 17.5633 4.82536 17.5633 9.23456C17.5633 13.6438 13.9892 17.2179 9.58 17.2179C8.34046 17.2188 7.11779 16.9307 6.00911 16.3763C4.90044 15.822 3.93631 15.0167 3.19333 14.0246Z" fill="black"/>
</g>
</g>
<defs>
<clipPath id="clip0_1030_4719">
<rect width="19.16" height="19.16" fill="white"/>
</clipPath>
<clipPath id="clip1_1030_4719">
<rect width="19.1636" height="19.1636" fill="white" transform="translate(0 0.490967)"/>
</clipPath>
</defs>
</svg>
