<svg width="155" height="63" viewBox="0 0 155 63" fill="none" xmlns="http://www.w3.org/2000/svg">
<rect width="155" height="63" rx="17" fill="#FF8A00"/>
<mask id="mask0_5922_414" style="mask-type:alpha" maskUnits="userSpaceOnUse" x="0" y="0" width="155" height="63">
<rect width="155" height="63" rx="17" fill="#FF8A00"/>
</mask>
<g mask="url(#mask0_5922_414)">
<path d="M87 28.5C62.2 51.3 18.6667 50 0 46.5V58.5L4.5 62.5L12 64L22.5 65L33 66L48 67H72.5L93.5 69H116H132.5L151.5 67L160 45.5C159.833 29.1667 156.1 -3.10001 142.5 -1.50001C125.5 0.499994 118 -5.72205e-06 87 28.5Z" fill="#FF9900"/>
</g>
<path d="M100 0H138C147.389 0 155 7.61116 155 17V46C155 55.3888 147.389 63 138 63H100V0Z" fill="#FFBD71"/>
<path d="M39.9588 19.2727H41.5568L44.3352 26.0568H44.4375L47.2159 19.2727H48.8139V28H47.5611V21.6847H47.4801L44.9062 27.9872H43.8665L41.2926 21.6804H41.2116V28H39.9588V19.2727ZM53.3832 28.1321C52.7695 28.1321 52.234 27.9915 51.7766 27.7102C51.3192 27.429 50.9641 27.0355 50.7113 26.5298C50.4585 26.0241 50.332 25.4332 50.332 24.7571C50.332 24.0781 50.4585 23.4844 50.7113 22.9759C50.9641 22.4673 51.3192 22.0724 51.7766 21.7912C52.234 21.5099 52.7695 21.3693 53.3832 21.3693C53.9968 21.3693 54.5323 21.5099 54.9897 21.7912C55.4471 22.0724 55.8022 22.4673 56.055 22.9759C56.3079 23.4844 56.4343 24.0781 56.4343 24.7571C56.4343 25.4332 56.3079 26.0241 56.055 26.5298C55.8022 27.0355 55.4471 27.429 54.9897 27.7102C54.5323 27.9915 53.9968 28.1321 53.3832 28.1321ZM53.3874 27.0625C53.7852 27.0625 54.1147 26.9574 54.3761 26.7472C54.6374 26.5369 54.8306 26.2571 54.9556 25.9077C55.0835 25.5582 55.1474 25.1733 55.1474 24.7528C55.1474 24.3352 55.0835 23.9517 54.9556 23.6023C54.8306 23.25 54.6374 22.9673 54.3761 22.7543C54.1147 22.5412 53.7852 22.4347 53.3874 22.4347C52.9869 22.4347 52.6545 22.5412 52.3903 22.7543C52.1289 22.9673 51.9343 23.25 51.8065 23.6023C51.6815 23.9517 51.619 24.3352 51.619 24.7528C51.619 25.1733 51.6815 25.5582 51.8065 25.9077C51.9343 26.2571 52.1289 26.5369 52.3903 26.7472C52.6545 26.9574 52.9869 27.0625 53.3874 27.0625ZM57.9588 28V19.2727H59.233V22.5156H59.3097C59.3835 22.3793 59.4901 22.2216 59.6293 22.0426C59.7685 21.8636 59.9616 21.7074 60.2088 21.5739C60.456 21.4375 60.7827 21.3693 61.1889 21.3693C61.7173 21.3693 62.1889 21.5028 62.6037 21.7699C63.0185 22.0369 63.3438 22.4219 63.5795 22.9247C63.8182 23.4276 63.9375 24.0327 63.9375 24.7401C63.9375 25.4474 63.8196 26.054 63.5838 26.5597C63.348 27.0625 63.0241 27.4503 62.6122 27.723C62.2003 27.9929 61.7301 28.1278 61.2017 28.1278C60.804 28.1278 60.4787 28.0611 60.2259 27.9276C59.9759 27.794 59.7798 27.6378 59.6378 27.4588C59.4957 27.2798 59.3864 27.1207 59.3097 26.9815H59.2031V28H57.9588ZM59.2074 24.7273C59.2074 25.1875 59.2741 25.5909 59.4077 25.9375C59.5412 26.2841 59.7344 26.5554 59.9872 26.7514C60.2401 26.9446 60.5497 27.0412 60.9162 27.0412C61.2969 27.0412 61.6151 26.9403 61.8707 26.7386C62.1264 26.5341 62.3196 26.2571 62.4503 25.9077C62.5838 25.5582 62.6506 25.1648 62.6506 24.7273C62.6506 24.2955 62.5852 23.9077 62.4545 23.5639C62.3267 23.2202 62.1335 22.9489 61.875 22.75C61.6193 22.5511 61.2997 22.4517 60.9162 22.4517C60.5469 22.4517 60.2344 22.5469 59.9787 22.7372C59.7259 22.9276 59.5341 23.1932 59.4034 23.5341C59.2727 23.875 59.2074 24.2727 59.2074 24.7273ZM65.3683 28V21.4545H66.6424V28H65.3683ZM66.0117 20.4446C65.7901 20.4446 65.5998 20.3707 65.4407 20.223C65.2844 20.0724 65.2063 19.8935 65.2063 19.6861C65.2063 19.4759 65.2844 19.2969 65.4407 19.1491C65.5998 18.9986 65.7901 18.9233 66.0117 18.9233C66.2333 18.9233 66.4222 18.9986 66.5785 19.1491C66.7376 19.2969 66.8171 19.4759 66.8171 19.6861C66.8171 19.8935 66.7376 20.0724 66.5785 20.223C66.4222 20.3707 66.2333 20.4446 66.0117 20.4446ZM69.6307 19.2727V28H68.3565V19.2727H69.6307ZM74.1658 28.1321C73.521 28.1321 72.9656 27.9943 72.4996 27.7188C72.0366 27.4403 71.6786 27.0497 71.4258 26.5469C71.1758 26.0412 71.0508 25.4489 71.0508 24.7699C71.0508 24.0994 71.1758 23.5085 71.4258 22.9972C71.6786 22.4858 72.0309 22.0866 72.4826 21.7997C72.9371 21.5128 73.4684 21.3693 74.0763 21.3693C74.4457 21.3693 74.8036 21.4304 75.1502 21.5526C75.4968 21.6747 75.8079 21.8665 76.0835 22.1278C76.359 22.3892 76.5763 22.7287 76.7354 23.1463C76.8945 23.5611 76.9741 24.0653 76.9741 24.6591V25.1108H71.771V24.1562H75.7255C75.7255 23.821 75.6573 23.5241 75.521 23.2656C75.3846 23.0043 75.1928 22.7983 74.9457 22.6477C74.7013 22.4972 74.4144 22.4219 74.0849 22.4219C73.7269 22.4219 73.4144 22.5099 73.1474 22.6861C72.8832 22.8594 72.6786 23.0866 72.5337 23.3679C72.3917 23.6463 72.3207 23.9489 72.3207 24.2756V25.0213C72.3207 25.4588 72.3974 25.831 72.5508 26.1378C72.707 26.4446 72.9244 26.679 73.2028 26.8409C73.4812 27 73.8065 27.0795 74.1786 27.0795C74.4201 27.0795 74.6403 27.0455 74.8391 26.9773C75.038 26.9062 75.2099 26.8011 75.3548 26.6619C75.4996 26.5227 75.6104 26.3509 75.6871 26.1463L76.8931 26.3636C76.7965 26.7187 76.6232 27.0298 76.3732 27.2969C76.1261 27.5611 75.815 27.767 75.44 27.9148C75.0678 28.0597 74.6431 28.1321 74.1658 28.1321ZM39.9588 43V34.2727H43.0696C43.7457 34.2727 44.3068 34.3892 44.7528 34.6222C45.2017 34.8551 45.5369 35.1776 45.7585 35.5895C45.9801 35.9986 46.0909 36.4716 46.0909 37.0085C46.0909 37.5426 45.9787 38.0128 45.7543 38.419C45.5327 38.8224 45.1974 39.1364 44.7486 39.3608C44.3026 39.5852 43.7415 39.6974 43.0653 39.6974H40.7088V38.5639H42.946C43.3722 38.5639 43.7188 38.5028 43.9858 38.3807C44.2557 38.2585 44.4531 38.081 44.5781 37.848C44.7031 37.6151 44.7656 37.3352 44.7656 37.0085C44.7656 36.679 44.7017 36.3935 44.5739 36.152C44.4489 35.9105 44.2514 35.7259 43.9815 35.598C43.7145 35.4673 43.3636 35.402 42.929 35.402H41.2756V43H39.9588ZM44.267 39.0625L46.4233 43H44.9233L42.8097 39.0625H44.267ZM50.3299 43.1321C49.685 43.1321 49.1296 42.9943 48.6637 42.7188C48.2006 42.4403 47.8427 42.0497 47.5898 41.5469C47.3398 41.0412 47.2148 40.4489 47.2148 39.7699C47.2148 39.0994 47.3398 38.5085 47.5898 37.9972C47.8427 37.4858 48.195 37.0866 48.6467 36.7997C49.1012 36.5128 49.6325 36.3693 50.2404 36.3693C50.6097 36.3693 50.9677 36.4304 51.3143 36.5526C51.6609 36.6747 51.9719 36.8665 52.2475 37.1278C52.5231 37.3892 52.7404 37.7287 52.8995 38.1463C53.0586 38.5611 53.1381 39.0653 53.1381 39.6591V40.1108H47.935V39.1562H51.8896C51.8896 38.821 51.8214 38.5241 51.685 38.2656C51.5487 38.0043 51.3569 37.7983 51.1097 37.6477C50.8654 37.4972 50.5785 37.4219 50.2489 37.4219C49.891 37.4219 49.5785 37.5099 49.3114 37.6861C49.0472 37.8594 48.8427 38.0866 48.6978 38.3679C48.5558 38.6463 48.4847 38.9489 48.4847 39.2756V40.0213C48.4847 40.4588 48.5614 40.831 48.7148 41.1378C48.8711 41.4446 49.0884 41.679 49.3668 41.8409C49.6452 42 49.9705 42.0795 50.3427 42.0795C50.5842 42.0795 50.8043 42.0455 51.0032 41.9773C51.2021 41.9062 51.3739 41.8011 51.5188 41.6619C51.6637 41.5227 51.7745 41.3509 51.8512 41.1463L53.0572 41.3636C52.9606 41.7187 52.7873 42.0298 52.5373 42.2969C52.2901 42.5611 51.979 42.767 51.604 42.9148C51.2319 43.0597 50.8072 43.1321 50.3299 43.1321ZM57.3089 43.1321C56.6754 43.1321 56.13 42.9886 55.6726 42.7017C55.218 42.4119 54.8686 42.0128 54.6243 41.5043C54.38 40.9957 54.2578 40.4134 54.2578 39.7571C54.2578 39.0923 54.3828 38.5057 54.6328 37.9972C54.8828 37.4858 55.2351 37.0866 55.6896 36.7997C56.1442 36.5128 56.6797 36.3693 57.2962 36.3693C57.7933 36.3693 58.2365 36.4616 58.6257 36.6463C59.0149 36.8281 59.3288 37.0838 59.5675 37.4134C59.8089 37.7429 59.9524 38.1278 59.9979 38.5682H58.7578C58.6896 38.2614 58.5334 37.9972 58.2891 37.7756C58.0476 37.554 57.7237 37.4432 57.3175 37.4432C56.9624 37.4432 56.6513 37.5369 56.3842 37.7244C56.12 37.9091 55.9141 38.1733 55.7663 38.517C55.6186 38.858 55.5447 39.2614 55.5447 39.7273C55.5447 40.2045 55.6172 40.6165 55.7621 40.9631C55.907 41.3097 56.1115 41.5781 56.3757 41.7685C56.6428 41.9588 56.9567 42.054 57.3175 42.054C57.5589 42.054 57.7777 42.0099 57.9737 41.9219C58.1726 41.831 58.3388 41.7017 58.4723 41.5341C58.6087 41.3665 58.7038 41.1648 58.7578 40.929H59.9979C59.9524 41.3523 59.8146 41.7301 59.5845 42.0625C59.3544 42.3949 59.0462 42.6562 58.6598 42.8466C58.2763 43.0369 57.826 43.1321 57.3089 43.1321ZM62.6346 39.1136V43H61.3604V34.2727H62.6175V37.5199H62.6985C62.8519 37.1676 63.0863 36.8878 63.4016 36.6804C63.717 36.473 64.1289 36.3693 64.6374 36.3693C65.0863 36.3693 65.4783 36.4616 65.8136 36.6463C66.1516 36.831 66.413 37.1065 66.5977 37.473C66.7852 37.8366 66.8789 38.2912 66.8789 38.8366V43H65.6048V38.9901C65.6048 38.5099 65.4812 38.1378 65.234 37.8736C64.9869 37.6065 64.6431 37.473 64.2028 37.473C63.9016 37.473 63.6317 37.5369 63.3931 37.6648C63.1573 37.7926 62.9712 37.9801 62.8349 38.2273C62.7013 38.4716 62.6346 38.767 62.6346 39.1136ZM70.484 43.1449C70.0692 43.1449 69.6942 43.0682 69.359 42.9148C69.0238 42.7585 68.7582 42.5327 68.5621 42.2372C68.369 41.9418 68.2724 41.5795 68.2724 41.1506C68.2724 40.7812 68.3434 40.4773 68.4854 40.2386C68.6275 40 68.8192 39.8111 69.0607 39.6719C69.3022 39.5327 69.5721 39.4276 69.8704 39.3565C70.1687 39.2855 70.4727 39.2315 70.7823 39.1946C71.1744 39.1491 71.4925 39.1122 71.7369 39.0838C71.9812 39.0526 72.1587 39.0028 72.2695 38.9347C72.3803 38.8665 72.4357 38.7557 72.4357 38.6023V38.5724C72.4357 38.2003 72.3306 37.9119 72.1204 37.7074C71.913 37.5028 71.6033 37.4006 71.1914 37.4006C70.7624 37.4006 70.4244 37.4957 70.1772 37.6861C69.9329 37.8736 69.7638 38.0824 69.6701 38.3125L68.4727 38.0398C68.6147 37.642 68.8221 37.321 69.0948 37.0767C69.3704 36.8295 69.6871 36.6506 70.0451 36.5398C70.4031 36.4261 70.7795 36.3693 71.1744 36.3693C71.4357 36.3693 71.7127 36.4006 72.0053 36.4631C72.3008 36.5227 72.5763 36.6335 72.832 36.7955C73.0906 36.9574 73.3022 37.1889 73.467 37.4901C73.6317 37.7884 73.7141 38.1761 73.7141 38.6534V43H72.4698V42.1051H72.4187C72.3363 42.2699 72.2127 42.4318 72.0479 42.5909C71.8832 42.75 71.6715 42.8821 71.413 42.9872C71.1545 43.0923 70.8448 43.1449 70.484 43.1449ZM70.761 42.1222C71.1133 42.1222 71.4144 42.0526 71.6644 41.9134C71.9173 41.7741 72.109 41.5923 72.2397 41.3679C72.3732 41.1406 72.44 40.8977 72.44 40.6392V39.7955C72.3945 39.8409 72.3065 39.8835 72.1758 39.9233C72.0479 39.9602 71.9016 39.9929 71.7369 40.0213C71.5721 40.0469 71.4116 40.071 71.2553 40.0938C71.0991 40.1136 70.9684 40.1307 70.8633 40.1449C70.6161 40.1761 70.3903 40.2287 70.1857 40.3026C69.984 40.3764 69.8221 40.483 69.6999 40.6222C69.5806 40.7585 69.521 40.9403 69.521 41.1676C69.521 41.483 69.6374 41.7216 69.8704 41.8835C70.1033 42.0426 70.4002 42.1222 70.761 42.1222ZM75.4112 43V36.4545H76.6428V37.4943H76.7109C76.8303 37.142 77.0405 36.8651 77.3416 36.6634C77.6456 36.4588 77.9893 36.3565 78.3729 36.3565C78.4524 36.3565 78.5462 36.3594 78.6541 36.3651C78.7649 36.3707 78.8516 36.3778 78.9141 36.3864V37.6051C78.8629 37.5909 78.772 37.5753 78.6413 37.5582C78.5107 37.5384 78.38 37.5284 78.2493 37.5284C77.9482 37.5284 77.6797 37.5923 77.4439 37.7202C77.2109 37.8452 77.0263 38.0199 76.8899 38.2443C76.7536 38.4659 76.6854 38.7187 76.6854 39.0028V43H75.4112ZM82.5266 45.5909C82.0067 45.5909 81.5593 45.5227 81.1843 45.3864C80.8121 45.25 80.5082 45.0696 80.2724 44.8452C80.0366 44.6207 79.8604 44.375 79.744 44.108L80.8391 43.6562C80.9158 43.7812 81.0181 43.9134 81.146 44.0526C81.2766 44.1946 81.4528 44.3153 81.6744 44.4148C81.8988 44.5142 82.1871 44.5639 82.5394 44.5639C83.0224 44.5639 83.4215 44.446 83.7369 44.2102C84.0522 43.9773 84.2099 43.6051 84.2099 43.0938V41.8068H84.1289C84.0522 41.946 83.9414 42.1009 83.7965 42.2713C83.6545 42.4418 83.4585 42.5895 83.2085 42.7145C82.9585 42.8395 82.6332 42.902 82.2326 42.902C81.7156 42.902 81.2496 42.7812 80.8349 42.5398C80.4229 42.2955 80.0962 41.9361 79.8548 41.4616C79.6161 40.9844 79.4968 40.3977 79.4968 39.7017C79.4968 39.0057 79.6147 38.4091 79.8505 37.9119C80.0891 37.4148 80.4158 37.0341 80.8306 36.7699C81.2454 36.5028 81.7156 36.3693 82.2411 36.3693C82.6474 36.3693 82.9755 36.4375 83.2255 36.5739C83.4755 36.7074 83.6701 36.8636 83.8093 37.0426C83.9513 37.2216 84.0607 37.3793 84.1374 37.5156H84.2312V36.4545H85.4798V43.1449C85.4798 43.7074 85.3491 44.169 85.0877 44.5298C84.8263 44.8906 84.4727 45.1577 84.0266 45.331C83.5835 45.5043 83.0835 45.5909 82.5266 45.5909ZM82.5138 41.8452C82.8803 41.8452 83.19 41.7599 83.4428 41.5895C83.6985 41.4162 83.8917 41.169 84.0224 40.848C84.1559 40.5241 84.2227 40.1364 84.2227 39.6847C84.2227 39.2443 84.1573 38.8565 84.0266 38.5213C83.896 38.1861 83.7042 37.9247 83.4513 37.7372C83.1985 37.5469 82.886 37.4517 82.5138 37.4517C82.1303 37.4517 81.8107 37.5511 81.555 37.75C81.2994 37.946 81.1062 38.2131 80.9755 38.5511C80.8477 38.8892 80.7837 39.267 80.7837 39.6847C80.7837 40.1136 80.8491 40.4901 80.9798 40.8139C81.1104 41.1378 81.3036 41.3906 81.5593 41.5724C81.8178 41.7543 82.136 41.8452 82.5138 41.8452ZM90.0096 43.1321C89.3647 43.1321 88.8093 42.9943 88.3434 42.7188C87.8803 42.4403 87.5224 42.0497 87.2695 41.5469C87.0195 41.0412 86.8945 40.4489 86.8945 39.7699C86.8945 39.0994 87.0195 38.5085 87.2695 37.9972C87.5224 37.4858 87.8746 37.0866 88.3263 36.7997C88.7809 36.5128 89.3121 36.3693 89.9201 36.3693C90.2894 36.3693 90.6474 36.4304 90.994 36.5526C91.3406 36.6747 91.6516 36.8665 91.9272 37.1278C92.2028 37.3892 92.4201 37.7287 92.5792 38.1463C92.7383 38.5611 92.8178 39.0653 92.8178 39.6591V40.1108H87.6147V39.1562H91.5692C91.5692 38.821 91.5011 38.5241 91.3647 38.2656C91.2283 38.0043 91.0366 37.7983 90.7894 37.6477C90.5451 37.4972 90.2582 37.4219 89.9286 37.4219C89.5707 37.4219 89.2582 37.5099 88.9911 37.6861C88.7269 37.8594 88.5224 38.0866 88.3775 38.3679C88.2354 38.6463 88.1644 38.9489 88.1644 39.2756V40.0213C88.1644 40.4588 88.2411 40.831 88.3945 41.1378C88.5508 41.4446 88.7681 41.679 89.0465 41.8409C89.3249 42 89.6502 42.0795 90.0224 42.0795C90.2638 42.0795 90.484 42.0455 90.6829 41.9773C90.8817 41.9062 91.0536 41.8011 91.1985 41.6619C91.3434 41.5227 91.4542 41.3509 91.5309 41.1463L92.7369 41.3636C92.6403 41.7187 92.467 42.0298 92.217 42.2969C91.9698 42.5611 91.6587 42.767 91.2837 42.9148C90.9116 43.0597 90.4869 43.1321 90.0096 43.1321Z" fill="white"/>
<path d="M32.5817 52.528L34.2172 53.9689L36.0929 52.8587L35.2279 54.8593L36.8634 56.3002L34.6934 56.0958L33.8284 58.0965L33.3522 55.9695L31.1822 55.7651L33.0579 54.655L32.5817 52.528Z" fill="white"/>
<path d="M9.89673 51.3766L9.56609 52.4003L10.4376 53.0312L9.36174 53.0331L9.03109 54.0568L8.69685 53.0342L7.62104 53.0361L8.49028 52.4022L8.15603 51.3797L9.02749 52.0105L9.89673 51.3766Z" fill="white"/>
<path d="M50.9359 14.8682L50.6053 15.892L51.4767 16.5228L50.4009 16.5247L50.0703 17.5484L49.736 16.5259L48.6602 16.5278L49.5295 15.8939L49.1952 14.8713L50.0667 15.5021L50.9359 14.8682Z" fill="white"/>
<path d="M25.5995 5.08754L25.2894 6.4409L26.4806 7.15406L25.0977 7.27731L24.7876 8.63067L24.243 7.35349L22.86 7.47674L23.9064 6.56415L23.3618 5.28697L24.5531 6.00014L25.5995 5.08754Z" fill="white"/>
<path d="M28.2476 12H12.7524C10.68 12 9 13.7099 9 15.8191V47.1809C9 49.2901 10.68 51 12.7524 51H28.2476C30.32 51 32 49.2901 32 47.1809V15.8191C32 13.7099 30.32 12 28.2476 12Z" stroke="white" stroke-width="2" stroke-miterlimit="10"/>
<path d="M22.4917 15H17.5083C17.2276 15 17 15.31 17 15.6924V16.3076C17 16.69 17.2276 17 17.5083 17H22.4917C22.7724 17 23 16.69 23 16.3076V15.6924C23 15.31 22.7724 15 22.4917 15Z" fill="white"/>
<path d="M25 26L23.6206 28H15L16.3794 26H25Z" fill="white"/>
<path d="M25 30L23.6206 32H15L16.3794 30H25Z" fill="white"/>
<path d="M25 41.7734L23.747 43L16 35.4131V34H17.0631L25 41.7734Z" fill="white"/>
<path d="M19.5271 27C21.4445 27.3246 22.8632 28.9223 22.9906 30.6629C23.179 33.2265 20.4966 35.1469 18.6592 34.9912C18.4345 34.971 18.2131 34.9201 18 34.8395" stroke="white" stroke-width="1.5" stroke-miterlimit="10"/>
<path d="M20 34H17V35H20V34Z" fill="white"/>
</svg>
