<svg width="155" height="63" viewBox="0 0 155 63" fill="none" xmlns="http://www.w3.org/2000/svg">
<rect width="155" height="63" rx="17" fill="#BD00FF"/>
<mask id="mask0_5922_413" style="mask-type:alpha" maskUnits="userSpaceOnUse" x="0" y="0" width="155" height="63">
<rect width="155" height="63" rx="17" fill="#FF8A00"/>
</mask>
<g mask="url(#mask0_5922_413)">
<path d="M87 28.5C62.2 51.3 18.6667 50 0 46.5V58.5L4.5 62.5L12 64L22.5 65L33 66L48 67H72.5L93.5 69H116H132.5L151.5 67L160 45.5C159.833 29.1667 156.1 -3.10001 142.5 -1.50001C125.5 0.499994 118 -5.72205e-06 87 28.5Z" fill="#DB00FF"/>
<path d="M56.5817 49.528L58.2172 50.9689L60.0929 49.8587L59.2279 51.8593L60.8634 53.3002L58.6934 53.0958L57.8284 55.0965L57.3522 52.9695L55.1822 52.7651L57.0579 51.655L56.5817 49.528Z" fill="white"/>
<path d="M57.1954 6.91312L57.1045 8.28544L58.3816 8.79598L57.0483 9.13358L56.9574 10.5059L56.2243 9.34223L54.8911 9.67983L55.7713 8.62304L55.0382 7.45937L56.3152 7.96991L57.1954 6.91312Z" fill="white"/>
<path d="M15.4771 8.92536L15.2596 10.2671L16.4684 10.8885L15.1252 11.0963L14.9077 12.438L14.295 11.2247L12.9518 11.4325L13.9164 10.4748L13.3037 9.26155L14.5125 9.883L15.4771 8.92536Z" fill="white"/>
</g>
<path d="M71.1477 29V17.3636H75.5114C76.4053 17.3636 77.1553 17.5189 77.7614 17.8295C78.3712 18.1402 78.8314 18.5758 79.142 19.1364C79.4564 19.6932 79.6136 20.3428 79.6136 21.0852C79.6136 21.8314 79.4545 22.4792 79.1364 23.0284C78.822 23.5739 78.358 23.9962 77.7443 24.2955C77.1307 24.5909 76.3769 24.7386 75.483 24.7386H72.375V22.9886H75.1989C75.7216 22.9886 76.1496 22.9167 76.483 22.7727C76.8163 22.625 77.0625 22.411 77.2216 22.1307C77.3845 21.8466 77.4659 21.4981 77.4659 21.0852C77.4659 20.6723 77.3845 20.3201 77.2216 20.0284C77.0587 19.733 76.8106 19.5095 76.4773 19.358C76.1439 19.2027 75.714 19.125 75.1875 19.125H73.2557V29H71.1477ZM77.1591 23.7273L80.0398 29H77.6875L74.858 23.7273H77.1591ZM85.2017 29.1705C84.3267 29.1705 83.571 28.9886 82.9347 28.625C82.3021 28.2576 81.8153 27.7386 81.4744 27.0682C81.1335 26.3939 80.9631 25.6004 80.9631 24.6875C80.9631 23.7898 81.1335 23.0019 81.4744 22.3239C81.8191 21.642 82.3002 21.1117 82.9176 20.733C83.535 20.3504 84.2604 20.1591 85.0938 20.1591C85.6316 20.1591 86.1392 20.2462 86.6165 20.4205C87.0975 20.5909 87.5218 20.8561 87.8892 21.2159C88.2604 21.5758 88.5521 22.0341 88.7642 22.5909C88.9763 23.1439 89.0824 23.803 89.0824 24.5682V25.1989H81.929V23.8125H87.1108C87.107 23.4186 87.0218 23.0682 86.8551 22.7614C86.6884 22.4508 86.4555 22.2064 86.1562 22.0284C85.8608 21.8504 85.5161 21.7614 85.1222 21.7614C84.7017 21.7614 84.3324 21.8636 84.0142 22.0682C83.696 22.2689 83.4479 22.5341 83.2699 22.8636C83.0956 23.1894 83.0066 23.5473 83.0028 23.9375V25.1477C83.0028 25.6553 83.0956 26.0909 83.2812 26.4545C83.4669 26.8144 83.7263 27.0909 84.0597 27.2841C84.393 27.4735 84.7831 27.5682 85.2301 27.5682C85.5294 27.5682 85.8002 27.5265 86.0426 27.4432C86.285 27.3561 86.4953 27.2292 86.6733 27.0625C86.8513 26.8958 86.9858 26.6894 87.0767 26.4432L88.9972 26.6591C88.8759 27.1667 88.6449 27.6098 88.304 27.9886C87.9669 28.3636 87.535 28.6553 87.0085 28.8636C86.482 29.0682 85.8797 29.1705 85.2017 29.1705ZM92.5767 29L90.1108 20.2727H92.2074L93.7415 26.4091H93.821L95.3892 20.2727H97.4631L99.0312 26.375H99.1165L100.628 20.2727H102.73L100.259 29H98.1165L96.4801 23.1023H96.3608L94.7244 29H92.5767ZM106.678 29.1761C106.125 29.1761 105.626 29.0777 105.183 28.8807C104.744 28.6799 104.395 28.3845 104.138 27.9943C103.884 27.6042 103.757 27.1231 103.757 26.5511C103.757 26.0587 103.848 25.6515 104.03 25.3295C104.212 25.0076 104.46 24.75 104.774 24.5568C105.089 24.3636 105.443 24.2178 105.837 24.1193C106.234 24.017 106.645 23.9432 107.07 23.8977C107.581 23.8447 107.996 23.7973 108.314 23.7557C108.632 23.7102 108.863 23.642 109.007 23.5511C109.155 23.4564 109.229 23.3106 109.229 23.1136V23.0795C109.229 22.6515 109.102 22.3201 108.848 22.0852C108.594 21.8504 108.229 21.733 107.751 21.733C107.248 21.733 106.848 21.8428 106.553 22.0625C106.261 22.2822 106.064 22.5417 105.962 22.8409L104.041 22.5682C104.193 22.0379 104.443 21.5947 104.791 21.2386C105.14 20.8788 105.566 20.6098 106.07 20.4318C106.573 20.25 107.13 20.1591 107.74 20.1591C108.161 20.1591 108.579 20.2083 108.996 20.3068C109.412 20.4053 109.793 20.5682 110.138 20.7955C110.482 21.0189 110.759 21.3239 110.967 21.7102C111.179 22.0966 111.286 22.5795 111.286 23.1591V29H109.308V27.8011H109.24C109.115 28.0436 108.939 28.2708 108.712 28.483C108.488 28.6913 108.206 28.8598 107.865 28.9886C107.528 29.1136 107.132 29.1761 106.678 29.1761ZM107.212 27.6648C107.625 27.6648 107.982 27.5833 108.286 27.4205C108.589 27.2538 108.821 27.0341 108.984 26.7614C109.151 26.4886 109.234 26.1913 109.234 25.8693V24.8409C109.17 24.8939 109.06 24.9432 108.905 24.9886C108.753 25.0341 108.583 25.0739 108.393 25.108C108.204 25.142 108.017 25.1723 107.831 25.1989C107.645 25.2254 107.484 25.2481 107.348 25.267C107.041 25.3087 106.767 25.3769 106.524 25.4716C106.282 25.5663 106.09 25.6989 105.95 25.8693C105.81 26.036 105.74 26.2519 105.74 26.517C105.74 26.8958 105.878 27.1818 106.155 27.375C106.431 27.5682 106.784 27.6648 107.212 27.6648ZM113.354 29V20.2727H115.348V21.7273H115.439C115.598 21.2235 115.871 20.8352 116.257 20.5625C116.647 20.286 117.092 20.1477 117.592 20.1477C117.706 20.1477 117.833 20.1534 117.973 20.1648C118.117 20.1723 118.236 20.1856 118.331 20.2045V22.0966C118.244 22.0663 118.106 22.0398 117.916 22.017C117.731 21.9905 117.551 21.9773 117.376 21.9773C117.001 21.9773 116.664 22.0587 116.365 22.2216C116.07 22.3807 115.837 22.6023 115.666 22.8864C115.496 23.1705 115.411 23.4981 115.411 23.8693V29H113.354ZM122.577 29.1534C121.891 29.1534 121.277 28.9773 120.736 28.625C120.194 28.2727 119.766 27.7614 119.452 27.0909C119.137 26.4205 118.98 25.6061 118.98 24.6477C118.98 23.678 119.139 22.8598 119.457 22.1932C119.779 21.5227 120.213 21.017 120.759 20.6761C121.304 20.3314 121.912 20.1591 122.582 20.1591C123.094 20.1591 123.514 20.2462 123.844 20.4205C124.173 20.5909 124.435 20.7973 124.628 21.0398C124.821 21.2784 124.971 21.5038 125.077 21.7159H125.162V17.3636H127.224V29H125.202V27.625H125.077C124.971 27.8371 124.817 28.0625 124.616 28.3011C124.416 28.536 124.151 28.7367 123.821 28.9034C123.491 29.0701 123.077 29.1534 122.577 29.1534ZM123.151 27.4659C123.586 27.4659 123.957 27.3485 124.264 27.1136C124.571 26.875 124.804 26.5436 124.963 26.1193C125.122 25.6951 125.202 25.2008 125.202 24.6364C125.202 24.072 125.122 23.5814 124.963 23.1648C124.808 22.7481 124.577 22.4242 124.27 22.1932C123.967 21.9621 123.594 21.8466 123.151 21.8466C122.692 21.8466 122.31 21.9659 122.003 22.2045C121.696 22.4432 121.465 22.7727 121.31 23.1932C121.154 23.6136 121.077 24.0947 121.077 24.6364C121.077 25.1818 121.154 25.6686 121.31 26.0966C121.469 26.5208 121.702 26.8561 122.009 27.1023C122.319 27.3447 122.7 27.4659 123.151 27.4659ZM136.314 22.5795L134.439 22.7841C134.386 22.5947 134.293 22.4167 134.161 22.25C134.032 22.0833 133.857 21.9489 133.638 21.8466C133.418 21.7443 133.149 21.6932 132.831 21.6932C132.403 21.6932 132.043 21.786 131.751 21.9716C131.464 22.1572 131.321 22.3977 131.325 22.6932C131.321 22.947 131.414 23.1534 131.604 23.3125C131.797 23.4716 132.115 23.6023 132.558 23.7045L134.047 24.0227C134.873 24.2008 135.486 24.483 135.888 24.8693C136.293 25.2557 136.498 25.7614 136.501 26.3864C136.498 26.9356 136.337 27.4205 136.018 27.8409C135.704 28.2576 135.267 28.5833 134.706 28.8182C134.145 29.053 133.501 29.1705 132.774 29.1705C131.706 29.1705 130.846 28.947 130.195 28.5C129.543 28.0492 129.155 27.4223 129.03 26.6193L131.036 26.4261C131.126 26.8201 131.32 27.1174 131.615 27.3182C131.911 27.5189 132.295 27.6193 132.768 27.6193C133.257 27.6193 133.649 27.5189 133.945 27.3182C134.244 27.1174 134.393 26.8693 134.393 26.5739C134.393 26.3239 134.297 26.1174 134.104 25.9545C133.914 25.7917 133.619 25.6667 133.217 25.5795L131.729 25.267C130.892 25.0928 130.272 24.7992 129.871 24.3864C129.469 23.9697 129.27 23.4432 129.274 22.8068C129.27 22.2689 129.416 21.803 129.712 21.4091C130.011 21.0114 130.426 20.7045 130.956 20.4886C131.49 20.2689 132.106 20.1591 132.803 20.1591C133.825 20.1591 134.63 20.3769 135.217 20.8125C135.808 21.2481 136.174 21.8371 136.314 22.5795Z" fill="white"/>
<path d="M70.571 38V33.6364H71.4205V38H70.571ZM71 32.9631C70.8523 32.9631 70.7254 32.9138 70.6193 32.8153C70.5152 32.715 70.4631 32.5956 70.4631 32.4574C70.4631 32.3172 70.5152 32.1979 70.6193 32.0994C70.7254 31.9991 70.8523 31.9489 71 31.9489C71.1477 31.9489 71.2737 31.9991 71.3778 32.0994C71.4839 32.1979 71.5369 32.3172 71.5369 32.4574C71.5369 32.5956 71.4839 32.715 71.3778 32.8153C71.2737 32.9138 71.1477 32.9631 71 32.9631ZM73.4126 35.4091V38H72.5632V33.6364H73.3786V34.3466H73.4325C73.5329 34.1155 73.6901 33.9299 73.9041 33.7898C74.12 33.6496 74.3918 33.5795 74.7195 33.5795C75.0168 33.5795 75.2772 33.642 75.5007 33.767C75.7242 33.8902 75.8975 34.0739 76.0206 34.3182C76.1437 34.5625 76.2053 34.8646 76.2053 35.2244V38H75.3558V35.3267C75.3558 35.0104 75.2734 34.7633 75.1087 34.5852C74.9439 34.4053 74.7176 34.3153 74.4297 34.3153C74.2327 34.3153 74.0575 34.358 73.9041 34.4432C73.7526 34.5284 73.6323 34.6534 73.5433 34.8182C73.4562 34.9811 73.4126 35.178 73.4126 35.4091ZM80.9212 33.6364L79.3388 38H78.4297L76.8445 33.6364H77.7564L78.8615 36.9943H78.907L80.0092 33.6364H80.9212ZM81.7195 38V33.6364H82.5689V38H81.7195ZM82.1484 32.9631C82.0007 32.9631 81.8738 32.9138 81.7678 32.8153C81.6636 32.715 81.6115 32.5956 81.6115 32.4574C81.6115 32.3172 81.6636 32.1979 81.7678 32.0994C81.8738 31.9991 82.0007 31.9489 82.1484 31.9489C82.2962 31.9489 82.4221 31.9991 82.5263 32.0994C82.6323 32.1979 82.6854 32.3172 82.6854 32.4574C82.6854 32.5956 82.6323 32.715 82.5263 32.8153C82.4221 32.9138 82.2962 32.9631 82.1484 32.9631ZM85.7486 33.6364V34.3182H83.3651V33.6364H85.7486ZM84.0043 32.5909H84.8537V36.7188C84.8537 36.8835 84.8783 37.0076 84.9276 37.0909C84.9768 37.1723 85.0402 37.2282 85.1179 37.2585C85.1974 37.2869 85.2836 37.3011 85.3764 37.3011C85.4446 37.3011 85.5043 37.2964 85.5554 37.2869C85.6065 37.2775 85.6463 37.2699 85.6747 37.2642L85.8281 37.9659C85.7789 37.9848 85.7088 38.0038 85.6179 38.0227C85.527 38.0436 85.4134 38.0549 85.277 38.0568C85.0535 38.0606 84.8452 38.0208 84.652 37.9375C84.4588 37.8542 84.3026 37.7254 84.1832 37.5511C84.0639 37.3769 84.0043 37.1581 84.0043 36.8949V32.5909ZM88.522 38.0881C88.0921 38.0881 87.7218 37.9962 87.4112 37.8125C87.1025 37.6269 86.8639 37.3665 86.6953 37.0312C86.5286 36.6941 86.4453 36.2992 86.4453 35.8466C86.4453 35.3996 86.5286 35.0057 86.6953 34.6648C86.8639 34.3239 87.0987 34.0578 87.3999 33.8665C87.7029 33.6752 88.0571 33.5795 88.4624 33.5795C88.7086 33.5795 88.9472 33.6203 89.1783 33.7017C89.4093 33.7831 89.6167 33.911 89.8004 34.0852C89.9841 34.2595 90.129 34.4858 90.2351 34.7642C90.3411 35.0407 90.3942 35.3769 90.3942 35.7727V36.0739H86.9254V35.4375H89.5618C89.5618 35.214 89.5163 35.0161 89.4254 34.8438C89.3345 34.6695 89.2067 34.5322 89.0419 34.4318C88.879 34.3314 88.6877 34.2812 88.468 34.2812C88.2294 34.2812 88.0211 34.34 87.843 34.4574C87.6669 34.5729 87.5305 34.7244 87.4339 34.9119C87.3393 35.0975 87.2919 35.2992 87.2919 35.517V36.0142C87.2919 36.3059 87.343 36.554 87.4453 36.7585C87.5495 36.9631 87.6944 37.1193 87.88 37.2273C88.0656 37.3333 88.2824 37.3864 88.5305 37.3864C88.6915 37.3864 88.8383 37.3636 88.9709 37.3182C89.1035 37.2708 89.218 37.2008 89.3146 37.108C89.4112 37.0152 89.4851 36.9006 89.5362 36.7642L90.3402 36.9091C90.2758 37.1458 90.1603 37.3532 89.9936 37.5312C89.8288 37.7074 89.6214 37.8447 89.3714 37.9432C89.1233 38.0398 88.8402 38.0881 88.522 38.0881ZM95.5305 33.6364V34.3182H93.0646V33.6364H95.5305ZM93.7408 38V33.1307C93.7408 32.858 93.8004 32.6316 93.9197 32.4517C94.0391 32.2699 94.1972 32.1345 94.3942 32.0455C94.5911 31.9545 94.8052 31.9091 95.0362 31.9091C95.2067 31.9091 95.3525 31.9233 95.4737 31.9517C95.5949 31.9782 95.6849 32.0028 95.7436 32.0256L95.5447 32.7131C95.505 32.7017 95.4538 32.6884 95.3913 32.6733C95.3288 32.6562 95.2531 32.6477 95.1641 32.6477C94.9576 32.6477 94.8099 32.6989 94.7209 32.8011C94.6338 32.9034 94.5902 33.0511 94.5902 33.2443V38H93.7408ZM96.407 38V33.6364H97.228V34.3295H97.2734C97.353 34.0947 97.4931 33.91 97.6939 33.7756C97.8965 33.6392 98.1257 33.571 98.3814 33.571C98.4344 33.571 98.4969 33.5729 98.5689 33.5767C98.6428 33.5805 98.7005 33.5852 98.7422 33.5909V34.4034C98.7081 34.3939 98.6475 34.3835 98.5604 34.3722C98.4732 34.3589 98.3861 34.3523 98.299 34.3523C98.0982 34.3523 97.9193 34.3949 97.7621 34.4801C97.6068 34.5634 97.4837 34.6799 97.3928 34.8295C97.3018 34.9773 97.2564 35.1458 97.2564 35.3352V38H96.407ZM99.4773 38V33.6364H100.327V38H99.4773ZM99.9062 32.9631C99.7585 32.9631 99.6316 32.9138 99.5256 32.8153C99.4214 32.715 99.3693 32.5956 99.3693 32.4574C99.3693 32.3172 99.4214 32.1979 99.5256 32.0994C99.6316 31.9991 99.7585 31.9489 99.9062 31.9489C100.054 31.9489 100.18 31.9991 100.284 32.0994C100.39 32.1979 100.443 32.3172 100.443 32.4574C100.443 32.5956 100.39 32.715 100.284 32.8153C100.18 32.9138 100.054 32.9631 99.9062 32.9631ZM103.35 38.0881C102.92 38.0881 102.55 37.9962 102.239 37.8125C101.931 37.6269 101.692 37.3665 101.523 37.0312C101.357 36.6941 101.273 36.2992 101.273 35.8466C101.273 35.3996 101.357 35.0057 101.523 34.6648C101.692 34.3239 101.927 34.0578 102.228 33.8665C102.531 33.6752 102.885 33.5795 103.29 33.5795C103.537 33.5795 103.775 33.6203 104.006 33.7017C104.237 33.7831 104.445 33.911 104.629 34.0852C104.812 34.2595 104.957 34.4858 105.063 34.7642C105.169 35.0407 105.222 35.3769 105.222 35.7727V36.0739H101.754V35.4375H104.39C104.39 35.214 104.344 35.0161 104.254 34.8438C104.163 34.6695 104.035 34.5322 103.87 34.4318C103.707 34.3314 103.516 34.2812 103.296 34.2812C103.058 34.2812 102.849 34.34 102.671 34.4574C102.495 34.5729 102.359 34.7244 102.262 34.9119C102.167 35.0975 102.12 35.2992 102.12 35.517V36.0142C102.12 36.3059 102.171 36.554 102.273 36.7585C102.378 36.9631 102.522 37.1193 102.708 37.2273C102.894 37.3333 103.111 37.3864 103.359 37.3864C103.52 37.3864 103.666 37.3636 103.799 37.3182C103.932 37.2708 104.046 37.2008 104.143 37.108C104.239 37.0152 104.313 36.9006 104.364 36.7642L105.168 36.9091C105.104 37.1458 104.988 37.3532 104.822 37.5312C104.657 37.7074 104.45 37.8447 104.2 37.9432C103.951 38.0398 103.668 38.0881 103.35 38.0881ZM107.014 35.4091V38H106.165V33.6364H106.98V34.3466H107.034C107.134 34.1155 107.292 33.9299 107.506 33.7898C107.722 33.6496 107.993 33.5795 108.321 33.5795C108.618 33.5795 108.879 33.642 109.102 33.767C109.326 33.8902 109.499 34.0739 109.622 34.3182C109.745 34.5625 109.807 34.8646 109.807 35.2244V38H108.957V35.3267C108.957 35.0104 108.875 34.7633 108.71 34.5852C108.545 34.4053 108.319 34.3153 108.031 34.3153C107.834 34.3153 107.659 34.358 107.506 34.4432C107.354 34.5284 107.234 34.6534 107.145 34.8182C107.058 34.9811 107.014 35.178 107.014 35.4091ZM112.58 38.0852C112.227 38.0852 111.913 37.9953 111.636 37.8153C111.362 37.6335 111.146 37.375 110.989 37.0398C110.833 36.7027 110.756 36.2983 110.756 35.8267C110.756 35.3551 110.834 34.9517 110.991 34.6165C111.151 34.2812 111.368 34.0246 111.645 33.8466C111.921 33.6686 112.235 33.5795 112.585 33.5795C112.856 33.5795 113.074 33.625 113.239 33.7159C113.405 33.8049 113.534 33.9091 113.625 34.0284C113.718 34.1477 113.79 34.2528 113.841 34.3438H113.892V32.1818H114.741V38H113.912V37.321H113.841C113.79 37.4138 113.716 37.5199 113.619 37.6392C113.525 37.7585 113.394 37.8627 113.227 37.9517C113.061 38.0407 112.845 38.0852 112.58 38.0852ZM112.767 37.3608C113.011 37.3608 113.218 37.2964 113.386 37.1676C113.557 37.0369 113.686 36.8561 113.773 36.625C113.862 36.3939 113.906 36.125 113.906 35.8182C113.906 35.5152 113.863 35.25 113.776 35.0227C113.688 34.7955 113.561 34.6184 113.392 34.4915C113.223 34.3646 113.015 34.3011 112.767 34.3011C112.511 34.3011 112.298 34.3674 112.128 34.5C111.957 34.6326 111.829 34.8134 111.741 35.0426C111.656 35.2718 111.614 35.5303 111.614 35.8182C111.614 36.1098 111.657 36.3722 111.744 36.6051C111.831 36.8381 111.96 37.0227 112.131 37.1591C112.303 37.2936 112.515 37.3608 112.767 37.3608ZM119.224 34.7017L118.454 34.8381C118.422 34.7396 118.371 34.6458 118.3 34.5568C118.232 34.4678 118.139 34.3949 118.022 34.3381C117.905 34.2812 117.758 34.2528 117.582 34.2528C117.341 34.2528 117.14 34.3068 116.979 34.4148C116.818 34.5208 116.738 34.6581 116.738 34.8267C116.738 34.9725 116.792 35.09 116.9 35.179C117.008 35.268 117.182 35.3409 117.423 35.3977L118.116 35.5568C118.517 35.6496 118.817 35.7926 119.013 35.9858C119.21 36.179 119.309 36.4299 119.309 36.7386C119.309 37 119.233 37.233 119.082 37.4375C118.932 37.6402 118.723 37.7992 118.454 37.9148C118.187 38.0303 117.877 38.0881 117.525 38.0881C117.036 38.0881 116.638 37.9839 116.329 37.7756C116.02 37.5653 115.831 37.267 115.761 36.8807L116.582 36.7557C116.633 36.9697 116.738 37.1316 116.897 37.2415C117.056 37.3494 117.263 37.4034 117.519 37.4034C117.798 37.4034 118.02 37.3456 118.187 37.2301C118.353 37.1127 118.437 36.9697 118.437 36.8011C118.437 36.6648 118.386 36.5502 118.283 36.4574C118.183 36.3646 118.029 36.2945 117.82 36.2472L117.082 36.0852C116.674 35.9924 116.373 35.8447 116.178 35.642C115.985 35.4394 115.888 35.1828 115.888 34.8722C115.888 34.6146 115.96 34.3892 116.104 34.196C116.248 34.0028 116.447 33.8523 116.701 33.7443C116.955 33.6345 117.246 33.5795 117.573 33.5795C118.045 33.5795 118.416 33.6818 118.687 33.8864C118.958 34.089 119.137 34.3608 119.224 34.7017ZM72.4006 47.7273C72.054 47.7273 71.7557 47.6818 71.5057 47.5909C71.2576 47.5 71.0549 47.3797 70.8977 47.2301C70.7405 47.0805 70.6231 46.9167 70.5455 46.7386L71.2756 46.4375C71.3267 46.5208 71.3949 46.6089 71.4801 46.7017C71.5672 46.7964 71.6847 46.8769 71.8324 46.9432C71.982 47.0095 72.1742 47.0426 72.4091 47.0426C72.7311 47.0426 72.9972 46.964 73.2074 46.8068C73.4176 46.6515 73.5227 46.4034 73.5227 46.0625V45.2045H73.4688C73.4176 45.2973 73.3438 45.4006 73.2472 45.5142C73.1525 45.6278 73.0218 45.7263 72.8551 45.8097C72.6884 45.893 72.4716 45.9347 72.2045 45.9347C71.8598 45.9347 71.5492 45.8542 71.2727 45.6932C70.9981 45.5303 70.7803 45.2907 70.6193 44.9744C70.4602 44.6562 70.3807 44.2652 70.3807 43.8011C70.3807 43.3371 70.4593 42.9394 70.6165 42.608C70.7756 42.2765 70.9934 42.0227 71.2699 41.8466C71.5464 41.6686 71.8598 41.5795 72.2102 41.5795C72.4811 41.5795 72.6998 41.625 72.8665 41.7159C73.0331 41.8049 73.1629 41.9091 73.2557 42.0284C73.3504 42.1477 73.4233 42.2528 73.4744 42.3438H73.5369V41.6364H74.3693V46.0966C74.3693 46.4716 74.2822 46.7794 74.108 47.0199C73.9337 47.2604 73.6979 47.4384 73.4006 47.554C73.1051 47.6695 72.7718 47.7273 72.4006 47.7273ZM72.392 45.2301C72.6364 45.2301 72.8428 45.1733 73.0114 45.0597C73.1818 44.9441 73.3106 44.7794 73.3977 44.5653C73.4867 44.3494 73.5312 44.0909 73.5312 43.7898C73.5312 43.4962 73.4877 43.2377 73.4006 43.0142C73.3134 42.7907 73.1856 42.6165 73.017 42.4915C72.8485 42.3646 72.6402 42.3011 72.392 42.3011C72.1364 42.3011 71.9233 42.3674 71.7528 42.5C71.5824 42.6307 71.4536 42.8087 71.3665 43.0341C71.2813 43.2595 71.2386 43.5114 71.2386 43.7898C71.2386 44.0758 71.2822 44.3267 71.3693 44.5426C71.4564 44.7585 71.5852 44.9271 71.7557 45.0483C71.928 45.1695 72.1402 45.2301 72.392 45.2301ZM77.3892 46.0881C76.9593 46.0881 76.589 45.9962 76.2784 45.8125C75.9697 45.6269 75.7311 45.3665 75.5625 45.0312C75.3958 44.6941 75.3125 44.2992 75.3125 43.8466C75.3125 43.3996 75.3958 43.0057 75.5625 42.6648C75.7311 42.3239 75.9659 42.0578 76.267 41.8665C76.5701 41.6752 76.9242 41.5795 77.3295 41.5795C77.5758 41.5795 77.8144 41.6203 78.0455 41.7017C78.2765 41.7831 78.4839 41.911 78.6676 42.0852C78.8513 42.2595 78.9962 42.4858 79.1023 42.7642C79.2083 43.0407 79.2614 43.3769 79.2614 43.7727V44.0739H75.7926V43.4375H78.429C78.429 43.214 78.3835 43.0161 78.2926 42.8438C78.2017 42.6695 78.0739 42.5322 77.9091 42.4318C77.7462 42.3314 77.5549 42.2812 77.3352 42.2812C77.0966 42.2812 76.8883 42.34 76.7102 42.4574C76.5341 42.5729 76.3977 42.7244 76.3011 42.9119C76.2064 43.0975 76.1591 43.2992 76.1591 43.517V44.0142C76.1591 44.3059 76.2102 44.554 76.3125 44.7585C76.4167 44.9631 76.5616 45.1193 76.7472 45.2273C76.9328 45.3333 77.1496 45.3864 77.3977 45.3864C77.5587 45.3864 77.7055 45.3636 77.8381 45.3182C77.9706 45.2708 78.0852 45.2008 78.1818 45.108C78.2784 45.0152 78.3523 44.9006 78.4034 44.7642L79.2074 44.9091C79.143 45.1458 79.0275 45.3532 78.8608 45.5312C78.696 45.7074 78.4886 45.8447 78.2386 45.9432C77.9905 46.0398 77.7074 46.0881 77.3892 46.0881ZM82.2408 41.6364V42.3182H79.8572V41.6364H82.2408ZM80.4964 40.5909H81.3459V44.7188C81.3459 44.8835 81.3705 45.0076 81.4197 45.0909C81.469 45.1723 81.5324 45.2282 81.6101 45.2585C81.6896 45.2869 81.7758 45.3011 81.8686 45.3011C81.9368 45.3011 81.9964 45.2964 82.0476 45.2869C82.0987 45.2775 82.1385 45.2699 82.1669 45.2642L82.3203 45.9659C82.2711 45.9848 82.201 46.0038 82.1101 46.0227C82.0192 46.0436 81.9055 46.0549 81.7692 46.0568C81.5457 46.0606 81.3374 46.0208 81.1442 45.9375C80.951 45.8542 80.7947 45.7254 80.6754 45.5511C80.5561 45.3769 80.4964 45.1581 80.4964 44.8949V40.5909ZM85.2976 46V41.6364H86.1186V42.3295H86.1641C86.2436 42.0947 86.3838 41.91 86.5845 41.7756C86.7872 41.6392 87.0163 41.571 87.272 41.571C87.325 41.571 87.3875 41.5729 87.4595 41.5767C87.5334 41.5805 87.5911 41.5852 87.6328 41.5909V42.4034C87.5987 42.3939 87.5381 42.3835 87.451 42.3722C87.3639 42.3589 87.2768 42.3523 87.1896 42.3523C86.9889 42.3523 86.8099 42.3949 86.6527 42.4801C86.4974 42.5634 86.3743 42.6799 86.2834 42.8295C86.1925 42.9773 86.147 43.1458 86.147 43.3352V46H85.2976ZM90.0923 46.0881C89.6624 46.0881 89.2921 45.9962 88.9815 45.8125C88.6728 45.6269 88.4342 45.3665 88.2656 45.0312C88.099 44.6941 88.0156 44.2992 88.0156 43.8466C88.0156 43.3996 88.099 43.0057 88.2656 42.6648C88.4342 42.3239 88.669 42.0578 88.9702 41.8665C89.2732 41.6752 89.6274 41.5795 90.0327 41.5795C90.2789 41.5795 90.5175 41.6203 90.7486 41.7017C90.9796 41.7831 91.187 41.911 91.3707 42.0852C91.5545 42.2595 91.6993 42.4858 91.8054 42.7642C91.9115 43.0407 91.9645 43.3769 91.9645 43.7727V44.0739H88.4957V43.4375H91.1321C91.1321 43.214 91.0866 43.0161 90.9957 42.8438C90.9048 42.6695 90.777 42.5322 90.6122 42.4318C90.4493 42.3314 90.258 42.2812 90.0384 42.2812C89.7997 42.2812 89.5914 42.34 89.4134 42.4574C89.2372 42.5729 89.1009 42.7244 89.0043 42.9119C88.9096 43.0975 88.8622 43.2992 88.8622 43.517V44.0142C88.8622 44.3059 88.9134 44.554 89.0156 44.7585C89.1198 44.9631 89.2647 45.1193 89.4503 45.2273C89.6359 45.3333 89.8527 45.3864 90.1009 45.3864C90.2618 45.3864 90.4086 45.3636 90.5412 45.3182C90.6738 45.2708 90.7884 45.2008 90.8849 45.108C90.9815 45.0152 91.0554 44.9006 91.1065 44.7642L91.9105 44.9091C91.8461 45.1458 91.7306 45.3532 91.5639 45.5312C91.3991 45.7074 91.1918 45.8447 90.9418 45.9432C90.6937 46.0398 90.4105 46.0881 90.0923 46.0881ZM93.8452 46L92.5611 41.6364H93.4389L94.294 44.8409H94.3366L95.1946 41.6364H96.0724L96.9247 44.8267H96.9673L97.8168 41.6364H98.6946L97.4134 46H96.5469L95.6605 42.8494H95.5952L94.7088 46H93.8452ZM100.771 46.0966C100.494 46.0966 100.244 46.0455 100.021 45.9432C99.7971 45.839 99.62 45.6884 99.4893 45.4915C99.3606 45.2945 99.2962 45.053 99.2962 44.767C99.2962 44.5208 99.3435 44.3182 99.4382 44.1591C99.5329 44 99.6607 43.8741 99.8217 43.7812C99.9827 43.6884 100.163 43.6184 100.362 43.571C100.56 43.5237 100.763 43.4877 100.969 43.4631C101.231 43.4328 101.443 43.4081 101.606 43.3892C101.769 43.3684 101.887 43.3352 101.961 43.2898C102.035 43.2443 102.072 43.1705 102.072 43.0682V43.0483C102.072 42.8002 102.002 42.608 101.862 42.4716C101.723 42.3352 101.517 42.267 101.242 42.267C100.956 42.267 100.731 42.3305 100.566 42.4574C100.403 42.5824 100.29 42.7216 100.228 42.875L99.4297 42.6932C99.5244 42.428 99.6626 42.214 99.8445 42.0511C100.028 41.8864 100.239 41.767 100.478 41.6932C100.717 41.6174 100.968 41.5795 101.231 41.5795C101.405 41.5795 101.59 41.6004 101.785 41.642C101.982 41.6818 102.165 41.7557 102.336 41.8636C102.508 41.9716 102.649 42.1259 102.759 42.3267C102.869 42.5256 102.924 42.7841 102.924 43.1023V46H102.094V45.4034H102.06C102.005 45.5133 101.923 45.6212 101.813 45.7273C101.703 45.8333 101.562 45.9214 101.39 45.9915C101.218 46.0616 101.011 46.0966 100.771 46.0966ZM100.955 45.4148C101.19 45.4148 101.391 45.3684 101.558 45.2756C101.726 45.1828 101.854 45.0616 101.941 44.9119C102.03 44.7604 102.075 44.5985 102.075 44.4261V43.8636C102.044 43.8939 101.986 43.9223 101.898 43.9489C101.813 43.9735 101.716 43.9953 101.606 44.0142C101.496 44.0312 101.389 44.0473 101.285 44.0625C101.181 44.0758 101.094 44.0871 101.023 44.0966C100.859 44.1174 100.708 44.1525 100.572 44.2017C100.437 44.2509 100.329 44.322 100.248 44.4148C100.168 44.5057 100.129 44.6269 100.129 44.7784C100.129 44.9886 100.206 45.1477 100.362 45.2557C100.517 45.3617 100.715 45.4148 100.955 45.4148ZM104.055 46V41.6364H104.876V42.3295H104.922C105.001 42.0947 105.142 41.91 105.342 41.7756C105.545 41.6392 105.774 41.571 106.03 41.571C106.083 41.571 106.145 41.5729 106.217 41.5767C106.291 41.5805 106.349 41.5852 106.391 41.5909V42.4034C106.357 42.3939 106.296 42.3835 106.209 42.3722C106.122 42.3589 106.035 42.3523 105.947 42.3523C105.747 42.3523 105.568 42.3949 105.411 42.4801C105.255 42.5634 105.132 42.6799 105.041 42.8295C104.95 42.9773 104.905 43.1458 104.905 43.3352V46H104.055ZM108.603 46.0852C108.251 46.0852 107.936 45.9953 107.66 45.8153C107.385 45.6335 107.169 45.375 107.012 45.0398C106.857 44.7027 106.779 44.2983 106.779 43.8267C106.779 43.3551 106.858 42.9517 107.015 42.6165C107.174 42.2812 107.392 42.0246 107.668 41.8466C107.945 41.6686 108.258 41.5795 108.609 41.5795C108.879 41.5795 109.097 41.625 109.262 41.7159C109.429 41.8049 109.558 41.9091 109.648 42.0284C109.741 42.1477 109.813 42.2528 109.864 42.3438H109.915V40.1818H110.765V46H109.935V45.321H109.864C109.813 45.4138 109.739 45.5199 109.643 45.6392C109.548 45.7585 109.417 45.8627 109.251 45.9517C109.084 46.0407 108.868 46.0852 108.603 46.0852ZM108.79 45.3608C109.035 45.3608 109.241 45.2964 109.41 45.1676C109.58 45.0369 109.709 44.8561 109.796 44.625C109.885 44.3939 109.93 44.125 109.93 43.8182C109.93 43.5152 109.886 43.25 109.799 43.0227C109.712 42.7955 109.584 42.6184 109.415 42.4915C109.247 42.3646 109.039 42.3011 108.79 42.3011C108.535 42.3011 108.322 42.3674 108.151 42.5C107.981 42.6326 107.852 42.8134 107.765 43.0426C107.68 43.2718 107.637 43.5303 107.637 43.8182C107.637 44.1098 107.681 44.3722 107.768 44.6051C107.855 44.8381 107.984 45.0227 108.154 45.1591C108.326 45.2936 108.539 45.3608 108.79 45.3608ZM115.247 42.7017L114.477 42.8381C114.445 42.7396 114.394 42.6458 114.324 42.5568C114.256 42.4678 114.163 42.3949 114.045 42.3381C113.928 42.2812 113.781 42.2528 113.605 42.2528C113.365 42.2528 113.164 42.3068 113.003 42.4148C112.842 42.5208 112.761 42.6581 112.761 42.8267C112.761 42.9725 112.815 43.09 112.923 43.179C113.031 43.268 113.205 43.3409 113.446 43.3977L114.139 43.5568C114.541 43.6496 114.84 43.7926 115.037 43.9858C115.234 44.179 115.332 44.4299 115.332 44.7386C115.332 45 115.257 45.233 115.105 45.4375C114.955 45.6402 114.746 45.7992 114.477 45.9148C114.21 46.0303 113.901 46.0881 113.548 46.0881C113.06 46.0881 112.661 45.9839 112.352 45.7756C112.044 45.5653 111.854 45.267 111.784 44.8807L112.605 44.7557C112.656 44.9697 112.761 45.1316 112.92 45.2415C113.08 45.3494 113.287 45.4034 113.543 45.4034C113.821 45.4034 114.044 45.3456 114.21 45.2301C114.377 45.1127 114.46 44.9697 114.46 44.8011C114.46 44.6648 114.409 44.5502 114.307 44.4574C114.206 44.3646 114.052 44.2945 113.844 44.2472L113.105 44.0852C112.698 43.9924 112.397 43.8447 112.202 43.642C112.009 43.4394 111.912 43.1828 111.912 42.8722C111.912 42.6146 111.984 42.3892 112.128 42.196C112.272 42.0028 112.471 41.8523 112.724 41.7443C112.978 41.6345 113.269 41.5795 113.597 41.5795C114.068 41.5795 114.439 41.6818 114.71 41.8864C114.981 42.089 115.16 42.3608 115.247 42.7017Z" fill="white"/>
<path d="M42.8025 29H18.1975C17.5361 29 17 29.5658 17 30.2637V45.7363C17 46.4342 17.5361 47 18.1975 47H42.8025C43.4639 47 44 46.4342 44 45.7363V30.2637C44 29.5658 43.4639 29 42.8025 29Z" stroke="white" stroke-width="2" stroke-miterlimit="10"/>
<path d="M44.4049 23H16.5951C15.7142 23 15 23.6796 15 24.518V27.482C15 28.3204 15.7142 29 16.5951 29H44.4049C45.2858 29 46 28.3204 46 27.482V24.518C46 23.6796 45.2858 23 44.4049 23Z" stroke="white" stroke-width="2" stroke-miterlimit="10"/>
<path d="M33.4909 23H28.5091C28.2279 23 28 23.215 28 23.4802V46.5198C28 46.785 28.2279 47 28.5091 47H33.4909C33.7721 47 34 46.785 34 46.5198V23.4802C34 23.215 33.7721 23 33.4909 23Z" stroke="white" stroke-width="2" stroke-miterlimit="10"/>
<path d="M30.8771 22.621C30.1155 23.7177 25.5388 22.4008 23.0221 19.1054C21.4374 17.0294 20.4754 13.9169 21.304 13.1762C22.2598 12.3223 25.4402 14.7645 27.0967 16.3772C28.9347 18.1657 31.6057 21.5692 30.8771 22.621Z" stroke="white" stroke-width="2" stroke-miterlimit="10"/>
<path d="M31.1107 22.6958C31.7962 23.575 35.9148 22.5214 38.18 19.884C39.6064 18.224 40.4721 15.7321 39.7264 15.1411C38.8662 14.4576 36.0036 16.4114 34.5129 17.7013C32.8577 19.1321 30.4548 21.8546 31.1107 22.6958Z" stroke="white" stroke-width="2" stroke-miterlimit="10"/>
</svg>
