<svg width="20" height="20" viewBox="0 0 20 20" fill="none" xmlns="http://www.w3.org/2000/svg">
<path d="M5.395 9.185V17.1683H15.7733V9.185H5.395ZM14.975 7.58833H16.5717C16.7834 7.58833 16.9865 7.67244 17.1362 7.82216C17.2859 7.97188 17.37 8.17494 17.37 8.38667V17.9667C17.37 18.1784 17.2859 18.3815 17.1362 18.5312C16.9865 18.6809 16.7834 18.765 16.5717 18.765H3.79833C3.5866 18.765 3.38354 18.6809 3.23383 18.5312C3.08411 18.3815 3 18.1784 3 17.9667V8.38667C3 8.17494 3.08411 7.97188 3.23383 7.82216C3.38354 7.67244 3.5866 7.58833 3.79833 7.58833H5.395V6.79C5.395 5.51961 5.89966 4.30126 6.79796 3.40296C7.69626 2.50466 8.91461 2 10.185 2C11.4554 2 12.6737 2.50466 13.572 3.40296C14.4703 4.30126 14.975 5.51961 14.975 6.79V7.58833ZM13.3783 7.58833V6.79C13.3783 5.94308 13.0419 5.13084 12.443 4.53197C11.8442 3.93311 11.0319 3.59667 10.185 3.59667C9.33808 3.59667 8.52584 3.93311 7.92697 4.53197C7.32811 5.13084 6.99167 5.94308 6.99167 6.79V7.58833H13.3783ZM6.19333 9.98333H7.79V11.58H6.19333V9.98333ZM6.19333 12.3783H7.79V13.975H6.19333V12.3783ZM6.19333 14.7733H7.79V16.37H6.19333V14.7733Z" fill="black"/>
</svg>
