<svg width="39" height="38" viewBox="0 0 39 38" fill="none" xmlns="http://www.w3.org/2000/svg">
<path d="M15.0316 17.9049C15.2219 18.095 15.4759 18.196 15.7351 18.196C15.863 18.196 15.9922 18.1709 16.1155 18.1201C16.4872 17.966 16.7294 17.6035 16.7294 17.2014L16.7292 2.7547C16.7292 2.2055 16.2838 1.7601 15.7346 1.7601C11.61 1.7601 7.73037 3.36587 4.81131 6.28093C4.62461 6.46735 4.51969 6.72074 4.51941 6.98446C4.51941 7.24873 4.62406 7.50157 4.81103 7.68826L15.0316 17.9049ZM14.74 3.78539V14.8015L6.94582 7.01093C9.13984 5.11662 11.8499 3.99507 14.74 3.78553V3.78539Z" fill="white"/>
<path d="M29.892 21.5598H15.8575L5.92792 11.6339C5.53947 11.2462 4.91018 11.2457 4.52169 11.6341C1.60577 14.5498 0 18.4283 0 22.5545C0 31.071 6.92917 38 15.4455 38C23.9597 38 30.8866 31.0708 30.8866 22.5545C30.8866 22.0053 30.4412 21.56 29.892 21.56L29.892 21.5598ZM15.4452 36.0108C8.02542 36.0108 1.98869 29.9744 1.98869 22.5543C1.98869 19.2929 3.13953 16.2095 5.2496 13.7685L14.7419 23.2572C14.9283 23.4437 15.1812 23.5483 15.4449 23.5483H28.8607C28.3508 30.5065 22.5287 36.0104 15.4449 36.0104L15.4452 36.0108Z" fill="white"/>
<path d="M20.0432 19.946C20.5924 19.946 21.0378 19.5003 21.0378 18.9514V17.426C21.0378 16.8768 20.5921 16.4314 20.0432 16.4314C19.494 16.4314 19.0486 16.8771 19.0486 17.426V18.9514C19.0486 19.5006 19.494 19.946 20.0432 19.946Z" fill="white"/>
<path d="M24.7047 13.4478V18.9515C24.7047 19.5007 25.1504 19.9461 25.6993 19.9461C26.2485 19.9461 26.6939 19.5004 26.6939 18.9515V13.4478C26.6939 12.8986 26.2485 12.4532 25.6993 12.4532C25.1504 12.4532 24.7047 12.8985 24.7047 13.4478Z" fill="white"/>
<path d="M31.3549 14.2428C30.8057 14.2428 30.3604 14.6882 30.3604 15.2374V18.9509C30.3604 19.5001 30.806 19.9455 31.3549 19.9455C31.9041 19.9455 32.3495 19.4998 32.3495 18.9509V15.2374C32.3498 14.6885 31.9042 14.2428 31.3549 14.2428Z" fill="white"/>
<path d="M37.0117 7.51459C36.4625 7.51459 36.0171 7.95998 36.0171 8.50918V18.9509C36.0171 19.5001 36.4628 19.9455 37.0117 19.9455C37.5609 19.9455 38.0063 19.4999 38.0063 18.9509V8.50918C38.0063 7.95998 37.5606 7.51459 37.0117 7.51459Z" fill="white"/>
<path d="M20.0431 13.1127C20.296 13.1127 20.5485 13.017 20.7422 12.825L25.9947 7.63016L31.1013 8.97696C31.4808 9.07742 31.8829 8.94542 32.1297 8.63929L37.7861 1.61861C38.1304 1.19108 38.0632 0.564858 37.6351 0.220228C37.2073 -0.124973 36.5811 -0.0566039 36.2367 0.370925L30.9856 6.88988L25.9532 5.56265C25.6125 5.47252 25.2502 5.56963 25.0005 5.81716L19.3441 11.4113C18.9534 11.7975 18.9501 12.4271 19.3363 12.8176C19.5305 13.0143 19.7867 13.1128 20.0431 13.1128L20.0431 13.1127Z" fill="white"/>
</svg>
