<svg width="19" height="18" viewBox="0 0 19 18" fill="none" xmlns="http://www.w3.org/2000/svg">
<g clip-path="url(#clip0_6273_1157)">
<path d="M7.52794 14.9077C6.98598 14.9214 6.44446 14.867 5.91627 14.7457C4.45307 14.4289 3.11933 13.6833 2.08771 12.6054C1.47361 11.9694 0.980576 11.2283 0.632449 10.4179C0.317218 9.67852 0.119911 8.89493 0.0476244 8.09528C-0.0115786 7.47384 0.0112816 6.84738 0.115626 6.23181C0.241443 5.47793 0.487045 4.74867 0.843257 4.07127C1.25585 3.2718 1.80849 2.55164 2.47533 1.94449C3.21238 1.27453 4.07717 0.757992 5.01863 0.425364C5.82403 0.140706 6.67303 -0.0032098 7.52794 6.97847e-06C7.68071 0.00196521 7.8289 0.0520693 7.95113 0.143085C8.07336 0.2341 8.1633 0.361319 8.20797 0.506384C8.24596 0.652998 8.23615 0.8078 8.17994 0.948528C8.12373 1.08926 8.02403 1.20866 7.89516 1.28958C7.79608 1.3534 7.68002 1.38632 7.56194 1.3841C7.17918 1.39071 6.79738 1.42456 6.41949 1.48538C5.98026 1.57794 5.55016 1.70898 5.13424 1.87698C4.19843 2.27196 3.37764 2.89417 2.74734 3.68643C2.27787 4.26929 1.92055 4.93303 1.69329 5.64442C1.41972 6.47773 1.3361 7.36099 1.44848 8.23032C1.62589 9.76491 2.39628 11.1712 3.59737 12.153C4.19762 12.6499 4.89097 13.0239 5.63746 13.2536C6.35033 13.4931 7.10303 13.594 7.85435 13.5506C9.25216 13.4772 10.5801 12.9207 11.6081 11.9775C12.4057 11.2728 13.0015 10.3714 13.3354 9.3646C13.5307 8.74572 13.6361 8.10232 13.6482 7.45387C13.6482 7.27481 13.7198 7.10307 13.8474 6.97645C13.9749 6.84984 14.1479 6.7787 14.3282 6.7787C14.5086 6.7787 14.6815 6.84984 14.8091 6.97645C14.9366 7.10307 15.0083 7.27481 15.0083 7.45387C15.0026 7.9323 14.9525 8.40918 14.8586 8.87848C14.6885 9.78362 14.3445 10.6478 13.8454 11.4239C13.0561 12.6725 11.9103 13.6596 10.5541 14.2596C10.0917 14.4673 9.60846 14.6258 9.11241 14.7322C8.59294 14.8518 8.06118 14.9107 7.52794 14.9077Z" fill="white"/>
<path d="M13.961 12.2948C14.0519 12.2932 14.1421 12.3111 14.2254 12.3472C14.3087 12.3833 14.3832 12.4368 14.4438 12.5041L18.354 16.3796C18.5104 16.5349 18.6668 16.6834 18.8096 16.8387C18.9036 16.9384 18.965 17.064 18.9857 17.199C19.0063 17.334 18.9852 17.472 18.9252 17.5949C18.8688 17.7246 18.7728 17.8334 18.6508 17.9061C18.5288 17.9787 18.387 18.0116 18.2452 18C18.0575 17.9864 17.8823 17.9018 17.7556 17.7637L14.437 14.4216L13.4714 13.4696C13.3933 13.3996 13.3327 13.3126 13.2942 13.2153C13.2557 13.1181 13.2405 13.0134 13.2498 12.9093C13.259 12.8053 13.2924 12.7048 13.3474 12.6157C13.4024 12.5267 13.4774 12.4515 13.5666 12.3961C13.6811 12.3154 13.8215 12.2793 13.961 12.2948Z" fill="white"/>
</g>
<defs>
<clipPath id="clip0_6273_1157">
<rect width="19" height="18" fill="white"/>
</clipPath>
</defs>
</svg>
