<svg width="16" height="15" viewBox="0 0 16 15" fill="none" xmlns="http://www.w3.org/2000/svg">
<g clip-path="url(#clip0_5889_344)">
<path d="M6.3393 12.4231C5.88292 12.4345 5.4269 12.3892 4.98211 12.2881C3.74994 12.024 2.62679 11.4027 1.75806 10.5045C1.24092 9.97451 0.825734 9.35689 0.532575 8.68155C0.267116 8.06543 0.100963 7.41244 0.0400903 6.74606C-0.0097649 6.22819 0.00948581 5.70614 0.097355 5.19317C0.203306 4.56494 0.410129 3.95722 0.710096 3.39272C1.05754 2.7265 1.52293 2.12636 2.08447 1.62041C2.70515 1.06211 3.43339 0.631656 4.2262 0.354466C4.90444 0.117251 5.61938 -0.00267864 6.3393 2.00069e-06C6.46795 0.00163386 6.59275 0.0433873 6.69567 0.119233C6.7986 0.19508 6.87434 0.301096 6.91196 0.421982C6.94395 0.544161 6.93569 0.673163 6.88836 0.790436C6.84102 0.90771 6.75706 1.00721 6.64854 1.07465C6.5651 1.12783 6.46737 1.15527 6.36794 1.15341C6.04561 1.15892 5.7241 1.18713 5.40587 1.23781C5.03599 1.31495 4.6738 1.42415 4.32356 1.56414C3.5355 1.89329 2.84431 2.41181 2.31353 3.07202C1.91819 3.55774 1.61729 4.11085 1.42592 4.70368C1.19554 5.3981 1.12512 6.13415 1.21976 6.85859C1.36915 8.13742 2.01791 9.30936 3.02935 10.1275C3.53482 10.5416 4.11869 10.8533 4.74732 11.0446C5.34763 11.2443 5.98148 11.3283 6.61418 11.2922C7.79128 11.231 8.90953 10.7673 9.77524 9.98125C10.4469 9.39402 10.9487 8.64286 11.2298 7.80383C11.3943 7.28809 11.483 6.75193 11.4932 6.21155C11.4932 6.06233 11.5535 5.91922 11.6609 5.81371C11.7683 5.70819 11.914 5.64891 12.0659 5.64891C12.2177 5.64891 12.3634 5.70819 12.4708 5.81371C12.5782 5.91922 12.6385 6.06233 12.6385 6.21155C12.6337 6.61024 12.5916 7.00765 12.5125 7.39873C12.3692 8.15301 12.0795 8.87315 11.6593 9.51988C10.9946 10.5604 10.0297 11.383 8.88762 11.883C8.49828 12.0561 8.09132 12.1881 7.67359 12.2768C7.23614 12.3765 6.78835 12.4256 6.3393 12.4231Z" fill="#124156"/>
<path d="M11.7566 10.2457C11.8332 10.2443 11.9091 10.2592 11.9793 10.2893C12.0494 10.3194 12.1122 10.364 12.1632 10.4201L15.456 13.6497C15.5877 13.7791 15.7194 13.9029 15.8396 14.0323C15.9188 14.1153 15.9705 14.22 15.9879 14.3325C16.0053 14.445 15.9875 14.56 15.937 14.6624C15.8895 14.7705 15.8087 14.8612 15.7059 14.9217C15.6032 14.9823 15.4837 15.0097 15.3643 15C15.2063 14.9887 15.0587 14.9182 14.952 14.8031L12.1575 12.018L11.3443 11.2247C11.2786 11.1663 11.2275 11.0938 11.1951 11.0128C11.1627 10.9318 11.1499 10.8445 11.1577 10.7578C11.1654 10.6711 11.1936 10.5873 11.2399 10.5131C11.2862 10.4389 11.3494 10.3762 11.4245 10.3301C11.5209 10.2628 11.6391 10.2328 11.7566 10.2457Z" fill="#187D70"/>
</g>
<defs>
<clipPath id="clip0_5889_344">
<rect width="16" height="15" fill="white"/>
</clipPath>
</defs>
</svg>
