<svg width="28" height="27" viewBox="0 0 28 27" fill="none" xmlns="http://www.w3.org/2000/svg">
<g clip-path="url(#clip0_5889_344)">
<path d="M11.07 22.08C10.273 22.1003 9.47672 22.0197 8.7 21.84C6.54832 21.3707 4.58703 20.2664 3.07 18.67C2.16696 17.728 1.44193 16.6303 0.930004 15.43C0.466448 14.3349 0.176302 13.1744 0.0700034 11.99C-0.0170563 11.0696 0.0165603 10.1417 0.170002 9.23C0.355019 8.11342 0.716183 7.0333 1.24 6.03C1.84673 4.84589 2.65941 3.77926 3.64 2.88C4.72387 1.88772 5.99556 1.12266 7.38 0.630003C8.56437 0.208393 9.81284 -0.00476256 11.07 1.84183e-06C11.2947 0.0029022 11.5126 0.0771119 11.6923 0.211916C11.8721 0.34672 12.0043 0.535146 12.07 0.750002C12.1259 0.967154 12.1114 1.19643 12.0288 1.40487C11.9461 1.6133 11.7995 1.79015 11.61 1.91C11.4643 2.00453 11.2936 2.05329 11.12 2.05C10.5571 2.05979 9.9957 2.10992 9.44 2.2C8.7941 2.33709 8.16163 2.53119 7.55001 2.78C6.17387 3.36501 4.96688 4.28659 4.04 5.46C3.34963 6.32328 2.8242 7.30635 2.49 8.36C2.0877 9.59422 1.96474 10.9024 2.13 12.19C2.39088 14.4629 3.52377 16.5458 5.29 18C6.17268 18.7359 7.19226 19.2899 8.29 19.63C9.33829 19.9848 10.4452 20.1342 11.55 20.07C13.6055 19.9613 15.5583 19.137 17.07 17.74C18.2428 16.6963 19.1191 15.3613 19.61 13.87C19.8973 12.9534 20.0522 12.0004 20.07 11.04C20.07 10.7748 20.1754 10.5204 20.3629 10.3329C20.5504 10.1454 20.8048 10.04 21.07 10.04C21.3352 10.04 21.5896 10.1454 21.7771 10.3329C21.9646 10.5204 22.07 10.7748 22.07 11.04C22.0617 11.7486 21.988 12.4549 21.85 13.15C21.5998 14.4906 21.0939 15.7706 20.36 16.92C19.1993 18.7693 17.5144 20.2314 15.52 21.12C14.8401 21.4277 14.1295 21.6624 13.4 21.82C12.6361 21.9971 11.8541 22.0844 11.07 22.08Z" fill="#124156"/>
<path d="M20.53 18.21C20.6637 18.2076 20.7963 18.2341 20.9188 18.2875C21.0413 18.341 21.1509 18.4203 21.24 18.52L26.99 24.26C27.22 24.49 27.45 24.71 27.66 24.94C27.7983 25.0876 27.8885 25.2737 27.9189 25.4736C27.9492 25.6736 27.9182 25.878 27.83 26.06C27.747 26.252 27.6059 26.4132 27.4265 26.5209C27.2471 26.6285 27.0385 26.6772 26.83 26.66C26.554 26.6399 26.2963 26.5146 26.11 26.31L21.23 21.36L19.81 19.95C19.6952 19.8463 19.606 19.7174 19.5494 19.5734C19.4929 19.4294 19.4705 19.2742 19.4841 19.1201C19.4976 18.966 19.5468 18.8172 19.6276 18.6853C19.7085 18.5534 19.8188 18.442 19.95 18.36C20.1183 18.2404 20.3248 18.187 20.53 18.21Z" fill="#187D70"/>
</g>
<defs>
<clipPath id="clip0_5889_344">
<rect width="27.94" height="26.66" fill="white"/>
</clipPath>
</defs>
</svg>
