<svg width="138" height="124" viewBox="0 0 138 124" fill="none" xmlns="http://www.w3.org/2000/svg">
<line x1="48.2981" y1="66.3088" x2="64.5946" y2="84.4161" stroke="white" stroke-width="16" stroke-linecap="round"/>
<line x1="48.2981" y1="66.3088" x2="64.5946" y2="84.4161" stroke="white" stroke-width="16" stroke-linecap="round"/>
<line x1="48.2981" y1="66.3088" x2="64.5946" y2="84.4161" stroke="#024872" stroke-width="16" stroke-linecap="round"/>
<line x1="101.685" y1="50.0235" x2="65.3093" y2="84.4243" stroke="white" stroke-width="16" stroke-linecap="round"/>
<line x1="101.685" y1="50.0235" x2="65.3093" y2="84.4243" stroke="white" stroke-width="16" stroke-linecap="round"/>
<line x1="101.685" y1="50.0235" x2="65.3093" y2="84.4243" stroke="#024872" stroke-width="16" stroke-linecap="round"/>
<circle cx="33" cy="35.7142" r="4" fill="white" fill-opacity="0.5"/>
<circle cx="55.5" cy="122.214" r="1.5" fill="white" fill-opacity="0.5"/>
<circle cx="1.5" cy="20.2142" r="1.5" fill="white" fill-opacity="0.5"/>
<circle cx="136.5" cy="30.2142" r="1.5" fill="white" fill-opacity="0.5"/>
<circle cx="122" cy="86.7142" r="3" fill="white" fill-opacity="0.5"/>
<path d="M23.8823 102.925C23.0987 103.405 22.2349 103.738 21.3402 103.904C20.4454 104.069 19.5373 104.065 18.6676 103.89C17.798 103.715 16.9838 103.374 16.2715 102.886C15.5593 102.398 14.963 101.772 14.5167 101.044C14.0704 100.317 13.7827 99.5015 13.6702 98.6454C13.5577 97.7892 13.6226 96.9088 13.861 96.0544C14.0995 95.2 14.5069 94.3884 15.06 93.6659C15.6132 92.9434 16.3011 92.3241 17.0847 91.8434" stroke="white" stroke-opacity="0.5" stroke-width="2"/>
<path d="M95.2495 8.60596C94.9293 8.07038 94.7102 7.4815 94.6048 6.87293C94.4993 6.26435 94.5095 5.64801 94.6348 5.05909C94.76 4.47017 94.9979 3.9202 95.3349 3.44059C95.6718 2.96097 96.1012 2.5611 96.5985 2.26382C97.0958 1.96653 97.6513 1.77764 98.2333 1.70794C98.8153 1.63823 99.4124 1.68908 99.9904 1.85757C100.568 2.02606 101.116 2.3089 101.602 2.68994C102.088 3.07098 102.503 3.54275 102.823 4.07832" stroke="white" stroke-opacity="0.5" stroke-width="2"/>
<path d="M93 98.7142L94.3471 102.86H98.7063L95.1796 105.422L96.5267 109.568L93 107.006L89.4733 109.568L90.8204 105.422L87.2937 102.86H91.6529L93 98.7142Z" fill="#B2B544" fill-opacity="0.5"/>
<path d="M47.0544 6.1939L50.7956 8.4315L54.0798 5.56491L53.1078 9.81442L56.8489 12.052L52.507 12.4408L51.535 16.6903L49.8236 12.681L45.4817 13.0698L48.7659 10.2032L47.0544 6.1939Z" fill="#B2B544" fill-opacity="0.5"/>
</svg>
