<svg width="20" height="20" viewBox="0 0 20 20" fill="none" xmlns="http://www.w3.org/2000/svg">
<g clip-path="url(#clip0_1030_4691)">
<path d="M15.1683 17.5633H3.99168C3.35649 17.5633 2.74731 17.311 2.29816 16.8619C1.84901 16.4127 1.59668 15.8035 1.59668 15.1683V2.39501C1.59668 2.18328 1.68079 1.98022 1.83051 1.83051C1.98022 1.68079 2.18328 1.59668 2.39501 1.59668H13.5717C13.7834 1.59668 13.9865 1.68079 14.1362 1.83051C14.2859 1.98022 14.37 2.18328 14.37 2.39501V11.975H17.5633V15.1683C17.5633 15.8035 17.311 16.4127 16.8619 16.8619C16.4127 17.311 15.8035 17.5633 15.1683 17.5633ZM14.37 13.5717V15.1683C14.37 15.3801 14.4541 15.5831 14.6038 15.7329C14.7536 15.8826 14.9566 15.9667 15.1683 15.9667C15.3801 15.9667 15.5831 15.8826 15.7329 15.7329C15.8826 15.5831 15.9667 15.3801 15.9667 15.1683V13.5717H14.37ZM12.7733 15.9667V3.19335H3.19335V15.1683C3.19335 15.3801 3.27746 15.5831 3.42717 15.7329C3.57689 15.8826 3.77995 15.9667 3.99168 15.9667H12.7733ZM4.79001 5.58835H11.1767V7.18501H4.79001V5.58835ZM4.79001 8.78168H11.1767V10.3783H4.79001V8.78168ZM4.79001 11.975H8.78168V13.5717H4.79001V11.975Z" fill="black"/>
</g>
<defs>
<clipPath id="clip0_1030_4691">
<rect width="19.16" height="19.16" fill="white"/>
</clipPath>
</defs>
</svg>
