<svg width="20" height="20" viewBox="0 0 20 20" fill="none" xmlns="http://www.w3.org/2000/svg">
<g clip-path="url(#clip0_1066_333)">
<g clip-path="url(#clip1_1066_333)">
<path d="M16 5H19C19.2652 5 19.5196 5.10536 19.7071 5.29289C19.8946 5.48043 20 5.73478 20 6V18C20 18.2652 19.8946 18.5196 19.7071 18.7071C19.5196 18.8946 19.2652 19 19 19H1C0.734784 19 0.48043 18.8946 0.292893 18.7071C0.105357 18.5196 0 18.2652 0 18V2C0 1.73478 0.105357 1.48043 0.292893 1.29289C0.48043 1.10536 0.734784 1 1 1H16V5ZM2 7V17H18V7H2ZM2 3V5H14V3H2ZM13 11H16V13H13V11Z" fill="black"/>
</g>
</g>
<defs>
<clipPath id="clip0_1066_333">
<rect width="19.16" height="19.16" fill="white"/>
</clipPath>
<clipPath id="clip1_1066_333">
<rect width="24" height="24" fill="white" transform="translate(-2 -2)"/>
</clipPath>
</defs>
</svg>
